<svg xmlns="http://www.w3.org/2000/svg" xmlns:svg="http://www.w3.org/2000/svg" id="svg212" width="644.415" height="872pt" version="1.1" viewBox="0 0 483.311 872"><metadata id="metadata218"/><g id="graph0" class="graph" transform="translate(166.56801,868)"><title id="title2">%3</title><g id="node1" class="node"><title id="title6">0</title><ellipse id="ellipse8" cx="64" cy="-846" rx="27" ry="18" style="fill:#afe9af;stroke:green;stroke-width:2.25"/><text id="text10" x="64" y="-842.3" font-size="14" style="font-size:10px;font-family:Times,serif;text-anchor:middle;fill:#000">0</text></g><g id="node2" class="node"><title id="title13">1</title><ellipse id="ellipse15" cx="64" cy="-759" rx="27" ry="18" style="fill:#e6e6e6;stroke:#000"/><text id="text17" x="64" y="-755.3" font-size="14" style="font-size:10px;font-family:Times,serif;text-anchor:middle;fill:#000">1</text></g><g id="edge1" class="edge"><title id="title20">0-&gt;1</title><path id="path22" d="m 64,-827.9735 c 0,11.7817 0,27.4128 0,40.8154" style="fill:none;stroke:#000"/><polygon id="polygon24" points="67.5 -787.003 64 -777.003 60.5 -787.003" style="fill:#000;stroke:#000"/><text id="text26" x="125.5" y="-798.8" font-size="14" style="font-size:10px;font-family:Times,serif;text-anchor:middle;fill:#00f">:__label__LightState</text></g><g id="node3" class="node"><title id="title29">2</title><ellipse id="ellipse31" cx="64" cy="-672" rx="27" ry="18" style="fill:#e6e6e6;stroke:#000"/><text id="text33" x="64" y="-668.3" font-size="14" style="font-size:10px;font-family:Times,serif;text-anchor:middle;fill:#000">2</text></g><g id="edge2" class="edge"><title id="title36">1-&gt;2</title><path id="path38" d="m 64,-740.9735 c 0,11.7817 0,27.4128 0,40.8154" style="fill:none;stroke:#000"/><polygon id="polygon40" points="67.5 -700.003 64 -690.003 60.5 -700.003" style="fill:#000;stroke:#000"/><text id="text42" x="78" y="-711.8" font-size="14" style="font-size:10px;font-family:Times,serif;text-anchor:middle;fill:#000">turn</text></g><g id="node4" class="node"><title id="title45">3</title><ellipse id="ellipse47" cx="64" cy="-585" rx="27" ry="18" style="fill:#e6e6e6;stroke:#000"/><text id="text49" x="64" y="-581.3" font-size="14" style="font-size:10px;font-family:Times,serif;text-anchor:middle;fill:#000">3</text></g><g id="edge3" class="edge"><title id="title52">2-&gt;3</title><path id="path54" d="m 64,-653.9735 c 0,11.7817 0,27.4128 0,40.8154" style="fill:none;stroke:#000"/><polygon id="polygon56" points="67.5 -613.003 64 -603.003 60.5 -613.003" style="fill:#000;stroke:#000"/><text id="text58" x="111.5" y="-624.8" font-size="14" style="font-size:10px;font-family:Times,serif;text-anchor:middle;fill:#00f">:__begin__state</text></g><g id="node5" class="node"><title id="title61">4</title><ellipse id="ellipse63" cx="28" cy="-498" rx="27" ry="18" style="fill:#e6e6e6;stroke:#000"/><text id="text65" x="28" y="-494.3" font-size="14" style="font-size:10px;font-family:Times,serif;text-anchor:middle;fill:#000">4</text></g><g id="edge4" class="edge"><title id="title68">3-&gt;4</title><path id="path70" d="m 56.7149,-567.3943 c -5.026,12.1461 -11.8042,28.5269 -17.5131,42.3232" style="fill:none;stroke:#000"/><polygon id="polygon72" points="42.332 -523.481 35.274 -515.58 35.864 -526.158" style="fill:#000;stroke:#000"/><text id="text74" x="56" y="-537.8" font-size="14" style="font-size:10px;font-family:Times,serif;text-anchor:middle;fill:#000">on</text></g><g id="node6" class="node"><title id="title77">5</title><ellipse id="ellipse79" cx="100" cy="-498" rx="27" ry="18" style="fill:#e6e6e6;stroke:#000"/><text id="text81" x="100" y="-494.3" font-size="14" style="font-size:10px;font-family:Times,serif;text-anchor:middle;fill:#000">5</text></g><g id="edge5" class="edge"><title id="title84">3-&gt;5</title><path id="path86" d="m 71.2851,-567.3943 c 5.026,12.1461 11.8042,28.5269 17.5131,42.3232" style="fill:none;stroke:#000"/><polygon id="polygon88" points="92.136 -526.158 92.726 -515.58 85.668 -523.481" style="fill:#000;stroke:#000"/><text id="text90" x="92" y="-537.8" font-size="14" style="font-size:10px;font-family:Times,serif;text-anchor:middle;fill:#000">off</text></g><g id="node7" class="node"><title id="title93">6</title><ellipse id="ellipse95" cx="63" cy="-425" rx="27" ry="18" style="fill:#e6e6e6;stroke:#000"/><text id="text97" x="63" y="-421.3" font-size="14" style="font-size:10px;font-family:Times,serif;text-anchor:middle;fill:#000">6</text></g><g id="edge6" class="edge"><title id="title100">4-&gt;6</title><path id="path102" d="m 36.2945,-480.7 c 4.1845,8.7276 9.3506,19.5026 14.0206,29.2429" style="fill:none;stroke:#000"/><polygon id="polygon104" points="53.598 -452.706 54.765 -442.176 47.286 -449.68" style="fill:#000;stroke:#000"/></g><g id="edge7" class="edge"><title id="title107">5-&gt;6</title><path id="path109" d="m 91.2315,-480.7 c -4.4696,8.8185 -9.9988,19.7273 -14.9759,29.547" style="fill:none;stroke:#000"/><polygon id="polygon111" points="79.348 -449.513 71.706 -442.176 73.105 -452.678" style="fill:#000;stroke:#000"/></g><g id="node8" class="node"><title id="title114">7</title><ellipse id="ellipse116" cx="63" cy="-338" rx="27" ry="18" style="fill:#e6e6e6;stroke:#000"/><text id="text118" x="63" y="-334.3" font-size="14" style="font-size:10px;font-family:Times,serif;text-anchor:middle;fill:#000">7</text></g><g id="edge8" class="edge"><title id="title121">6-&gt;7</title><path id="path123" d="m 63,-406.9735 c 0,11.7817 0,27.4128 0,40.8154" style="fill:none;stroke:#000"/><polygon id="polygon125" points="66.5 -366.003 63 -356.003 59.5 -366.003" style="fill:#000;stroke:#000"/><text id="text127" x="105.5" y="-377.8" font-size="14" style="font-size:10px;font-family:Times,serif;text-anchor:middle;fill:#00f">:__end__state</text></g><g id="node9" class="node"><title id="title130">8</title><ellipse id="ellipse132" cx="27" cy="-251" rx="27" ry="18" style="fill:#e6e6e6;stroke:#000"/><text id="text134" x="27" y="-247.3" font-size="14" style="font-size:10px;font-family:Times,serif;text-anchor:middle;fill:#000">8</text></g><g id="edge9" class="edge"><title id="title137">7-&gt;8</title><path id="path139" d="m 55.7149,-320.3943 c -5.026,12.1461 -11.8042,28.5269 -17.5131,42.3232" style="fill:none;stroke:#000"/><polygon id="polygon141" points="41.332 -276.481 34.274 -268.58 34.864 -279.158" style="fill:#000;stroke:#000"/><text id="text143" x="56.5" y="-290.8" font-size="14" style="font-size:10px;font-family:Times,serif;text-anchor:middle;fill:#000">the</text></g><g id="node10" class="node"><title id="title146">9</title><ellipse id="ellipse148" cx="99" cy="-251" rx="27" ry="18" style="fill:#e6e6e6;stroke:#000"/><text id="text150" x="99" y="-247.3" font-size="14" style="font-size:10px;font-family:Times,serif;text-anchor:middle;fill:#000">9</text></g><g id="edge10" class="edge"><title id="title153">7-&gt;9</title><path id="path155" d="m 70.2851,-320.3943 c 5.026,12.1461 11.8042,28.5269 17.5131,42.3232" style="fill:none;stroke:#000"/><polygon id="polygon157" points="91.136 -279.158 91.726 -268.58 84.668 -276.481" style="fill:#000;stroke:#000"/></g><g id="node11" class="node"><title id="title160">10</title><ellipse id="ellipse162" cx="62" cy="-178" rx="27" ry="18" style="fill:#e6e6e6;stroke:#000"/><text id="text164" x="62" y="-174.3" font-size="14" style="font-size:10px;font-family:Times,serif;text-anchor:middle;fill:#000">10</text></g><g id="edge11" class="edge"><title id="title167">8-&gt;10</title><path id="path169" d="m 35.2945,-233.7 c 4.1845,8.7276 9.3506,19.5026 14.0206,29.2429" style="fill:none;stroke:#000"/><polygon id="polygon171" points="52.598 -205.706 53.765 -195.176 46.286 -202.68" style="fill:#000;stroke:#000"/></g><g id="edge12" class="edge"><title id="title174">9-&gt;10</title><path id="path176" d="m 90.2315,-233.7 c -4.4696,8.8185 -9.9988,19.7273 -14.9759,29.547" style="fill:none;stroke:#000"/><polygon id="polygon178" points="78.348 -202.513 70.706 -195.176 72.105 -205.678" style="fill:#000;stroke:#000"/></g><g id="node12" class="node"><title id="title181">11</title><ellipse id="ellipse183" cx="62" cy="-91" rx="27" ry="18" style="fill:#e6e6e6;stroke:#000"/><text id="text185" x="62" y="-87.3" font-size="14" style="font-size:10px;font-family:Times,serif;text-anchor:middle;fill:#000">11</text></g><g id="edge13" class="edge"><title id="title188">10-&gt;11</title><path id="path190" d="m 62,-159.9735 c 0,11.7817 0,27.4128 0,40.8154" style="fill:none;stroke:#000"/><polygon id="polygon192" points="65.5 -119.003 62 -109.003 58.5 -119.003" style="fill:#000;stroke:#000"/><text id="text194" x="79" y="-130.8" font-size="14" style="font-size:10px;font-family:Times,serif;text-anchor:middle;fill:#000">light</text></g><g id="node13" class="node"><title id="title197">12</title><ellipse id="ellipse199" cx="62" cy="-18" rx="27" ry="18" style="fill:#faa;stroke:red;stroke-width:2.25"/><text id="text201" x="62" y="-14.3" font-size="14" style="font-size:10px;font-family:Times,serif;text-anchor:middle;fill:#000">12</text></g><g id="edge14" class="edge"><title id="title204">11-&gt;12</title><path id="path206" d="m 62,-72.9551 c 0,8.0723 0,17.7787 0,26.7734" style="fill:none;stroke:#000"/><polygon id="polygon208" points="65.5 -46.09 62 -36.09 58.5 -46.09" style="fill:#000;stroke:#000"/></g></g><g id="g965" transform="translate(162.56801)"><path id="path195" style="font-style:normal;font-weight:400;font-size:72.17579651px;line-height:1.25;font-family:sans-serif;letter-spacing:0;word-spacing:0;fill:#4d4d4d;fill-opacity:1;stroke:none;stroke-width:.44558176" d="m 168.47199,121.68976 v 3.56229 h 3.81322 c 14.70756,-0.0346 17.38514,-8.05209 17.46797,-15.99874 V 83.890973 c 0,-4.3646 1.10707,-7.38515 3.32121,-9.06161 2.21409,-1.67647 6.23418,-4.66511 12.05464,-4.51819 h 3.75172 l 5.07101,-1.09655 -5.07101,-0.90714 h -3.75172 c -5.86332,0 -9.88154,-3.01667 -12.05464,-4.66424 -2.21414,-1.67647 -3.32121,-4.66811 -3.32121,-8.97491 V 29.262636 c 0.18964,-11.162188 -8.74639,-15.918999 -17.46797,-15.955379 h -3.81322 v 2.625208 h 7.35163 c 8.20675,1.011572 10.75875,9.543938 10.79189,13.5036 v 25.752548 c 0,4.53804 0.94303,7.83318 2.82912,9.88541 1.8451,2.05223 5.02279,3.43966 9.53305,4.16228 -4.55125,0.78042 -7.74944,2.19674 -9.59454,4.24898 -1.8451,2.05224 -2.76763,5.33292 -2.76763,9.84206 v 25.752527 c 0.0575,5.65975 -4.84036,12.49551 -10.15804,12.60989 z"/><text xml:space="preserve" style="font-style:normal;font-weight:400;font-size:14.33721828px;line-height:1.25;font-family:sans-serif;letter-spacing:0;word-spacing:0;fill:#000;fill-opacity:1;stroke:none;stroke-width:.75" id="text1472-5" x="220.845" y="74.404"><tspan id="tspan1470-3" x="220.845" y="74.404" style="font-weight:700;stroke-width:.75">Intent Name</tspan></text></g><g id="g970" transform="translate(162.56801)"><path d="m 168.47199,414.5118 v 3.56229 h 3.81322 c 14.70756,-0.0346 17.38514,-8.05209 17.46797,-15.99874 v -25.36234 c 0,-4.3646 1.10707,-7.38515 3.32121,-9.06161 2.21409,-1.67647 6.23418,-4.66511 12.05464,-4.51819 h 3.75172 l 5.07101,-1.09655 -5.07101,-0.90714 h -3.75172 c -5.86332,0 -9.88154,-3.01667 -12.05464,-4.66424 -2.21414,-1.67647 -3.32121,-4.66811 -3.32121,-8.97491 v -25.40569 c 0.18964,-11.16219 -8.74639,-15.919 -17.46797,-15.95538 h -3.81322 v 2.62521 h 7.35163 c 8.20675,1.01157 10.75875,9.54393 10.79189,13.5036 v 25.75254 c 0,4.53804 0.94303,7.83318 2.82912,9.88541 1.8451,2.05223 5.02279,3.43966 9.53305,4.16228 -4.55125,0.78042 -7.74944,2.19674 -9.59454,4.24898 -1.8451,2.05224 -2.76763,5.33292 -2.76763,9.84206 v 25.75253 c 0.0575,5.65975 -4.84036,12.49551 -10.15804,12.60989 z" style="font-style:normal;font-weight:400;font-size:72.17579651px;line-height:1.25;font-family:sans-serif;letter-spacing:0;word-spacing:0;fill:#4d4d4d;fill-opacity:1;stroke:none;stroke-width:.44558176" id="path944"/><text id="text948" x="222.14" y="367.447" style="font-style:normal;font-weight:400;font-size:14.33721828px;line-height:1.25;font-family:sans-serif;letter-spacing:0;word-spacing:0;fill:#000;fill-opacity:1;stroke:none;stroke-width:.75" xml:space="preserve"><tspan style="font-weight:700;stroke-width:.75" id="tspan946" x="222.14" y="367.447">Alternative</tspan></text></g><g id="g975" transform="translate(162.56801)"><path id="path950" style="font-style:normal;font-weight:400;font-size:72.17579651px;line-height:1.25;font-family:sans-serif;letter-spacing:0;word-spacing:0;fill:#4d4d4d;fill-opacity:1;stroke:none;stroke-width:.44558176" d="m 168.47199,618.65588 v 3.56229 h 3.81322 c 14.70756,-0.0346 17.38514,-8.05209 17.46797,-15.99874 v -25.36234 c 0,-4.3646 1.10707,-7.38515 3.32121,-9.06161 2.21409,-1.67647 6.23418,-4.66511 12.05464,-4.51819 h 3.75172 l 5.07101,-1.09655 -5.07101,-0.90714 h -3.75172 c -5.86332,0 -9.88154,-3.01667 -12.05464,-4.66424 -2.21414,-1.67647 -3.32121,-4.66811 -3.32121,-8.97491 v -25.40569 c 0.18964,-11.16219 -8.74639,-15.919 -17.46797,-15.95538 h -3.81322 v 2.62521 h 7.35163 c 8.20675,1.01157 10.75875,9.54393 10.79189,13.5036 v 25.75254 c 0,4.53804 0.94303,7.83318 2.82912,9.88541 1.8451,2.05223 5.02279,3.43966 9.53305,4.16228 -4.55125,0.78042 -7.74944,2.19674 -9.59454,4.24898 -1.8451,2.05224 -2.76763,5.33292 -2.76763,9.84206 v 25.75253 c 0.0575,5.65975 -4.84036,12.49551 -10.15804,12.60989 z"/><text xml:space="preserve" style="font-style:normal;font-weight:400;font-size:14.33721828px;line-height:1.25;font-family:sans-serif;letter-spacing:0;word-spacing:0;fill:#000;fill-opacity:1;stroke:none;stroke-width:.75" id="text954" x="221.447" y="570.201"><tspan id="tspan952" x="221.447" y="570.201" style="font-weight:700;stroke-width:.75">Optional</tspan></text></g><g id="g980" transform="translate(162.56801)"><path d="m -4.0482468,524.13046 v 3.56229 h -3.81322 c -14.7075612,-0.0346 -17.3851412,-8.05209 -17.4679712,-15.99874 v -25.36234 c 0,-4.3646 -1.10707,-112.38515 -3.32121,-114.06161 -2.21409,-1.67647 -6.23418,-4.66511 -12.05464,-4.51819 h -3.75172 l -5.07101,-1.09655 5.07101,-0.90714 h 3.75172 c 5.86332,0 9.88154,-3.01667 12.05464,-4.66424 2.21414,-1.67647 3.32121,-109.66811 3.32121,-113.97491 v -25.4057 c -0.18964,-11.16219 8.74639,-15.919 17.4679712,-15.95538 h 3.81322 v 2.62521 h -7.3516302 c -8.206751,1.01157 -10.758751,9.54394 -10.791891,13.5036 v 25.75255 c 0,4.53804 -0.94303,112.83318 -2.82912,114.88541 -1.8451,2.05223 -5.02279,3.43966 -9.53305,4.16228 4.55125,0.78042 7.74944,2.19674 9.59454,4.24898 1.8451,2.05224 2.76763,110.33292 2.76763,114.84206 v 25.75253 c -0.0575,5.65975 4.84036,12.49551 10.158041,12.60989 z" style="font-style:normal;font-weight:400;font-size:72.17579651px;line-height:1.25;font-family:sans-serif;letter-spacing:0;word-spacing:0;fill:#4d4d4d;fill-opacity:1;stroke:none;stroke-width:.44558176" id="path956"/><text id="text960" x="-163.884" y="370.676" style="font-style:normal;font-weight:400;font-size:14.33721828px;line-height:1.25;font-family:sans-serif;letter-spacing:0;word-spacing:0;fill:#000;fill-opacity:1;stroke:none;stroke-width:.75" xml:space="preserve"><tspan style="font-weight:700;stroke-width:.75" id="tspan958" x="-163.884" y="370.676">Named Entity</tspan></text></g></svg>