<svg xmlns="http://www.w3.org/2000/svg" xmlns:svg="http://www.w3.org/2000/svg" id="svg8" width="712.109" height="246.968" version="1.1" viewBox="0 0 188.412 65.344"><defs id="defs2"><marker style="overflow:visible" id="marker6814" orient="auto" refX="0" refY="0"><path transform="scale(0.8)" style="fill:#000;fill-opacity:1;fill-rule:evenodd;stroke:#000;stroke-width:1.00000003pt;stroke-opacity:1" id="path6812" d="M 5.77,0 -2.88,5 V -5 Z"/></marker><marker id="marker5749" orient="auto" refX="0" refY="0" style="overflow:visible"><path id="path5747" d="M 5.77,0 -2.88,5 V -5 Z" style="fill:#fff;fill-rule:evenodd;stroke:#000;stroke-width:1.00000003pt;stroke-opacity:1" transform="matrix(0.8,0,0,0.8,-4.8,0)"/></marker><marker style="overflow:visible" id="marker5501" orient="auto" refX="0" refY="0"><path transform="scale(0.8)" style="fill:#000;fill-opacity:1;fill-rule:evenodd;stroke:#000;stroke-width:1.00000003pt;stroke-opacity:1" id="path5499" d="M 5.77,0 -2.88,5 V -5 Z"/></marker><marker id="TriangleOutL" orient="auto" refX="0" refY="0" style="overflow:visible"><path id="path1091" d="M 5.77,0 -2.88,5 V -5 Z" style="fill:#000;fill-opacity:1;fill-rule:evenodd;stroke:#000;stroke-width:1.00000003pt;stroke-opacity:1" transform="scale(0.8)"/></marker><marker id="Arrow2Mend" orient="auto" refX="0" refY="0" style="overflow:visible"><path id="path976" style="fill:#000;fill-opacity:1;fill-rule:evenodd;stroke:#000;stroke-width:.625;stroke-linejoin:round;stroke-opacity:1" d="M 8.7185878,4.0337352 -2.2072895,0.01601326 8.7185884,-4.0017078 c -1.7454984,2.3720609 -1.7354408,5.6174519 -6e-7,8.035443 z" transform="scale(-0.6)"/></marker><marker id="TriangleOutL-3" orient="auto" refX="0" refY="0" style="overflow:visible"><path id="path1091-6" d="M 5.77,0 -2.88,5 V -5 Z" style="fill:#000;fill-opacity:1;fill-rule:evenodd;stroke:#000;stroke-width:1.00000003pt;stroke-opacity:1" transform="scale(0.8)"/></marker><marker id="TriangleOutL-2" orient="auto" refX="0" refY="0" style="overflow:visible"><path id="path1091-9" d="M 5.77,0 -2.88,5 V -5 Z" style="fill:#000;fill-opacity:1;fill-rule:evenodd;stroke:#000;stroke-width:1.00000003pt;stroke-opacity:1" transform="scale(0.8)"/></marker><marker id="TriangleOutL-2-1" orient="auto" refX="0" refY="0" style="overflow:visible"><path id="path1091-9-2" d="M 5.77,0 -2.88,5 V -5 Z" style="fill:#000;fill-opacity:1;fill-rule:evenodd;stroke:#000;stroke-width:1.00000003pt;stroke-opacity:1" transform="scale(0.8)"/></marker><filter style="color-interpolation-filters:sRGB" id="filter1477" width="1.031" height="1.112" x="-.015" y="-.056"><feGaussianBlur id="feGaussianBlur1479" stdDeviation=".238"/></filter></defs><metadata id="metadata5"/><g id="layer1" transform="translate(45.039366,-19.770372)"><path style="fill:none;stroke:#000;stroke-width:.40299997;stroke-linecap:butt;stroke-linejoin:miter;stroke-miterlimit:4;stroke-dasharray:none;stroke-opacity:1;marker-end:url(#marker6814)" id="path6810" d="m 79.410001,32.250507 h 13.81691"/><path id="path922-7" d="M -0.45636933,32.250507 H 23.943863" style="fill:none;stroke:#000;stroke-width:.40299997;stroke-linecap:butt;stroke-linejoin:miter;stroke-miterlimit:4;stroke-dasharray:none;stroke-opacity:1;marker-end:url(#TriangleOutL-2-1)"/><g id="g6756" transform="translate(82.342115,-2.7261274)"><rect style="opacity:1;fill:#fff;fill-opacity:1;stroke:#000;stroke-width:.49999997;stroke-miterlimit:4;stroke-dasharray:none;stroke-dashoffset:0;stroke-opacity:1" id="rect6750" width="44.412" height="13.607" x="16.368" y="27.323"/><text xml:space="preserve" style="font-style:normal;font-weight:400;font-size:6.58542347px;line-height:1.25;font-family:sans-serif;letter-spacing:0;word-spacing:0;fill:#000;fill-opacity:1;stroke:none;stroke-width:.16463558" id="text6754" x="21.256" y="36.581"><tspan id="tspan6752" x="21.256" y="36.581" style="stroke-width:.16463558">Fragments</tspan></text></g><g id="g9567" transform="translate(-43.5067,14.174107)"><text id="text7022" x="-.194" y="58.571" style="font-style:normal;font-weight:400;font-size:7.85090685px;line-height:1.25;font-family:sans-serif;letter-spacing:0;word-spacing:0;fill:gray;fill-opacity:1;stroke:none;stroke-width:.41069192" xml:space="preserve"><tspan id="tspan7020" style="font-style:normal;fill:gray;stroke-width:.41069192" x="-.194" y="58.571">TH AE T S AA D</tspan></text><g id="g9428" transform="translate(36.507129,11.086313)"><path style="fill:none;stroke:#000;stroke-width:.26458332px;stroke-linecap:butt;stroke-linejoin:miter;stroke-opacity:1" id="path9401" d="m -37.907503,49.295459 v 4.075859 h 31.9387089 v -4.075859"/><text xml:space="preserve" style="font-style:normal;font-weight:400;font-size:4.88518047px;line-height:1.25;font-family:sans-serif;letter-spacing:0;word-spacing:0;fill:green;fill-opacity:1;stroke:none;stroke-width:.26458332" id="text9423" x="-26.91" y="52.25"><tspan id="tspan9421" x="-26.91" y="52.25" style="fill:green;stroke-width:.26458332">that</tspan></text></g><g id="g9451" transform="translate(36.507129,13.732146)"><path id="path9403" d="m -37.907503,52.999625 v 4.075859 H 1.9687059 v -9.367526" style="fill:none;stroke:#000;stroke-width:.26458332px;stroke-linecap:butt;stroke-linejoin:miter;stroke-opacity:1"/><text id="text9423-6" x="-24.827" y="56.222" style="font-style:normal;font-weight:400;font-size:4.88518047px;line-height:1.25;font-family:sans-serif;letter-spacing:0;word-spacing:0;fill:green;fill-opacity:1;stroke:none;stroke-width:.26458332" xml:space="preserve"><tspan style="fill:green;stroke-width:.26458332" id="tspan9421-2" x="-24.827" y="56.222">that&apos;s</tspan></text></g><g id="g9474" transform="translate(35.448796,-24.367854)"><path style="fill:none;stroke:#000;stroke-width:.26458332px;stroke-linecap:butt;stroke-linejoin:miter;stroke-opacity:1" id="path9405" d="M -2.9825014,77.845281 V 61.598589 H 25.25204 v 4.075859"/><text xml:space="preserve" style="font-style:normal;font-weight:400;font-size:4.88518047px;line-height:1.25;font-family:sans-serif;letter-spacing:0;word-spacing:0;fill:green;fill-opacity:1;stroke:none;stroke-width:.26458332" id="text9423-6-6" x="7.171" y="66.351"><tspan id="tspan9421-2-1" x="7.171" y="66.351" style="fill:green;stroke-width:.26458332">sod</tspan></text></g><g id="g9482" transform="translate(35.448796,-16.959519)"><path id="path9476" d="M -2.9825014,65.674448 V 61.598589 H 25.25204 v 4.075859" style="fill:none;stroke:#000;stroke-width:.26458332px;stroke-linecap:butt;stroke-linejoin:miter;stroke-opacity:1"/><text id="text9480" x="3.665" y="66.351" style="font-style:normal;font-weight:400;font-size:4.88518047px;line-height:1.25;font-family:sans-serif;letter-spacing:0;word-spacing:0;fill:green;fill-opacity:1;stroke:none;stroke-width:.26458332" xml:space="preserve"><tspan style="fill:green;stroke-width:.26458332" id="tspan9478" x="3.665" y="66.351">sawed</tspan></text></g><g id="g9505" transform="translate(37.236749,-12.726189)"><path id="path9407" d="m 2.838332,75.753794 v 7.780025 H 23.66454 V 79.45796" style="fill:none;stroke:#000;stroke-width:.26458332px;stroke-linecap:butt;stroke-linejoin:miter;stroke-opacity:1"/><text xml:space="preserve" style="font-style:normal;font-weight:400;font-size:4.88518047px;line-height:1.25;font-family:sans-serif;letter-spacing:0;word-spacing:0;fill:green;fill-opacity:1;stroke:none;stroke-width:.26458332" id="text9480-8" x="9.538" y="82.68"><tspan id="tspan9478-7" x="9.538" y="82.68" style="fill:green;stroke-width:.26458332">odd</tspan></text></g></g><g id="g9578" transform="translate(136.73605,-7.1343006)"><path id="path9571" d="m -21.699993,55.063567 v -4.34445 c 0,-0.711887 1.457274,-1.041055 1.546143,0.0098 0.150249,0.756404 0.284464,1.695745 1.059256,2.075292 0.764215,0.469725 1.433345,-0.453798 2.173037,-0.571214 0.714322,-0.113389 1.467206,-0.311235 2.166173,-0.125338 0.471254,0.125335 0.784695,0.590401 1.225524,0.79887 0.613376,0.290066 1.48017,0.114862 1.941088,0.612782 0.359022,0.387844 0.345663,1.314008 0.359372,1.544258 z" style="fill:#ccc;stroke:#999;stroke-width:.26458332px;stroke-linecap:butt;stroke-linejoin:miter;stroke-opacity:1"/><path id="path9569" d="m -21.699993,47.045483 v 8.018084 h 11.8934941" style="fill:none;stroke:#000;stroke-width:.26458332px;stroke-linecap:butt;stroke-linejoin:miter;stroke-opacity:1"/></g><g id="g1010" transform="translate(-129.00326,-1.6063988)"><g id="g9519" transform="translate(83.381556,-1.8756808)"><rect style="opacity:1;fill:#fff;fill-opacity:1;stroke:#000;stroke-width:.49999997;stroke-miterlimit:4;stroke-dasharray:none;stroke-dashoffset:0;stroke-opacity:1" id="rect9513" width="30.994" height="13.607" x="16.368" y="27.323"/><text xml:space="preserve" style="font-style:normal;font-weight:400;font-size:6.58542347px;line-height:1.25;font-family:sans-serif;letter-spacing:0;word-spacing:0;fill:#000;fill-opacity:1;stroke:none;stroke-width:.16463558" id="text9517" x="21.738" y="36.581"><tspan id="tspan9515" x="21.738" y="36.581" style="stroke-width:.16463558">Words</tspan></text></g><g id="g9584" transform="translate(131.06641,-6.2838542)"><path id="path9580" d="m -21.699993,55.063567 v -4.34445 c 0,-0.711887 1.457274,-1.041055 1.546143,0.0098 0.150249,0.756404 0.284464,1.695745 1.059256,2.075292 0.764215,0.469725 1.433345,-0.453798 2.173037,-0.571214 0.714322,-0.113389 1.467206,-0.311235 2.166173,-0.125338 0.471254,0.125335 0.784695,0.590401 1.225524,0.79887 0.613376,0.290066 1.48017,0.114862 1.941088,0.612782 0.359022,0.387844 0.345663,1.314008 0.359372,1.544258 z" style="fill:#ccc;stroke:#999;stroke-width:.26458332px;stroke-linecap:butt;stroke-linejoin:miter;stroke-opacity:1"/><path id="path9582" d="m -21.699993,47.045483 v 8.018084 h 11.8934941" style="fill:none;stroke:#000;stroke-width:.26458332px;stroke-linecap:butt;stroke-linejoin:miter;stroke-opacity:1"/></g></g><g id="g5735" transform="matrix(1.1036042,0,0,1.1036042,-60.078546,-4.784258)"><rect id="rect5727" width="47.625" height="20.411" x="81.454" y="22.589" ry="10.205" style="opacity:1;fill:#fc0;fill-opacity:1;stroke:#806600;stroke-width:.67959148;stroke-miterlimit:4;stroke-dasharray:none;stroke-dashoffset:0;stroke-opacity:1"/><text xml:space="preserve" style="font-style:normal;font-weight:400;font-size:7.11387825px;line-height:1.25;font-family:sans-serif;letter-spacing:0;word-spacing:0;fill:#2b2200;fill-opacity:1;stroke:none;stroke-width:.37213695" id="text5731" x="87.544" y="35.607"><tspan id="tspan5729" x="87.544" y="35.607" style="fill:#2b2200;stroke-width:.37213695">Language</tspan></text><path id="path5733" d="M 129.07887,32.794642 C 129.07887,38.448411 124.52728,43 118.87351,43 H 91.659223 c 0.177872,-2.459989 31.594707,0.946279 37.419647,-10.205358 z" style="opacity:.1;fill:#000;fill-opacity:1;stroke:none;stroke-width:.5;stroke-miterlimit:4;stroke-dasharray:none;stroke-dashoffset:0;stroke-opacity:1;filter:url(#filter1477)"/></g><text xml:space="preserve" style="font-style:normal;font-weight:400;font-size:4.88518047px;line-height:1.25;font-family:sans-serif;letter-spacing:0;word-spacing:0;fill:#00f;fill-opacity:1;stroke:none;stroke-width:.26458332" id="text9423-6-6-3" x="108.788" y="57.685"><tspan x="108.788" y="57.685" style="fill:#00f;stroke-width:.26458332" id="tspan1966">that&apos;s odd</tspan><tspan x="108.788" y="63.792" style="fill:#00f;stroke-width:.26458332" id="tspan1970">that sod</tspan></text></g></svg>