<svg xmlns="http://www.w3.org/2000/svg" xmlns:svg="http://www.w3.org/2000/svg" id="svg8" width="869.626" height="197.627" version="1.1" viewBox="0 0 230.089 52.289"><defs id="defs2"><marker style="overflow:visible" id="marker3052" orient="auto" refX="0" refY="0"><path transform="scale(0.8)" style="fill:#000;fill-opacity:1;fill-rule:evenodd;stroke:#000;stroke-width:1.00000003pt;stroke-opacity:1" id="path3050" d="M 5.77,0 -2.88,5 V -5 Z"/></marker><marker id="TriangleOutL" orient="auto" refX="0" refY="0" style="overflow:visible"><path id="path1091" d="M 5.77,0 -2.88,5 V -5 Z" style="fill:#000;fill-opacity:1;fill-rule:evenodd;stroke:#000;stroke-width:1.00000003pt;stroke-opacity:1" transform="scale(0.8)"/></marker><marker id="Arrow2Mend" orient="auto" refX="0" refY="0" style="overflow:visible"><path id="path976" style="fill:#000;fill-opacity:1;fill-rule:evenodd;stroke:#000;stroke-width:.625;stroke-linejoin:round;stroke-opacity:1" d="M 8.7185878,4.0337352 -2.2072895,0.01601326 8.7185884,-4.0017078 c -1.7454984,2.3720609 -1.7354408,5.6174519 -6e-7,8.035443 z" transform="scale(-0.6)"/></marker><marker id="TriangleOutL-3" orient="auto" refX="0" refY="0" style="overflow:visible"><path id="path1091-6" d="M 5.77,0 -2.88,5 V -5 Z" style="fill:#000;fill-opacity:1;fill-rule:evenodd;stroke:#000;stroke-width:1.00000003pt;stroke-opacity:1" transform="scale(0.8)"/></marker><filter style="color-interpolation-filters:sRGB" id="filter1477" width="1.031" height="1.112" x="-.015" y="-.056"><feGaussianBlur id="feGaussianBlur1479" stdDeviation=".238"/></filter></defs><metadata id="metadata5"/><g id="layer1" transform="translate(-14.029696,-9.6471471)"><g id="g4791" transform="matrix(0.33115317,0,0,0.33115317,83.368828,28.060717)" style="stroke-width:3.0197506"><path style="fill:none;stroke:#000;stroke-width:1.2169596;stroke-linecap:butt;stroke-linejoin:miter;stroke-miterlimit:4;stroke-dasharray:none;stroke-opacity:1;marker-end:url(#TriangleOutL-3)" id="path922-7" d="m 129.7922,34.089321 h 26.08169"/></g><g id="g4696" transform="translate(0,8.9385813)"><text xml:space="preserve" style="font-style:normal;font-weight:400;font-size:5.05785179px;line-height:1.25;font-family:sans-serif;letter-spacing:0;word-spacing:0;fill:#000;fill-opacity:1;stroke:none;stroke-width:.26458332" id="text2467" x="17.447" y="25.467"><tspan x="17.447" y="25.467" style="font-style:normal;font-variant:normal;font-weight:400;font-stretch:normal;font-family:monospace;-inkscape-font-specification:monospace;fill:#000;stroke-width:.26458332" id="tspan2465">[<tspan id="tspan2516" style="fill:green">LightState</tspan>]</tspan><tspan id="tspan2504" x="17.447" y="31.789" style="font-style:normal;font-variant:normal;font-weight:400;font-stretch:normal;font-family:monospace;-inkscape-font-specification:monospace;fill:#000;stroke-width:.26458332"><tspan id="tspan2512" style="fill:maroon">states</tspan> = (on | off)</tspan><tspan id="tspan2506" x="17.447" y="38.111" style="font-style:normal;font-variant:normal;font-weight:400;font-stretch:normal;font-family:monospace;-inkscape-font-specification:monospace;fill:#000;stroke-width:.26458332">turn (&lt;<tspan id="tspan2510" style="fill:maroon">states</tspan>&gt;){<tspan id="tspan2514" style="fill:#00f">state</tspan>} [<tspan id="tspan2508" style="fill:gray">the</tspan>] light</tspan></text><rect id="rect4678" width="109.613" height="31.939" x="14.28" y="14.441" style="opacity:1;fill:none;fill-opacity:1;stroke:#000;stroke-width:.5;stroke-miterlimit:4;stroke-dasharray:.50000001,1.50000004;stroke-dashoffset:0;stroke-opacity:1"/><text xml:space="preserve" style="font-style:normal;font-weight:400;font-size:5.05785179px;line-height:1.25;font-family:sans-serif;letter-spacing:0;word-spacing:0;fill:#000;fill-opacity:1;stroke:none;stroke-width:.26458332" id="text4682" x="52.47" y="5.781"><tspan id="tspan4680" x="52.47" y="5.781" style="stroke-width:.26458332">sentences.ini</tspan></text></g><g style="stroke-width:3.0197506" id="g3048" transform="matrix(0.33115317,0,0,0.33115317,134.16884,24.353966)"><path id="path3046" d="m 129.7922,45.282783 h 26.08169" style="fill:none;stroke:#000;stroke-width:1.2169596;stroke-linecap:butt;stroke-linejoin:miter;stroke-miterlimit:4;stroke-dasharray:none;stroke-opacity:1;marker-end:url(#marker3052)"/></g><g id="g5735" transform="matrix(1.1036042,0,0,1.1036042,101.03557,3.0293434)"><rect id="rect5727" width="47.625" height="20.411" x="81.454" y="22.589" ry="10.205" style="opacity:1;fill:#fc0;fill-opacity:1;stroke:#806600;stroke-width:.67959148;stroke-miterlimit:4;stroke-dasharray:none;stroke-dashoffset:0;stroke-opacity:1"/><text xml:space="preserve" style="font-style:normal;font-weight:400;font-size:7.11387825px;line-height:1.25;font-family:sans-serif;letter-spacing:0;word-spacing:0;fill:#2b2200;fill-opacity:1;stroke:none;stroke-width:.37213695" id="text5731" x="87.544" y="35.607"><tspan id="tspan5729" x="87.544" y="35.607" style="fill:#2b2200;stroke-width:.37213695">Language</tspan></text><path id="path5733" d="M 129.07887,32.794642 C 129.07887,38.448411 124.52728,43 118.87351,43 H 91.659223 c 0.177872,-2.459989 31.594707,0.946279 37.419647,-10.205358 z" style="opacity:.1;fill:#000;fill-opacity:1;stroke:none;stroke-width:.5;stroke-miterlimit:4;stroke-dasharray:none;stroke-dashoffset:0;stroke-opacity:1;filter:url(#filter1477)"/></g><g id="g9519" transform="translate(115.52758,-18.456225)"><text xml:space="preserve" style="font-style:normal;font-weight:400;font-size:6.58542347px;line-height:1.25;font-family:sans-serif;letter-spacing:0;word-spacing:0;fill:#000;fill-opacity:1;stroke:none;stroke-width:.16463558" id="text9517" x="21.259" y="33.107"><tspan id="tspan9515" x="21.259" y="33.107" style="stroke-width:.16463558">intent graph</tspan></text></g><g id="g1205" transform="matrix(0.62879635,0,0,0.62879635,116.79658,-44.639433)"><ellipse style="fill:#e6e6e6;stroke:#000;stroke-width:.35277775" id="ellipse63-5" cx="51.576" cy="136.336" rx="9.525" ry="6.35"/><path style="fill:none;stroke:#000;stroke-width:.35277775" id="path70-3" d="m 61.706347,111.8556 c -1.773061,4.28487 -4.164259,10.06366 -6.178232,14.93068"/><polygon style="fill:#000;stroke:#000" id="polygon72-5" points="42.332 -523.481 35.274 -515.58 35.864 -526.158" transform="matrix(0.35277777,0,0,0.35277777,41.698591,312.01969)"/><ellipse style="fill:#e6e6e6;stroke:#000;stroke-width:.35277775" id="ellipse79-6" cx="76.976" cy="136.336" rx="9.525" ry="6.35"/><path style="fill:none;stroke:#000;stroke-width:.35277775" id="path86-2" d="m 66.84639,111.8556 c 1.77306,4.28487 4.164258,10.06366 6.178232,14.93068"/><ellipse style="fill:#afe9af;stroke:green;stroke-width:.79374999" id="ellipse8" cx="64.009" cy="106.885" rx="9.525" ry="6.35"/><polygon style="fill:#000;stroke:#000" id="polygon88-9" points="92.136 -526.158 92.726 -515.58 85.668 -523.481" transform="matrix(0.35277777,0,0,0.35277777,41.698591,312.01969)"/><path style="fill:none;stroke:#000;stroke-width:.35277775" id="path102-1" d="m 54.502484,142.43942 c 1.476198,3.07891 3.298684,6.88009 4.946156,10.31625"/><polygon style="fill:#000;stroke:#000" id="polygon104-2" points="53.598 -452.706 54.765 -442.176 47.286 -449.68" transform="matrix(0.35277777,0,0,0.35277777,41.698591,312.01969)"/><path style="fill:none;stroke:#000;stroke-width:.35277775" id="path109-7" d="m 73.883036,142.43942 c -1.576776,3.11097 -3.527354,6.95935 -5.283166,10.42353"/><polygon style="fill:#000;stroke:#000" id="polygon111-0" points="79.348 -449.513 71.706 -442.176 73.105 -452.678" transform="matrix(0.35277777,0,0,0.35277777,41.698591,312.01969)"/><ellipse style="fill:#faa;stroke:red;stroke-width:.79374999" id="ellipse199" cx="64.009" cy="162.744" rx="9.525" ry="6.35"/></g></g></svg>