<svg xmlns="http://www.w3.org/2000/svg" xmlns:svg="http://www.w3.org/2000/svg" id="svg8" width="753.039" height="231.936" version="1.1" viewBox="0 0 199.242 61.366"><defs id="defs2"><marker id="marker5749" orient="auto" refX="0" refY="0" style="overflow:visible"><path id="path5747" d="M 5.77,0 -2.88,5 V -5 Z" style="fill:#fff;fill-rule:evenodd;stroke:#000;stroke-width:1.00000003pt;stroke-opacity:1" transform="matrix(0.8,0,0,0.8,-4.8,0)"/></marker><marker style="overflow:visible" id="marker5655" orient="auto" refX="0" refY="0"><path transform="matrix(0.8,0,0,0.8,-4.8,0)" style="fill:#fff;fill-rule:evenodd;stroke:#000;stroke-width:1.00000003pt;stroke-opacity:1" id="path5653" d="M 5.77,0 -2.88,5 V -5 Z"/></marker><marker id="EmptyTriangleOutL" orient="auto" refX="0" refY="0" style="overflow:visible"><path id="path1109" d="M 5.77,0 -2.88,5 V -5 Z" style="fill:#fff;fill-rule:evenodd;stroke:#000;stroke-width:1.00000003pt;stroke-opacity:1" transform="matrix(0.8,0,0,0.8,-4.8,0)"/></marker><marker style="overflow:visible" id="marker5501" orient="auto" refX="0" refY="0"><path transform="scale(0.8)" style="fill:#000;fill-opacity:1;fill-rule:evenodd;stroke:#000;stroke-width:1.00000003pt;stroke-opacity:1" id="path5499" d="M 5.77,0 -2.88,5 V -5 Z"/></marker><marker id="TriangleOutL" orient="auto" refX="0" refY="0" style="overflow:visible"><path id="path1091" d="M 5.77,0 -2.88,5 V -5 Z" style="fill:#000;fill-opacity:1;fill-rule:evenodd;stroke:#000;stroke-width:1.00000003pt;stroke-opacity:1" transform="scale(0.8)"/></marker><marker id="Arrow2Mend" orient="auto" refX="0" refY="0" style="overflow:visible"><path id="path976" style="fill:#000;fill-opacity:1;fill-rule:evenodd;stroke:#000;stroke-width:.625;stroke-linejoin:round;stroke-opacity:1" d="M 8.7185878,4.0337352 -2.2072895,0.01601326 8.7185884,-4.0017078 c -1.7454984,2.3720609 -1.7354408,5.6174519 -6e-7,8.035443 z" transform="scale(-0.6)"/></marker><filter style="color-interpolation-filters:sRGB" id="filter1477" width="1.031" height="1.112" x="-.015" y="-.056"><feGaussianBlur id="feGaussianBlur1479" stdDeviation=".238"/></filter><marker id="TriangleOutL-3" orient="auto" refX="0" refY="0" style="overflow:visible"><path id="path1091-6" d="M 5.77,0 -2.88,5 V -5 Z" style="fill:#000;fill-opacity:1;fill-rule:evenodd;stroke:#000;stroke-width:1.00000003pt;stroke-opacity:1" transform="scale(0.8)"/></marker><marker id="TriangleOutL-2" orient="auto" refX="0" refY="0" style="overflow:visible"><path id="path1091-9" d="M 5.77,0 -2.88,5 V -5 Z" style="fill:#000;fill-opacity:1;fill-rule:evenodd;stroke:#000;stroke-width:1.00000003pt;stroke-opacity:1" transform="scale(0.8)"/></marker></defs><metadata id="metadata5"/><g id="layer1" transform="translate(36.170251,-1.4859007)"><rect style="opacity:1;fill:#4a0;fill-opacity:1;stroke:#250;stroke-width:.78322828;stroke-miterlimit:4;stroke-dasharray:none;stroke-dashoffset:0;stroke-opacity:1" id="rect1468" width="74.602" height="31.973" x="15.518" y="16.183" ry="15.986"/><path style="opacity:.1;fill:#000;fill-opacity:1;stroke:none;stroke-width:.5;stroke-miterlimit:4;stroke-dasharray:none;stroke-dashoffset:0;stroke-opacity:1;filter:url(#filter1477)" id="rect1474" d="M 129.07887,32.794642 C 129.07887,38.448411 124.52728,43 118.87351,43 H 91.659223 c 0.177872,-2.459989 31.594707,0.946279 37.419647,-10.205358 z" transform="matrix(1.5664566,0,0,1.5664566,-112.07634,-19.202244)"/><path id="rect4840" d="m 31.503855,16.182891 h 9.144171 V 48.15539 h -9.144171 c -8.856382,0 -15.986251,-7.129867 -15.986251,-15.986251 0,-8.856382 7.129869,-15.986248 15.986251,-15.986248 z" style="opacity:1;fill:#37abc8;fill-opacity:1;stroke:#214478;stroke-width:.78322828;stroke-miterlimit:4;stroke-dasharray:none;stroke-dashoffset:0;stroke-opacity:1"/><g id="g5583" transform="translate(4.6288652,1.8399054)"><path id="path922-7" d="M 77.064519,22.643542 H 100.61779" style="fill:none;stroke:#000;stroke-width:.5;stroke-linecap:butt;stroke-linejoin:miter;stroke-miterlimit:4;stroke-dasharray:.50000001,1.50000004;stroke-dashoffset:0;stroke-opacity:1;marker-end:url(#EmptyTriangleOutL)"/><path style="fill:none;stroke:#000;stroke-width:.5;stroke-linecap:butt;stroke-linejoin:miter;stroke-miterlimit:4;stroke-dasharray:.50000001,1.50000004;stroke-dashoffset:0;stroke-opacity:1;marker-end:url(#marker5655)" id="path5497" d="M 77.064519,38.518543 H 100.61779"/><path id="path5745" d="M 77.064519,30.581042 H 100.61779" style="fill:none;stroke:#000;stroke-width:.5;stroke-linecap:butt;stroke-linejoin:miter;stroke-miterlimit:4;stroke-dasharray:.50000001,1.50000004;stroke-dashoffset:0;stroke-opacity:1;marker-end:url(#marker5749)"/></g><path style="opacity:1;fill:#fc0;fill-opacity:1;stroke:#806600;stroke-width:.78322828;stroke-miterlimit:4;stroke-dasharray:none;stroke-dashoffset:0;stroke-opacity:1" id="path5705" d="m 74.133854,16.182891 h -8.08585 V 48.15539 h 8.08585 c 8.85637,0 15.986254,-7.129867 15.986254,-15.986251 0,-8.856382 -7.129884,-15.986248 -15.986254,-15.986248 z"/><rect id="rect4843" width="42.45" height="14.15" x="31.594" y="25.094" ry="6.53" style="opacity:1;fill:#fff;fill-opacity:1;stroke:#4d4d4d;stroke-width:.55728954;stroke-miterlimit:4;stroke-dasharray:none;stroke-dashoffset:0;stroke-opacity:1"/><text id="text1472" x="38.298" y="34.355" style="font-style:normal;font-weight:400;font-size:7.92290545px;line-height:1.25;font-family:sans-serif;letter-spacing:0;word-spacing:0;fill:#333;fill-opacity:1;stroke:none;stroke-width:.41445827" xml:space="preserve"><tspan style="fill:#333;stroke-width:.41445827" id="tspan1470" x="38.298" y="34.355">Speech</tspan></text><g id="g5853" transform="translate(0,-9.198092)"><g id="g5735" transform="matrix(1.1036042,0,0,1.1036042,19.988741,23.964782)"><rect id="rect5727" width="47.625" height="20.411" x="81.454" y="22.589" ry="10.205" style="opacity:1;fill:#fc0;fill-opacity:1;stroke:#806600;stroke-width:.67959148;stroke-miterlimit:4;stroke-dasharray:none;stroke-dashoffset:0;stroke-opacity:1"/><text xml:space="preserve" style="font-style:normal;font-weight:400;font-size:7.11387825px;line-height:1.25;font-family:sans-serif;letter-spacing:0;word-spacing:0;fill:#2b2200;fill-opacity:1;stroke:none;stroke-width:.37213695" id="text5731" x="87.544" y="35.607"><tspan id="tspan5729" x="87.544" y="35.607" style="fill:#2b2200;stroke-width:.37213695">Language</tspan></text><path id="path5733" d="M 129.07887,32.794642 C 129.07887,38.448411 124.52728,43 118.87351,43 H 91.659223 c 0.177872,-2.459989 31.594707,0.946279 37.419647,-10.205358 z" style="opacity:.1;fill:#000;fill-opacity:1;stroke:none;stroke-width:.5;stroke-miterlimit:4;stroke-dasharray:none;stroke-dashoffset:0;stroke-opacity:1;filter:url(#filter1477)"/></g><g id="g4853" transform="matrix(1.1036042,0,0,1.1036042,19.988741,5.9731138)"><rect style="opacity:1;fill:#4a0;fill-opacity:1;stroke:#250;stroke-width:.67959148;stroke-miterlimit:4;stroke-dasharray:none;stroke-dashoffset:0;stroke-opacity:1" id="rect4845" width="47.625" height="20.411" x="81.454" y="22.589" ry="10.205"/><text id="text4849" x="86.773" y="35.337" style="font-style:normal;font-weight:400;font-size:7.11387825px;line-height:1.25;font-family:sans-serif;letter-spacing:0;word-spacing:0;fill:#fff;fill-opacity:1;stroke:none;stroke-width:.37213695" xml:space="preserve"><tspan style="fill:#fff;stroke-width:.37213695" id="tspan4847" x="86.773" y="35.337">Dictionary</tspan></text><path style="opacity:.1;fill:#000;fill-opacity:1;stroke:none;stroke-width:.5;stroke-miterlimit:4;stroke-dasharray:none;stroke-dashoffset:0;stroke-opacity:1;filter:url(#filter1477)" id="path4851" d="M 129.07887,32.794642 C 129.07887,38.448411 124.52728,43 118.87351,43 H 91.659223 c 0.177872,-2.459989 31.594707,0.946279 37.419647,-10.205358 z"/></g><g id="g4838" transform="matrix(1.1036042,0,0,1.1036042,19.988741,-13.870637)"><rect id="rect4830" width="47.625" height="20.411" x="81.454" y="22.589" ry="10.205" style="opacity:1;fill:#37abc8;fill-opacity:1;stroke:#214478;stroke-width:.67959148;stroke-miterlimit:4;stroke-dasharray:none;stroke-dashoffset:0;stroke-opacity:1"/><text xml:space="preserve" style="font-style:normal;font-weight:400;font-size:7.11387825px;line-height:1.25;font-family:sans-serif;letter-spacing:0;word-spacing:0;fill:#fff;fill-opacity:1;stroke:none;stroke-width:.37213695" id="text4834" x="90.505" y="34.757"><tspan id="tspan4832" x="90.505" y="34.757" style="fill:#fff;stroke-width:.37213695">Acoustic</tspan></text><path id="path4836" d="M 129.07887,32.794642 C 129.07887,38.448411 124.52728,43 118.87351,43 H 91.659223 c 0.177872,-2.459989 31.594707,0.946279 37.419647,-10.205358 z" style="opacity:.1;fill:#000;fill-opacity:1;stroke:none;stroke-width:.5;stroke-miterlimit:4;stroke-dasharray:none;stroke-dashoffset:0;stroke-opacity:1;filter:url(#filter1477)"/></g><path id="rect5681" d="m 134.13148,26.650094 v 5.222148 h -3.19981 l 5.27875,5.447854 5.27875,-5.447854 h -3.19981 v -5.222148 z" style="opacity:1;fill:#fff;fill-opacity:1;stroke:#666;stroke-width:.25;stroke-miterlimit:4;stroke-dasharray:none;stroke-dashoffset:0;stroke-opacity:1"/><path style="opacity:1;fill:#fff;fill-opacity:1;stroke:#666;stroke-width:.25;stroke-miterlimit:4;stroke-dasharray:none;stroke-dashoffset:0;stroke-opacity:1" id="path5737" d="m 134.13148,46.624793 v 5.222148 h -3.19981 l 5.27875,5.447854 5.27875,-5.447854 h -3.19981 v -5.222148 z"/></g><g id="g943" transform="matrix(1.5223228,0,0,1.5223228,-142.91821,-24.380889)"><path id="path828" d="m 74.701833,34.274053 v 5.746295" style="fill:none;stroke:#000;stroke-width:.25;stroke-linecap:butt;stroke-linejoin:miter;stroke-opacity:1"/><path style="fill:none;stroke:#000;stroke-width:.25;stroke-linecap:butt;stroke-linejoin:miter;stroke-opacity:1" id="use862" d="m 73.114332,35.313488 v 3.667425"/><path style="fill:none;stroke:#000;stroke-width:.25;stroke-linecap:butt;stroke-linejoin:miter;stroke-opacity:1" id="use864" d="m 76.289333,33.04563 v 8.203141"/><path style="fill:none;stroke:#000;stroke-width:.25;stroke-linecap:butt;stroke-linejoin:miter;stroke-opacity:1" id="use866" d="M 77.876833,31.533726 V 42.760675"/><path style="fill:none;stroke:#000;stroke-width:.25;stroke-linecap:butt;stroke-linejoin:miter;stroke-opacity:1" id="use868" d="m 79.464333,33.140124 v 8.014153"/><path style="fill:none;stroke:#000;stroke-width:.25;stroke-linecap:butt;stroke-linejoin:miter;stroke-opacity:1" id="use870" d="m 81.051832,34.274053 v 5.746295"/><path style="fill:none;stroke:#000;stroke-width:.25;stroke-linecap:butt;stroke-linejoin:miter;stroke-opacity:1" id="use872" d="m 82.639332,35.171746 v 3.950909"/><path style="fill:none;stroke:#000;stroke-width:.25;stroke-linecap:butt;stroke-linejoin:miter;stroke-opacity:1" id="use874" d="m 84.226832,36.116687 v 2.061027"/><path style="fill:none;stroke:#000;stroke-width:.25;stroke-linecap:butt;stroke-linejoin:miter;stroke-opacity:1" id="use876" d="m 85.814332,35.030005 v 4.234391"/><path style="fill:none;stroke:#000;stroke-width:.25;stroke-linecap:butt;stroke-linejoin:miter;stroke-opacity:1" id="use878" d="m 87.401832,33.423607 v 7.447187"/><path style="fill:none;stroke:#000;stroke-width:.25;stroke-linecap:butt;stroke-linejoin:miter;stroke-opacity:1" id="use880" d="m 88.989332,34.274053 v 5.746295"/><path style="fill:none;stroke:#000;stroke-width:.25;stroke-linecap:butt;stroke-linejoin:miter;stroke-opacity:1" id="use882" d="M 90.576825,30.541538 V 43.752862"/><path style="fill:none;stroke:#000;stroke-width:.25;stroke-linecap:butt;stroke-linejoin:miter;stroke-opacity:1" id="use884" d="M 92.164332,31.769961 V 42.52444"/><path style="fill:none;stroke:#000;stroke-width:.25;stroke-linecap:butt;stroke-linejoin:miter;stroke-opacity:1" id="use886" d="m 93.751834,33.423607 v 7.447188"/><path style="fill:none;stroke:#000;stroke-width:.25;stroke-linecap:butt;stroke-linejoin:miter;stroke-opacity:1" id="use888" d="m 95.339331,35.030005 v 4.234391"/><path style="fill:none;stroke:#000;stroke-width:.25;stroke-linecap:butt;stroke-linejoin:miter;stroke-opacity:1" id="use890" d="m 96.926831,35.927699 v 2.439003"/><path id="path922" d="m 70.121763,37.141371 h 29.38946" style="fill:none;stroke:#000;stroke-width:.26472703;stroke-linecap:butt;stroke-linejoin:miter;stroke-miterlimit:4;stroke-dasharray:none;stroke-opacity:1;marker-end:url(#TriangleOutL-2)"/></g></g></svg>