<svg xmlns="http://www.w3.org/2000/svg" xmlns:svg="http://www.w3.org/2000/svg" id="svg8" width="1560.22" height="953.133" version="1.1" viewBox="0 0 412.808 252.183"><defs id="defs2"><marker id="marker3160" orient="auto" refX="0" refY="0" style="overflow:visible"><path id="path3158" d="M 5.77,0 -2.88,5 V -5 Z" style="fill:#06f;fill-opacity:1;fill-rule:evenodd;stroke:#06f;stroke-width:1.00000003pt;stroke-opacity:1" transform="scale(0.4)"/></marker><marker id="marker19178" orient="auto" refX="0" refY="0" style="overflow:visible"><path id="path19176" d="M 5.77,0 -2.88,5 V -5 Z" style="fill:#06f;fill-opacity:1;fill-rule:evenodd;stroke:#06f;stroke-width:1.00000003pt;stroke-opacity:1" transform="scale(0.4)"/></marker><marker style="overflow:visible" id="marker9212" orient="auto" refX="0" refY="0"><path transform="scale(0.4)" style="fill:#4a0;fill-opacity:1;fill-rule:evenodd;stroke:#4a0;stroke-width:1.00000003pt;stroke-opacity:1" id="path9210" d="M 5.77,0 -2.88,5 V -5 Z"/></marker><marker id="marker8290" orient="auto" refX="0" refY="0" style="overflow:visible"><path id="path8288" d="M 5.77,0 -2.88,5 V -5 Z" style="fill:#000;fill-opacity:1;fill-rule:evenodd;stroke:#000;stroke-width:1.00000003pt;stroke-opacity:1" transform="scale(0.4)"/></marker><marker style="overflow:visible" id="marker7246" orient="auto" refX="0" refY="0"><path transform="scale(0.4)" style="fill:#000;fill-opacity:1;fill-rule:evenodd;stroke:#000;stroke-width:1.00000003pt;stroke-opacity:1" id="path7244" d="M 5.77,0 -2.88,5 V -5 Z"/></marker><marker style="overflow:visible" id="marker4985" orient="auto" refX="0" refY="0"><path transform="scale(0.4)" style="fill:#000;fill-opacity:1;fill-rule:evenodd;stroke:#000;stroke-width:1.00000003pt;stroke-opacity:1" id="path4983" d="M 5.77,0 -2.88,5 V -5 Z"/></marker><marker style="overflow:visible" id="marker3947" orient="auto" refX="0" refY="0"><path transform="scale(0.4)" style="fill:#4a0;fill-opacity:1;fill-rule:evenodd;stroke:#4a0;stroke-width:1.00000003pt;stroke-opacity:1" id="path3945" d="M 5.77,0 -2.88,5 V -5 Z"/></marker><marker id="marker3307" orient="auto" refX="0" refY="0" style="overflow:visible"><path id="path3305" d="M 5.77,0 -2.88,5 V -5 Z" style="fill:#b380ff;fill-opacity:1;fill-rule:evenodd;stroke:#b380ff;stroke-width:1.00000003pt;stroke-opacity:1" transform="scale(0.4)"/></marker><marker id="marker2413" orient="auto" refX="0" refY="0" style="overflow:visible"><path id="path2411" d="M 5.77,0 -2.88,5 V -5 Z" style="fill:#fc0;fill-opacity:1;fill-rule:evenodd;stroke:#fc0;stroke-width:1.00000003pt;stroke-opacity:1" transform="scale(0.4)"/></marker><marker id="marker5201" orient="auto" refX="0" refY="0" style="overflow:visible"><path id="path5199" d="M 5.77,0 -2.88,5 V -5 Z" style="fill:#000;fill-opacity:1;fill-rule:evenodd;stroke:#000;stroke-width:1.00000003pt;stroke-opacity:1" transform="scale(0.4)"/></marker><marker style="overflow:visible" id="marker5045" orient="auto" refX="0" refY="0"><path transform="scale(0.4)" style="fill:#000;fill-opacity:1;fill-rule:evenodd;stroke:#000;stroke-width:1.00000003pt;stroke-opacity:1" id="path5043" d="M 5.77,0 -2.88,5 V -5 Z"/></marker><marker id="TriangleInM" orient="auto" refX="0" refY="0" style="overflow:visible"><path id="path1995" d="M 5.77,0 -2.88,5 V -5 Z" style="fill:#000;fill-opacity:1;fill-rule:evenodd;stroke:#000;stroke-width:1.00000003pt;stroke-opacity:1" transform="scale(-0.4)"/></marker><marker style="overflow:visible" id="marker5172" orient="auto" refX="0" refY="0"><path transform="scale(0.4)" style="fill:#b380ff;fill-opacity:1;fill-rule:evenodd;stroke:#b380ff;stroke-width:1.00000003pt;stroke-opacity:1" id="path5170" d="M 5.77,0 -2.88,5 V -5 Z"/></marker><path id="a" d="M 44.041,343.222 V 209.58 H 9.288 A 9.333,9.333 0 0 1 2.633,193.704 L 189.639,3.497 c 4.517,-4.594 11.903,-4.657 16.498,-0.14 l 0.12,0.12 97.601,98.794 V 83.974 a 7.778,7.778 0 0 1 7.778,-7.778 h 32.41 a 7.778,7.778 0 0 1 7.779,7.778 v 67.138 l 41.568,42.618 a 9.333,9.333 0 0 1 -6.682,15.85 H 351.825 V 343.222 A 7.778,7.778 0 0 1 344.047,351 H 51.819 a 7.778,7.778 0 0 1 -7.778,-7.778 z m 206.393,-163.26 a 15.029,15.029 0 0 0 1.46,-6.486 c 0,-8.308 -6.71,-15.043 -14.989,-15.043 -8.278,0 -14.989,6.735 -14.989,15.043 0,8.308 6.711,15.044 14.99,15.044 2.314,0 4.505,-0.527 6.462,-1.467 l 21.518,21.596 v 20.918 l -26.981,27.078 v -19.84 a 15.046,15.046 0 0 0 9.993,-14.187 c 0,-8.308 -6.711,-15.044 -14.99,-15.044 -8.278,0 -14.99,6.736 -14.99,15.044 0,6.55 4.172,12.122 9.994,14.187 v 29.868 l -24.983,25.073 V 144.464 l 20.519,-20.592 a 14.886,14.886 0 0 0 6.462,1.466 c 8.279,0 14.99,-6.735 14.99,-15.044 0,-8.308 -6.711,-15.043 -14.99,-15.043 -8.278,0 -14.989,6.735 -14.989,15.043 0,2.323 0.524,4.522 1.46,6.486 l -18.448,18.515 -18.449,-18.515 a 15.029,15.029 0 0 0 1.46,-6.486 c 0,-8.308 -6.71,-15.043 -14.989,-15.043 -8.278,0 -14.989,6.735 -14.989,15.043 0,8.309 6.711,15.044 14.99,15.044 2.314,0 4.505,-0.527 6.462,-1.466 l 20.518,20.592 v 105.16 L 156.962,213.52 v -28.865 a 15.046,15.046 0 0 0 9.993,-14.187 c 0,-8.309 -6.711,-15.044 -14.99,-15.044 -8.278,0 -14.99,6.735 -14.99,15.044 0,6.55 4.172,12.122 9.994,14.187 v 18.837 l -27.98,-28.081 v -27.863 a 15.046,15.046 0 0 0 9.993,-14.187 c 0,-8.308 -6.711,-15.044 -14.99,-15.044 -8.278,0 -14.99,6.736 -14.99,15.044 0,6.55 4.172,12.122 9.994,14.187 v 32.017 l 30.907,31.018 h -17.77 c -2.058,-5.843 -7.61,-10.029 -14.137,-10.029 -8.278,0 -14.99,6.735 -14.99,15.043 0,8.309 6.712,15.044 14.99,15.044 6.527,0 12.08,-4.186 14.137,-10.03 h 27.763 l 43.04,43.196 v 75.074 l -22.983,-23.066 v -28.866 a 15.046,15.046 0 0 0 9.993,-14.187 c 0,-8.308 -6.711,-15.043 -14.99,-15.043 -8.278,0 -14.99,6.735 -14.99,15.043 0,6.55 4.172,12.122 9.994,14.187 v 18.837 l -33.439,-33.558 a 15.029,15.029 0 0 0 1.461,-6.486 c 0,-8.308 -6.71,-15.043 -14.99,-15.043 -8.278,0 -14.989,6.735 -14.989,15.043 0,8.308 6.711,15.043 14.99,15.043 2.314,0 4.506,-0.526 6.462,-1.466 l 33.439,33.559 h -17.77 c -2.058,-5.843 -7.61,-10.03 -14.137,-10.03 -8.278,0 -14.99,6.736 -14.99,15.044 0,8.308 6.712,15.043 14.99,15.043 6.527,0 12.079,-4.186 14.137,-10.029 h 27.763 l 27.98,28.081 h 14.132 l 28.98,-29.083 h 26.763 c 2.058,5.842 7.61,10.028 14.137,10.028 8.278,0 14.99,-6.735 14.99,-15.043 0,-8.308 -6.712,-15.043 -14.99,-15.043 -6.527,0 -12.079,4.186 -14.137,10.029 H 229.84 l -26.91,27.006 V 305.93 l 32.049,-32.164 h 51.746 c 2.058,5.843 7.61,10.029 14.136,10.029 8.279,0 14.99,-6.735 14.99,-15.043 0,-8.309 -6.711,-15.044 -14.99,-15.044 -6.526,0 -12.078,4.186 -14.136,10.03 H 244.97 l 29.908,-30.016 V 208.65 l 21.517,-21.596 a 14.886,14.886 0 0 0 6.463,1.467 c 8.278,0 14.99,-6.736 14.99,-15.044 0,-8.308 -6.712,-15.043 -14.99,-15.043 -8.278,0 -14.99,6.735 -14.99,15.043 0,2.323 0.525,4.522 1.461,6.486 l -14.451,14.504 V 148.55 a 15.046,15.046 0 0 0 9.993,-14.187 c 0,-8.309 -6.711,-15.044 -14.99,-15.044 -8.278,0 -14.99,6.735 -14.99,15.044 0,6.55 4.172,12.122 9.994,14.187 v 45.915 L 250.433,179.961 Z M 120.987,323.909 c -3.311,0 -5.996,-2.694 -5.996,-6.017 0,-3.323 2.685,-6.017 5.996,-6.017 3.312,0 5.996,2.694 5.996,6.017 0,3.323 -2.684,6.017 -5.996,6.017 z m 43.97,-45.13 c -3.312,0 -5.997,-2.694 -5.997,-6.017 0,-3.323 2.685,-6.017 5.996,-6.017 3.312,0 5.996,2.694 5.996,6.017 0,3.323 -2.684,6.017 -5.996,6.017 z m -51.964,-7.02 c -3.312,0 -5.996,-2.694 -5.996,-6.017 0,-3.323 2.684,-6.017 5.996,-6.017 3.311,0 5.996,2.694 5.996,6.017 0,3.323 -2.685,6.017 -5.996,6.017 z m -4.997,-50.144 c -3.311,0 -5.995,-2.694 -5.995,-6.018 0,-3.323 2.684,-6.017 5.995,-6.017 3.312,0 5.996,2.694 5.996,6.017 0,3.324 -2.684,6.018 -5.996,6.018 z m 124.912,7.02 c -3.311,0 -5.995,-2.694 -5.995,-6.017 0,-3.324 2.684,-6.018 5.995,-6.018 3.312,0 5.996,2.694 5.996,6.018 0,3.323 -2.684,6.017 -5.996,6.017 z m 67.952,46.133 c -3.31,0 -5.995,-2.694 -5.995,-6.017 0,-3.324 2.684,-6.018 5.995,-6.018 3.312,0 5.996,2.694 5.996,6.018 0,3.323 -2.684,6.017 -5.996,6.017 z m -25.981,48.138 c -3.312,0 -5.996,-2.694 -5.996,-6.017 0,-3.323 2.684,-6.017 5.996,-6.017 3.311,0 5.996,2.694 5.996,6.017 0,3.323 -2.685,6.017 -5.996,6.017 z m 27.98,-143.412 c -3.311,0 -5.996,-2.695 -5.996,-6.018 0,-3.323 2.685,-6.017 5.996,-6.017 3.311,0 5.996,2.694 5.996,6.017 0,3.323 -2.685,6.018 -5.996,6.018 z m -32.977,-39.113 c -3.311,0 -5.996,-2.694 -5.996,-6.017 0,-3.324 2.685,-6.018 5.996,-6.018 3.312,0 5.996,2.694 5.996,6.018 0,3.323 -2.684,6.017 -5.996,6.017 z m -39.972,-24.07 c -3.311,0 -5.995,-2.693 -5.995,-6.017 0,-3.323 2.684,-6.017 5.995,-6.017 3.312,0 5.996,2.694 5.996,6.017 0,3.324 -2.684,6.018 -5.996,6.018 z m -63.955,0 c -3.31,0 -5.995,-2.693 -5.995,-6.017 0,-3.323 2.684,-6.017 5.995,-6.017 3.312,0 5.996,2.694 5.996,6.017 0,3.324 -2.684,6.018 -5.996,6.018 z m -51.963,23.067 c -3.311,0 -5.996,-2.694 -5.996,-6.017 0,-3.324 2.685,-6.018 5.996,-6.018 3.311,0 5.996,2.694 5.996,6.018 0,3.323 -2.685,6.017 -5.996,6.017 z m 37.973,37.107 c -3.311,0 -5.995,-2.694 -5.995,-6.017 0,-3.324 2.684,-6.018 5.995,-6.018 3.312,0 5.996,2.694 5.996,6.018 0,3.323 -2.684,6.017 -5.996,6.017 z m 84.94,3.009 c -3.31,0 -5.995,-2.695 -5.995,-6.018 0,-3.323 2.684,-6.017 5.995,-6.017 3.312,0 5.996,2.694 5.996,6.017 0,3.323 -2.684,6.018 -5.996,6.018 z"/><path id="a-6" d="M 44.041,343.222 V 209.58 H 9.288 A 9.333,9.333 0 0 1 2.633,193.704 L 189.639,3.497 c 4.517,-4.594 11.903,-4.657 16.498,-0.14 l 0.12,0.12 97.601,98.794 V 83.974 a 7.778,7.778 0 0 1 7.778,-7.778 h 32.41 a 7.778,7.778 0 0 1 7.779,7.778 v 67.138 l 41.568,42.618 a 9.333,9.333 0 0 1 -6.682,15.85 H 351.825 V 343.222 A 7.778,7.778 0 0 1 344.047,351 H 51.819 a 7.778,7.778 0 0 1 -7.778,-7.778 z m 206.393,-163.26 a 15.029,15.029 0 0 0 1.46,-6.486 c 0,-8.308 -6.71,-15.043 -14.989,-15.043 -8.278,0 -14.989,6.735 -14.989,15.043 0,8.308 6.711,15.044 14.99,15.044 2.314,0 4.505,-0.527 6.462,-1.467 l 21.518,21.596 v 20.918 l -26.981,27.078 v -19.84 a 15.046,15.046 0 0 0 9.993,-14.187 c 0,-8.308 -6.711,-15.044 -14.99,-15.044 -8.278,0 -14.99,6.736 -14.99,15.044 0,6.55 4.172,12.122 9.994,14.187 v 29.868 l -24.983,25.073 V 144.464 l 20.519,-20.592 a 14.886,14.886 0 0 0 6.462,1.466 c 8.279,0 14.99,-6.735 14.99,-15.044 0,-8.308 -6.711,-15.043 -14.99,-15.043 -8.278,0 -14.989,6.735 -14.989,15.043 0,2.323 0.524,4.522 1.46,6.486 l -18.448,18.515 -18.449,-18.515 a 15.029,15.029 0 0 0 1.46,-6.486 c 0,-8.308 -6.71,-15.043 -14.989,-15.043 -8.278,0 -14.989,6.735 -14.989,15.043 0,8.309 6.711,15.044 14.99,15.044 2.314,0 4.505,-0.527 6.462,-1.466 l 20.518,20.592 v 105.16 L 156.962,213.52 v -28.865 a 15.046,15.046 0 0 0 9.993,-14.187 c 0,-8.309 -6.711,-15.044 -14.99,-15.044 -8.278,0 -14.99,6.735 -14.99,15.044 0,6.55 4.172,12.122 9.994,14.187 v 18.837 l -27.98,-28.081 v -27.863 a 15.046,15.046 0 0 0 9.993,-14.187 c 0,-8.308 -6.711,-15.044 -14.99,-15.044 -8.278,0 -14.99,6.736 -14.99,15.044 0,6.55 4.172,12.122 9.994,14.187 v 32.017 l 30.907,31.018 h -17.77 c -2.058,-5.843 -7.61,-10.029 -14.137,-10.029 -8.278,0 -14.99,6.735 -14.99,15.043 0,8.309 6.712,15.044 14.99,15.044 6.527,0 12.08,-4.186 14.137,-10.03 h 27.763 l 43.04,43.196 v 75.074 l -22.983,-23.066 v -28.866 a 15.046,15.046 0 0 0 9.993,-14.187 c 0,-8.308 -6.711,-15.043 -14.99,-15.043 -8.278,0 -14.99,6.735 -14.99,15.043 0,6.55 4.172,12.122 9.994,14.187 v 18.837 l -33.439,-33.558 a 15.029,15.029 0 0 0 1.461,-6.486 c 0,-8.308 -6.71,-15.043 -14.99,-15.043 -8.278,0 -14.989,6.735 -14.989,15.043 0,8.308 6.711,15.043 14.99,15.043 2.314,0 4.506,-0.526 6.462,-1.466 l 33.439,33.559 h -17.77 c -2.058,-5.843 -7.61,-10.03 -14.137,-10.03 -8.278,0 -14.99,6.736 -14.99,15.044 0,8.308 6.712,15.043 14.99,15.043 6.527,0 12.079,-4.186 14.137,-10.029 h 27.763 l 27.98,28.081 h 14.132 l 28.98,-29.083 h 26.763 c 2.058,5.842 7.61,10.028 14.137,10.028 8.278,0 14.99,-6.735 14.99,-15.043 0,-8.308 -6.712,-15.043 -14.99,-15.043 -6.527,0 -12.079,4.186 -14.137,10.029 H 229.84 l -26.91,27.006 V 305.93 l 32.049,-32.164 h 51.746 c 2.058,5.843 7.61,10.029 14.136,10.029 8.279,0 14.99,-6.735 14.99,-15.043 0,-8.309 -6.711,-15.044 -14.99,-15.044 -6.526,0 -12.078,4.186 -14.136,10.03 H 244.97 l 29.908,-30.016 V 208.65 l 21.517,-21.596 a 14.886,14.886 0 0 0 6.463,1.467 c 8.278,0 14.99,-6.736 14.99,-15.044 0,-8.308 -6.712,-15.043 -14.99,-15.043 -8.278,0 -14.99,6.735 -14.99,15.043 0,2.323 0.525,4.522 1.461,6.486 l -14.451,14.504 V 148.55 a 15.046,15.046 0 0 0 9.993,-14.187 c 0,-8.309 -6.711,-15.044 -14.99,-15.044 -8.278,0 -14.99,6.735 -14.99,15.044 0,6.55 4.172,12.122 9.994,14.187 v 45.915 L 250.433,179.961 Z M 120.987,323.909 c -3.311,0 -5.996,-2.694 -5.996,-6.017 0,-3.323 2.685,-6.017 5.996,-6.017 3.312,0 5.996,2.694 5.996,6.017 0,3.323 -2.684,6.017 -5.996,6.017 z m 43.97,-45.13 c -3.312,0 -5.997,-2.694 -5.997,-6.017 0,-3.323 2.685,-6.017 5.996,-6.017 3.312,0 5.996,2.694 5.996,6.017 0,3.323 -2.684,6.017 -5.996,6.017 z m -51.964,-7.02 c -3.312,0 -5.996,-2.694 -5.996,-6.017 0,-3.323 2.684,-6.017 5.996,-6.017 3.311,0 5.996,2.694 5.996,6.017 0,3.323 -2.685,6.017 -5.996,6.017 z m -4.997,-50.144 c -3.311,0 -5.995,-2.694 -5.995,-6.018 0,-3.323 2.684,-6.017 5.995,-6.017 3.312,0 5.996,2.694 5.996,6.017 0,3.324 -2.684,6.018 -5.996,6.018 z m 124.912,7.02 c -3.311,0 -5.995,-2.694 -5.995,-6.017 0,-3.324 2.684,-6.018 5.995,-6.018 3.312,0 5.996,2.694 5.996,6.018 0,3.323 -2.684,6.017 -5.996,6.017 z m 67.952,46.133 c -3.31,0 -5.995,-2.694 -5.995,-6.017 0,-3.324 2.684,-6.018 5.995,-6.018 3.312,0 5.996,2.694 5.996,6.018 0,3.323 -2.684,6.017 -5.996,6.017 z m -25.981,48.138 c -3.312,0 -5.996,-2.694 -5.996,-6.017 0,-3.323 2.684,-6.017 5.996,-6.017 3.311,0 5.996,2.694 5.996,6.017 0,3.323 -2.685,6.017 -5.996,6.017 z m 27.98,-143.412 c -3.311,0 -5.996,-2.695 -5.996,-6.018 0,-3.323 2.685,-6.017 5.996,-6.017 3.311,0 5.996,2.694 5.996,6.017 0,3.323 -2.685,6.018 -5.996,6.018 z m -32.977,-39.113 c -3.311,0 -5.996,-2.694 -5.996,-6.017 0,-3.324 2.685,-6.018 5.996,-6.018 3.312,0 5.996,2.694 5.996,6.018 0,3.323 -2.684,6.017 -5.996,6.017 z m -39.972,-24.07 c -3.311,0 -5.995,-2.693 -5.995,-6.017 0,-3.323 2.684,-6.017 5.995,-6.017 3.312,0 5.996,2.694 5.996,6.017 0,3.324 -2.684,6.018 -5.996,6.018 z m -63.955,0 c -3.31,0 -5.995,-2.693 -5.995,-6.017 0,-3.323 2.684,-6.017 5.995,-6.017 3.312,0 5.996,2.694 5.996,6.017 0,3.324 -2.684,6.018 -5.996,6.018 z m -51.963,23.067 c -3.311,0 -5.996,-2.694 -5.996,-6.017 0,-3.324 2.685,-6.018 5.996,-6.018 3.311,0 5.996,2.694 5.996,6.018 0,3.323 -2.685,6.017 -5.996,6.017 z m 37.973,37.107 c -3.311,0 -5.995,-2.694 -5.995,-6.017 0,-3.324 2.684,-6.018 5.995,-6.018 3.312,0 5.996,2.694 5.996,6.018 0,3.323 -2.684,6.017 -5.996,6.017 z m 84.94,3.009 c -3.31,0 -5.995,-2.695 -5.995,-6.018 0,-3.323 2.684,-6.017 5.995,-6.017 3.312,0 5.996,2.694 5.996,6.017 0,3.323 -2.684,6.018 -5.996,6.018 z"/><marker style="overflow:visible" id="marker5172-3" orient="auto" refX="0" refY="0"><path transform="scale(0.4)" style="fill:#fc0;fill-opacity:1;fill-rule:evenodd;stroke:#fc0;stroke-width:1.00000003pt;stroke-opacity:1" id="path5170-6" d="M 5.77,0 -2.88,5 V -5 Z"/></marker></defs><metadata id="metadata5"/><g id="layer1" transform="translate(99.250414,-1.574356)"><path id="path10709-7" d="M 112.0128,49.620995 V 114.13875" style="fill:none;fill-rule:evenodd;stroke:#b380ff;stroke-width:1.69333339;stroke-linecap:butt;stroke-linejoin:miter;stroke-opacity:1;marker-end:url(#marker5172)"/><g id="g4369" transform="translate(90.434679,-128.42194)"><g id="layer1-6" transform="matrix(0.15655017,0,0,0.15655017,-42.795259,66.298261)"><g id="g4492" transform="matrix(0.69284915,0,0,0.69284915,398.95479,526.57573)"><rect id="rect4453" width="59" height="125" x="-15.62" y="-34.953" ry="23.5" style="opacity:1;fill:#000;fill-opacity:1;stroke:#b380ff;stroke-width:9.21950817;stroke-miterlimit:4;stroke-dasharray:none;stroke-dashoffset:0;stroke-opacity:1"/><path id="rect4461" d="m 54.622034,51.5935 v 22.17774 c 0,16.64757 -18.17065,30.04882 -40.74219,30.04882 -22.5715394,0 -40.74219,-13.40125 -40.74219,-30.04882 V 51.5935 c 0,-7.22795 -22.85156,-6.62462 -22.85156,0 v 24.04883 c 0,22.4328 21.14593,41.07852 49.59375066,45.75976 v 17.14454 H -16.120156 v 21.30468 h 16.00000066 27.99999934 16 v -21.30468 h -16 v -17.14454 c 28.44782,-4.68124 49.59375,-23.32696 49.59375,-45.75976 V 51.5935 c -2.662604,-10.181085 -22.513759,-6.824935 -22.85156,0 z" style="opacity:1;fill:#000;fill-opacity:1;stroke:none;stroke-width:3;stroke-miterlimit:4;stroke-dasharray:none;stroke-dashoffset:0;stroke-opacity:1"/><path id="path4483" d="m -14.86896,-54.934299 c 5.1056571,-10.753621 16.0648311,-18.18889 28.760604,-18.18889 12.67615,0 23.621068,7.412302 28.736893,18.13905" style="opacity:1;fill:none;fill-opacity:1;stroke:#000;stroke-width:10;stroke-linecap:round;stroke-linejoin:round;stroke-miterlimit:4;stroke-dasharray:none;stroke-dashoffset:0;stroke-opacity:1"/><path style="opacity:1;fill:none;fill-opacity:1;stroke:#000;stroke-width:10;stroke-linecap:round;stroke-linejoin:round;stroke-miterlimit:4;stroke-dasharray:none;stroke-dashoffset:0;stroke-opacity:1" id="path4488" d="m -30.629854,-70.450545 c 7.904725,-16.074212 24.872035,-27.188245 44.527997,-27.188245 19.62558,0 36.570819,11.079703 44.491286,27.113746"/><path id="path4490" d="m -49.588647,-82.464706 c 11.271727,-23.168784 35.46623,-39.188154 63.49461,-39.188154 27.985056,0 52.148086,15.96989 63.44226,39.080774" style="opacity:1;fill:none;fill-opacity:1;stroke:#000;stroke-width:10;stroke-linecap:round;stroke-linejoin:round;stroke-miterlimit:4;stroke-dasharray:none;stroke-dashoffset:0;stroke-opacity:1"/></g></g><text xml:space="preserve" style="font-style:normal;font-weight:400;font-size:6.67770624px;line-height:1.25;font-family:sans-serif;letter-spacing:0;word-spacing:0;fill:#000;fill-opacity:1;stroke:none;stroke-width:.16694266" id="text1303" x="20.12" y="174.403"><tspan id="tspan1305" x="20.12" y="174.403" style="font-weight:400;text-align:center;text-anchor:middle;stroke-width:.16694266">Microphone</tspan></text></g><g id="g2243" transform="translate(-155.20697,89.480779)"><g id="layer1-5" transform="translate(110.01535,-6.428189)"><circle style="opacity:1;fill:#fff;fill-opacity:1;stroke:#000;stroke-width:.5;stroke-linecap:round;stroke-miterlimit:4;stroke-dasharray:none;stroke-opacity:1" id="path1476" cx="-29.128" cy="118.598" r="18.174"/><g id="g2275" transform="matrix(0.80207931,0,0,0.80207931,-74.139422,96.215375)"><g id="text817" style="font-style:normal;font-weight:400;font-size:41.37965775px;line-height:1.25;font-family:sans-serif;letter-spacing:0;word-spacing:0;fill:#000;fill-opacity:1;stroke:none;stroke-width:1.03449142" aria-label="R" transform="rotate(-45)"><path id="path819" style="font-style:normal;font-variant:normal;font-weight:400;font-stretch:normal;font-size:41.38083267px;font-family:'CC Adamantium';-inkscape-font-specification:'CC Adamantium, Normal';font-variant-ligatures:normal;font-variant-caps:normal;font-variant-numeric:normal;font-feature-settings:normal;text-align:start;writing-mode:lr-tb;text-anchor:start;stroke-width:1.03449142" d="M 31.509252,62.491941 31.16794,75.667305 H 30.83455 L 28.604505,65.027061 15.316738,59.73528 13.781121,75.667305 H 13.286086 L 11.528138,71.268365 10.110857,66.929543 9.526899,61.048002 6.9616279,56.651114 8.7144255,54.299084 6.356732,51.899807 8.2521138,50.246675 6.1006224,45.789404 9.891565,42.358563 c 2.435726,-1.492588 4.806268,-0.545105 7.30443,-1.317335 4.174203,-1.290327 7.29492,-1.792422 11.275957,5.059621 0.756691,1.302392 3.239334,1.578749 4.130578,3.198298 -0.882306,1.555823 -2.064327,2.923061 -3.546063,4.101714 -1.481735,1.171918 -3.152055,2.175457 -5.01096,3.010617 -1.852169,0.828425 -3.852512,1.535617 -6.001029,2.121576 z M 25.51612,48.388298 c -6.142518,4.42909 -6.341445,-0.106922 -8.663766,-3.716207 l -1.283048,13.860963 c 5.545523,-1.913183 8.340713,-6.051669 9.946814,-10.144756 z"/></g><ellipse id="path2115" cx="52.06" cy="21.86" rx=".334" ry=".935" style="opacity:1;fill:#000;fill-opacity:1;stroke:none;stroke-width:1;stroke-opacity:1"/><ellipse transform="rotate(-45)" style="opacity:1;fill:#000;fill-opacity:1;stroke:none;stroke-width:1;stroke-opacity:1" id="ellipse2117" cx="18.873" cy="50.914" rx=".334" ry=".935"/><path id="path2119" d="m 64.331743,23.950737 -0.788701,-2.167883 0.785662,-0.376444 0.715334,2.441702 z" style="fill:#000;stroke:none;stroke-width:.26458332px;stroke-linecap:butt;stroke-linejoin:miter;stroke-opacity:1"/><path style="fill:#000;stroke:none;stroke-width:.26458332px;stroke-linecap:butt;stroke-linejoin:miter;stroke-opacity:1" id="path2121" d="m 69.630908,29.701094 1.48309,-1.766977 0.718843,0.492181 -1.75691,1.840348 z"/><path id="path2123" d="m 47.978861,19.145376 c -0.0362,0.284741 -0.632118,0.443544 -1.331028,0.354698 -0.698909,-0.08885 -1.236142,-0.391701 -1.199944,-0.676442 z" style="opacity:1;fill:#fff;fill-opacity:1;stroke:none;stroke-width:1;stroke-opacity:1"/><path style="opacity:1;fill:#fff;fill-opacity:1;stroke:none;stroke-width:1;stroke-opacity:1" id="path2126" d="m 49.344113,18.846496 c 0.224679,0.178626 0.762248,-0.123625 1.200693,-0.675116 0.438451,-0.55148 0.611752,-1.143345 0.387075,-1.321972 z"/><path id="path2128" d="m 43.707615,19.788656 8.68626,10.557147 c 2.944473,-4.699489 1.792375,-9.398979 -0.200452,-14.098468" style="opacity:1;fill:none;stroke:gray;stroke-width:.5;stroke-linecap:round;stroke-linejoin:miter;stroke-miterlimit:4;stroke-dasharray:none;stroke-opacity:1"/></g></g><text id="text863" x="60.163" y="89.668" style="font-style:normal;font-weight:400;font-size:8.64957619px;line-height:1.25;font-family:sans-serif;letter-spacing:0;word-spacing:0;fill:#000;fill-opacity:1;stroke:none;stroke-width:.21623941" xml:space="preserve"><tspan style="font-weight:700;stroke-width:.21623941" id="tspan861" x="60.163" y="89.668">Dialogue</tspan></text></g><g id="g4240" transform="matrix(0.28222223,0,0,0.28222223,5.4093119,-5.3059011)"><g id="g4227" transform="translate(-14.142136,-32.324881)"><circle style="opacity:1;fill:#fff;fill-opacity:1;stroke:#000;stroke-width:2;stroke-linecap:round;stroke-linejoin:round;stroke-miterlimit:4;stroke-dasharray:none;stroke-dashoffset:0;stroke-opacity:1" id="path4221" cx="45.457" cy="113.93" r="21.213"/><text xml:space="preserve" style="font-style:normal;font-weight:400;line-height:0%;font-family:sans-serif;letter-spacing:0;word-spacing:0;fill:#000;fill-opacity:1;stroke:none;stroke-width:1px;stroke-linecap:butt;stroke-linejoin:miter;stroke-opacity:1" id="text4223" x="35.285" y="123.954"><tspan id="tspan4225" x="35.285" y="123.954" style="font-weight:700;font-size:27.5px;line-height:1.25">1</tspan></text></g><flowRoot transform="translate(-1.0101525,-26.263966)" style="font-style:normal;font-weight:400;line-height:.01%;font-family:sans-serif;letter-spacing:0;word-spacing:0;fill:#000;fill-opacity:1;stroke:none;stroke-width:1px;stroke-linecap:butt;stroke-linejoin:miter;stroke-opacity:1" id="flowRoot4232" xml:space="preserve"><flowRegion id="flowRegion4234"><rect style="font-size:22.5px" id="rect4236" width="213.167" height="60.791" x="73.741" y="79.585"/></flowRegion><flowPara id="flowPara8264" style="font-size:22.5px;line-height:1.25">Audio streams in from microphone</flowPara></flowRoot></g><g id="g1769"><rect id="rect1764" width="122.086" height="15.119" x="52.161" y="66.057" style="opacity:1;fill:#fff;fill-opacity:1;stroke:#b380ff;stroke-width:1.5;stroke-miterlimit:4;stroke-dasharray:none;stroke-dashoffset:0;stroke-opacity:.61960787"/><text xml:space="preserve" style="font-style:normal;font-weight:400;font-size:6.67770624px;line-height:1.25;font-family:sans-serif;letter-spacing:0;word-spacing:0;fill:#000;fill-opacity:1;stroke:none;stroke-width:.1669427" id="text2223-2-3-3" x="113.082" y="75.843"><tspan x="113.082" y="75.843" style="font-style:normal;font-variant:normal;font-weight:400;font-stretch:normal;font-family:monospace;-inkscape-font-specification:monospace;text-align:center;text-anchor:middle;stroke-width:.1669427" id="tspan2227-2-7-6">hermes/audioServer/audioFrame</tspan></text></g><g id="g2393" transform="matrix(0.28222223,0,0,0.28222223,-43.986995,48.533058)"><g id="g2383" transform="translate(-14.142136,-32.324881)"><circle id="circle2377" cx="45.457" cy="113.93" r="21.213" style="opacity:1;fill:#fff;fill-opacity:1;stroke:#000;stroke-width:2;stroke-linecap:round;stroke-linejoin:round;stroke-miterlimit:4;stroke-dasharray:none;stroke-dashoffset:0;stroke-opacity:1"/><text id="text2381" x="35.997" y="123.954" style="font-style:normal;font-weight:400;line-height:0%;font-family:sans-serif;letter-spacing:0;word-spacing:0;fill:#000;fill-opacity:1;stroke:none;stroke-width:1px;stroke-linecap:butt;stroke-linejoin:miter;stroke-opacity:1" xml:space="preserve"><tspan style="font-weight:700;font-size:27.5px;line-height:1.25" id="tspan2379" x="35.997" y="123.954">2</tspan></text></g><flowRoot id="flowRoot2391" transform="translate(-1.0101525,-26.263966)" xml:space="preserve" style="font-style:normal;font-weight:400;line-height:.01%;font-family:sans-serif;letter-spacing:0;word-spacing:0;fill:#000;fill-opacity:1;stroke:none;stroke-width:1px;stroke-linecap:butt;stroke-linejoin:miter;stroke-opacity:1"><flowRegion id="flowRegion2387"><rect id="rect2385" width="213.167" height="60.791" x="73.741" y="79.585" style="font-size:22.5px"/></flowRegion><flowPara style="font-size:22.5px;line-height:1.25" id="flowPara2389">Wake word detected</flowPara></flowRoot></g><path style="fill:none;fill-rule:evenodd;stroke:#fc0;stroke-width:1.69333339;stroke-linecap:butt;stroke-linejoin:miter;stroke-opacity:1;marker-end:url(#marker2413)" id="path2401" d="M -8.7930268,83.515879 V 142.29138 H 72.660843"/><path style="fill:none;fill-rule:evenodd;stroke:#4a0;stroke-width:1.69333339;stroke-linecap:butt;stroke-linejoin:miter;stroke-opacity:1;marker-end:url(#marker9212)" id="path3303" d="m 164.49799,138.68367 h 81.07593 v -21.61036"/><path id="path3943" d="m 152.46603,148.24943 0.24212,84.56816 h 14.94389" style="fill:none;fill-rule:evenodd;stroke:#b380ff;stroke-width:1.69333339;stroke-linecap:butt;stroke-linejoin:miter;stroke-opacity:1;marker-end:url(#marker3307)"/><path id="path10709-7-7" d="m 94.744283,139.98148 v 37.53025" style="fill:none;fill-rule:evenodd;stroke:#fc0;stroke-width:1.69333339;stroke-linecap:butt;stroke-linejoin:miter;stroke-opacity:1;marker-end:url(#marker5172-3)"/><path style="fill:none;fill-rule:evenodd;stroke:#06f;stroke-width:1.69333339;stroke-linecap:butt;stroke-linejoin:miter;stroke-opacity:1;marker-end:url(#marker3160)" id="path3156" d="m 121.20263,139.98148 v 85.15525"/><g id="g998" transform="translate(85.422624,-18.142856)"><rect id="rect1817-6" width="84.464" height="34.219" x="-4.873" y="138.905" ry="6.334" style="opacity:1;fill:#ececec;fill-opacity:1;stroke:#000;stroke-width:.56444454;stroke-linecap:round;stroke-linejoin:round;stroke-miterlimit:4;stroke-dasharray:1.128889,2.25777795;stroke-dashoffset:0;stroke-opacity:1"/><text xml:space="preserve" style="font-style:normal;font-weight:400;font-size:3.78367853px;line-height:0%;font-family:sans-serif;letter-spacing:0;word-spacing:0;fill:#666;fill-opacity:1;stroke:none;stroke-width:.31530654px;stroke-linecap:butt;stroke-linejoin:miter;stroke-opacity:1" id="text4213-6-2" x=".794" y="159.039"><tspan x=".794" y="159.039" style="font-weight:700;font-size:9.8533287px;line-height:1.25;fill:#666;fill-opacity:1;stroke-width:.31530654px" id="tspan4637">MQTT Broker</tspan></text></g><g id="g2409" transform="translate(-120.80583,29.132379)"><rect style="opacity:1;fill:#fff;fill-opacity:1;stroke:#fc0;stroke-width:1.5;stroke-miterlimit:4;stroke-dasharray:none;stroke-dashoffset:0;stroke-opacity:1" id="rect2403" width="150.951" height="15.119" x="37.728" y="66.057"/><text id="text2407" x="113.082" y="75.843" style="font-style:normal;font-weight:400;font-size:6.67770624px;line-height:1.25;font-family:sans-serif;letter-spacing:0;word-spacing:0;fill:#000;fill-opacity:1;stroke:none;stroke-width:.1669427" xml:space="preserve"><tspan id="tspan2405" style="font-style:normal;font-variant:normal;font-weight:400;font-stretch:normal;font-family:monospace;-inkscape-font-specification:monospace;text-align:center;text-anchor:middle;stroke-width:.1669427" x="113.082" y="75.843">hermes/hotword/&lt;wakewordId&gt;/detected</tspan></text></g><g id="g3913" transform="matrix(0.28222223,0,0,0.28222223,173.24152,210.28539)"><g id="g3903" transform="translate(-14.142136,-32.324881)"><circle style="opacity:1;fill:#fff;fill-opacity:1;stroke:#000;stroke-width:2;stroke-linecap:round;stroke-linejoin:round;stroke-miterlimit:4;stroke-dasharray:none;stroke-dashoffset:0;stroke-opacity:1" id="circle3897" cx="45.457" cy="113.93" r="21.213"/><text xml:space="preserve" style="font-style:normal;font-weight:400;line-height:0%;font-family:sans-serif;letter-spacing:0;word-spacing:0;fill:#000;fill-opacity:1;stroke:none;stroke-width:1px;stroke-linecap:butt;stroke-linejoin:miter;stroke-opacity:1" id="text3901" x="35.903" y="123.954"><tspan id="tspan3899" x="35.903" y="123.954" style="font-weight:700;font-size:27.5px;line-height:1.25">4</tspan></text></g><flowRoot transform="translate(-1.0101525,-26.263966)" style="font-style:normal;font-weight:400;line-height:.01%;font-family:sans-serif;letter-spacing:0;word-spacing:0;fill:#000;fill-opacity:1;stroke:none;stroke-width:1px;stroke-linecap:butt;stroke-linejoin:miter;stroke-opacity:1" id="flowRoot3911" xml:space="preserve"><flowRegion id="flowRegion3907"><rect style="font-size:22.5px" id="rect3905" width="213.167" height="60.791" x="73.741" y="79.585"/></flowRegion><flowPara id="flowPara3909" style="font-size:22.5px;line-height:1.25">ASR listens and transcribes</flowPara></flowRoot></g><path id="path3941" d="m 213.80935,224.38894 v -77.1197 H 173.3658" style="fill:none;fill-rule:evenodd;stroke:#4a0;stroke-width:1.69333339;stroke-linecap:butt;stroke-linejoin:miter;stroke-opacity:1;marker-end:url(#marker3947)"/><g id="g3921" transform="translate(99.091343,114.44564)"><rect id="rect3915" width="104.439" height="15.196" x="60.985" y="66.018" style="opacity:1;fill:#fff;fill-opacity:1;stroke:#4a0;stroke-width:1.5;stroke-miterlimit:4;stroke-dasharray:none;stroke-dashoffset:0;stroke-opacity:1"/><text xml:space="preserve" style="font-style:normal;font-weight:400;font-size:6.67770624px;line-height:1.25;font-family:sans-serif;letter-spacing:0;word-spacing:0;fill:#000;fill-opacity:1;stroke:none;stroke-width:.1669427" id="text3919" x="113.082" y="75.843"><tspan x="113.082" y="75.843" style="font-style:normal;font-variant:normal;font-weight:400;font-stretch:normal;font-family:monospace;-inkscape-font-specification:monospace;text-align:center;text-anchor:middle;stroke-width:.1669427" id="tspan3917">hermes/asr/textCaptured</tspan></text></g><g id="g20220"><g id="g20210"><path id="path2656-9-4" d="m 213.92369,80.352474 -5.42984,-1.841309 -4.59508,3.4291 0.0733,-5.733074 -4.68122,-3.310532 5.47512,-1.701924 1.70192,-5.475122 3.31053,4.681226 5.73308,-0.07328 -3.4291,4.595081 z" style="opacity:1;fill:#ff0;fill-opacity:1;stroke:olive;stroke-width:.56444442;stroke-linecap:round;stroke-linejoin:round;stroke-miterlimit:4;stroke-dasharray:none;stroke-dashoffset:0;stroke-opacity:1"/><text id="text5921" x="205.158" y="77.234" style="font-style:normal;font-weight:400;font-size:3.38666677px;line-height:0%;font-family:sans-serif;letter-spacing:0;word-spacing:0;fill:#000;fill-opacity:1;stroke:none;stroke-width:.28222224px;stroke-linecap:butt;stroke-linejoin:miter;stroke-opacity:1" xml:space="preserve"><tspan style="font-weight:700;font-size:7.76111126px;line-height:1.25;stroke-width:.28222224px" id="tspan5919" x="205.158" y="77.234">5</tspan></text></g><flowRoot id="flowRoot5931" transform="matrix(0.28222223,0,0,0.28222223,198.76342,44.016413)" xml:space="preserve" style="font-style:normal;font-weight:400;line-height:.01%;font-family:sans-serif;letter-spacing:0;word-spacing:0;fill:#000;fill-opacity:1;stroke:none;stroke-width:1px;stroke-linecap:butt;stroke-linejoin:miter;stroke-opacity:1"><flowRegion id="flowRegion5927"><rect id="rect5925" width="213.167" height="60.791" x="73.741" y="79.585" style="font-size:22.5px"/></flowRegion><flowPara style="font-size:22.5px;line-height:1.25" id="flowPara5929">NLU recognizes intent</flowPara></flowRoot></g><g id="g6718" transform="matrix(0.28222223,0,0,0.28222223,-47.177474,143.53937)"><g id="g6708" transform="translate(-14.142136,-32.324881)"><circle id="circle6702" cx="45.457" cy="113.93" r="21.213" style="opacity:1;fill:#fff;fill-opacity:1;stroke:#000;stroke-width:2;stroke-linecap:round;stroke-linejoin:round;stroke-miterlimit:4;stroke-dasharray:none;stroke-dashoffset:0;stroke-opacity:1"/><text id="text6706" x="36.064" y="123.941" style="font-style:normal;font-weight:400;line-height:0%;font-family:sans-serif;letter-spacing:0;word-spacing:0;fill:#000;fill-opacity:1;stroke:none;stroke-width:1px;stroke-linecap:butt;stroke-linejoin:miter;stroke-opacity:1" xml:space="preserve"><tspan style="font-weight:700;font-size:27.5px;line-height:1.25" id="tspan6704" x="36.064" y="123.941">3</tspan></text></g><flowRoot id="flowRoot6716" transform="translate(-1.0101525,-26.263966)" xml:space="preserve" style="font-style:normal;font-weight:400;line-height:.01%;font-family:sans-serif;letter-spacing:0;word-spacing:0;fill:#000;fill-opacity:1;stroke:none;stroke-width:1px;stroke-linecap:butt;stroke-linejoin:miter;stroke-opacity:1"><flowRegion id="flowRegion6712"><rect id="rect6710" width="213.167" height="60.791" x="73.741" y="79.585" style="font-size:22.5px"/></flowRegion><flowPara style="font-size:22.5px;line-height:1.25" id="flowPara6714">New session started</flowPara></flowRoot></g><path id="path7242" d="m -14.125671,176.21833 v 16.064 H 107.3545 v -29.48215" style="fill:none;fill-rule:evenodd;stroke:#000;stroke-width:1.69333339;stroke-linecap:butt;stroke-linejoin:miter;stroke-opacity:1;marker-end:url(#marker7246)"/><g id="g7800" transform="translate(-61.652557,118.90173)"><rect id="rect7794" width="154.731" height="15.119" x="35.838" y="66.057" style="opacity:1;fill:#fff;fill-opacity:1;stroke:#000;stroke-width:.5;stroke-miterlimit:4;stroke-dasharray:none;stroke-dashoffset:0;stroke-opacity:1"/><text xml:space="preserve" style="font-style:normal;font-weight:400;font-size:6.67770624px;line-height:1.25;font-family:sans-serif;letter-spacing:0;word-spacing:0;fill:#000;fill-opacity:1;stroke:none;stroke-width:.1669427" id="text7798" x="113.082" y="75.843"><tspan x="113.082" y="75.843" style="font-style:normal;font-variant:normal;font-weight:400;font-stretch:normal;font-family:monospace;-inkscape-font-specification:monospace;text-align:center;text-anchor:middle;stroke-width:.1669427" id="tspan7796">hermes/dialogueManager/sessionStarted</tspan></text></g><g id="g8100" transform="matrix(0.28222223,0,0,0.28222223,-45.665568,194.26378)"><g id="g8090" transform="translate(-14.142136,-32.324881)"><circle style="opacity:1;fill:#fff;fill-opacity:1;stroke:#000;stroke-width:2;stroke-linecap:round;stroke-linejoin:round;stroke-miterlimit:4;stroke-dasharray:none;stroke-dashoffset:0;stroke-opacity:1" id="circle8084" cx="45.457" cy="113.93" r="21.213"/><text xml:space="preserve" style="font-style:normal;font-weight:400;line-height:0%;font-family:sans-serif;letter-spacing:0;word-spacing:0;fill:#000;fill-opacity:1;stroke:none;stroke-width:1px;stroke-linecap:butt;stroke-linejoin:miter;stroke-opacity:1" id="text8088" x="35.775" y="123.927"><tspan id="tspan8086" x="35.775" y="123.927" style="font-weight:700;font-size:27.5px;line-height:1.25">6</tspan></text></g><flowRoot transform="translate(-1.0101525,-26.263966)" style="font-style:normal;font-weight:400;line-height:.01%;font-family:sans-serif;letter-spacing:0;word-spacing:0;fill:#000;fill-opacity:1;stroke:none;stroke-width:1px;stroke-linecap:butt;stroke-linejoin:miter;stroke-opacity:1" id="flowRoot8098" xml:space="preserve"><flowRegion id="flowRegion8094"><rect style="font-size:22.5px" id="rect8092" width="213.167" height="60.791" x="73.741" y="79.585"/></flowRegion><flowPara id="flowPara8096" style="font-size:22.5px;line-height:1.25">Session terminated</flowPara></flowRoot></g><path style="fill:none;fill-rule:evenodd;stroke:#000;stroke-width:1.69333339;stroke-linecap:butt;stroke-linejoin:miter;stroke-opacity:1;marker-end:url(#marker8290)" id="path8102" d="M -14.044422,227.28869 V 241.4628 H 138.87407 v -79.56399"/><g id="g8110" transform="translate(-61.652553,167.3318)"><rect style="opacity:1;fill:#fff;fill-opacity:1;stroke:#000;stroke-width:.5;stroke-miterlimit:4;stroke-dasharray:none;stroke-dashoffset:0;stroke-opacity:1" id="rect8104" width="148.317" height="15.119" x="39.046" y="66.057"/><text id="text8108" x="113.082" y="75.843" style="font-style:normal;font-weight:400;font-size:6.67770624px;line-height:1.25;font-family:sans-serif;letter-spacing:0;word-spacing:0;fill:#000;fill-opacity:1;stroke:none;stroke-width:.1669427" xml:space="preserve"><tspan id="tspan8106" style="font-style:normal;font-variant:normal;font-weight:400;font-stretch:normal;font-family:monospace;-inkscape-font-specification:monospace;text-align:center;text-anchor:middle;stroke-width:.1669427" x="113.082" y="75.843">hermes/dialogueManager/sessionEnded</tspan></text></g><path style="fill:none;fill-rule:evenodd;stroke:#06f;stroke-width:1.69333339;stroke-linecap:butt;stroke-linejoin:miter;stroke-opacity:1;marker-end:url(#marker19178)" id="path19174" d="M 234.9975,86.640302 V 132.01001 H 173.38728"/><g id="g5943" transform="translate(130.96762,28.132766)"><rect style="opacity:1;fill:#fff;fill-opacity:1;stroke:#06f;stroke-width:1.5;stroke-miterlimit:4;stroke-dasharray:none;stroke-dashoffset:0;stroke-opacity:1" id="rect5937" width="128.273" height="15.119" x="49.067" y="66.057"/><text id="text5941" x="113.082" y="75.843" style="font-style:normal;font-weight:400;font-size:6.67770624px;line-height:1.25;font-family:sans-serif;letter-spacing:0;word-spacing:0;fill:#000;fill-opacity:1;stroke:none;stroke-width:.1669427" xml:space="preserve"><tspan id="tspan5939" style="font-style:normal;font-variant:normal;font-weight:400;font-stretch:normal;font-family:monospace;-inkscape-font-specification:monospace;text-align:center;text-anchor:middle;stroke-width:.1669427" x="113.082" y="75.843">hermes/intent/&lt;intentName&gt;</tspan></text></g></g></svg>