<svg xmlns="http://www.w3.org/2000/svg" xmlns:svg="http://www.w3.org/2000/svg" id="svg945" width="98.479" height="156.959" version="1.1" viewBox="0 0 26.056 41.529"><metadata id="metadata942"/><g id="layer1" transform="translate(-41.016984,-143.63877)"><g aria-label="R" transform="matrix(0.94169331,0,0,1.0619169,-68.094277,63.123672)" style="font-style:normal;font-weight:400;font-size:40.97025681px;line-height:1.25;font-family:sans-serif;letter-spacing:0;word-spacing:0;fill:#000;fill-opacity:1;stroke:none;stroke-width:.26458332" id="text845"><path d="m 135.6273,101.77011 c 2.37106,1.8131 2.55028,3.38406 3.33976,5.11924 l -1.69523,0.82998 c -1.85385,-3.71292 -2.42061,-4.61348 -8.48983,-4.56888 h -4.4011 v 9.63328 h -1.79329 V 85.906136 h 6.87456 c 3.41419,0 5.9615,0.713512 7.64192,2.140536 1.68042,1.427023 2.52063,3.580896 2.52063,6.461617 -0.0787,2.715625 -1.7058,6.558561 -3.99742,7.261821 z M 124.3809,89.226967 v 10.602654 h 5.08127 c 1.94716,0 3.4142,-0.446778 4.40111,-1.340335 1.00025,-0.906894 1.50037,-2.233893 1.50037,-3.980997 0,-1.747104 -0.50012,-3.060766 -1.50037,-3.940986 -0.98691,-0.893557 -2.45395,-1.340336 -4.40111,-1.340336 z" style="fill:#000;stroke-width:.26458332" id="path850"/></g><g id="g841" transform="matrix(0.13446235,0,0,0.13446235,-7.538892,84.633412)" style="display:inline"><g id="g839" transform="matrix(0.69284915,0,0,0.69284915,398.95479,526.57573)"><rect style="opacity:1;fill:#000;fill-opacity:1;stroke:none;stroke-width:3;stroke-miterlimit:4;stroke-dasharray:none;stroke-dashoffset:0;stroke-opacity:1" id="rect829" width="59" height="125" x="-15.62" y="-34.953" ry="23.5"/><path style="opacity:1;fill:#000;fill-opacity:1;stroke:none;stroke-width:3;stroke-miterlimit:4;stroke-dasharray:none;stroke-dashoffset:0;stroke-opacity:1" id="path831" d="M 13.879844,86.215717 -0.12015534,68.633687 V 286.22825 H -16.120156 v 21.30468 h 16.00000066 27.99999934 16 v -21.30468 h -16 V 68.633687 Z"/><path style="opacity:1;fill:none;fill-opacity:1;stroke:#000;stroke-width:10;stroke-linecap:round;stroke-linejoin:round;stroke-miterlimit:4;stroke-dasharray:none;stroke-dashoffset:0;stroke-opacity:1" id="path833" d="m -14.86896,-54.934299 c 5.1056571,-10.753621 16.0648311,-18.18889 28.760604,-18.18889 12.67615,0 23.621068,7.412302 28.736893,18.13905"/><path id="path835" d="m -30.629854,-70.450545 c 7.904725,-16.074212 24.872035,-27.188245 44.527997,-27.188245 19.62558,0 36.570819,11.079703 44.491286,27.113746" style="opacity:1;fill:none;fill-opacity:1;stroke:#000;stroke-width:10;stroke-linecap:round;stroke-linejoin:round;stroke-miterlimit:4;stroke-dasharray:none;stroke-dashoffset:0;stroke-opacity:1"/><path style="opacity:1;fill:none;fill-opacity:1;stroke:#000;stroke-width:10;stroke-linecap:round;stroke-linejoin:round;stroke-miterlimit:4;stroke-dasharray:none;stroke-dashoffset:0;stroke-opacity:1" id="path837" d="m -49.588647,-82.464706 c 11.271727,-23.168784 35.46623,-39.188154 63.49461,-39.188154 27.985056,0 52.148086,15.96989 63.44226,39.080774"/></g></g><circle style="opacity:1;fill:#f2f2f2;fill-opacity:1;stroke:none;stroke-width:1;stroke-linecap:round;stroke-linejoin:bevel;stroke-miterlimit:4;stroke-dasharray:none;stroke-dashoffset:0;stroke-opacity:1" id="path853" cx="46.124" cy="155.319" r=".435"/><circle id="circle855" cx="48.241" cy="155.319" r=".435" style="opacity:1;fill:#f2f2f2;fill-opacity:1;stroke:none;stroke-width:1;stroke-linecap:round;stroke-linejoin:bevel;stroke-miterlimit:4;stroke-dasharray:none;stroke-dashoffset:0;stroke-opacity:1"/><circle id="circle857" cx="46.124" cy="156.906" r=".435" style="opacity:1;fill:#f2f2f2;fill-opacity:1;stroke:none;stroke-width:1;stroke-linecap:round;stroke-linejoin:bevel;stroke-miterlimit:4;stroke-dasharray:none;stroke-dashoffset:0;stroke-opacity:1"/><circle style="opacity:1;fill:#f2f2f2;fill-opacity:1;stroke:none;stroke-width:1;stroke-linecap:round;stroke-linejoin:bevel;stroke-miterlimit:4;stroke-dasharray:none;stroke-dashoffset:0;stroke-opacity:1" id="circle859" cx="48.241" cy="156.906" r=".435"/><circle style="opacity:1;fill:#f2f2f2;fill-opacity:1;stroke:none;stroke-width:1;stroke-linecap:round;stroke-linejoin:bevel;stroke-miterlimit:4;stroke-dasharray:none;stroke-dashoffset:0;stroke-opacity:1" id="circle861" cx="46.124" cy="158.494" r=".435"/><circle id="circle863" cx="48.241" cy="158.494" r=".435" style="opacity:1;fill:#f2f2f2;fill-opacity:1;stroke:none;stroke-width:1;stroke-linecap:round;stroke-linejoin:bevel;stroke-miterlimit:4;stroke-dasharray:none;stroke-dashoffset:0;stroke-opacity:1"/><g id="g890" transform="rotate(-28.087079,229.07022,302.91164)"><path id="rect868" d="m 529.10742,427.73438 c 0.20048,4.95472 0.68843,5.32031 -4.10742,5.32031 v 19.46484 h 15.17773 v -19.46484 c -4.97081,0.50561 -4.10546,-0.82427 -4.10546,-5.32031 z" transform="scale(0.26458333)" style="opacity:1;fill:#000;fill-opacity:1;stroke:none;stroke-width:3.77952766;stroke-linecap:round;stroke-linejoin:bevel;stroke-miterlimit:4;stroke-dasharray:none;stroke-dashoffset:0;stroke-opacity:1"/><path id="rect872" d="m 139.70712,118.68817 v 3.07254 h 2.41427 v -3.07254 z m 0.37878,1.46493 h 0.55108 v 0.49869 h -0.55108 z m 1.10562,0 h 0.55152 v 0.49869 h -0.55152 z" style="opacity:1;fill:#000;fill-opacity:1;stroke:none;stroke-width:.99999988;stroke-linecap:round;stroke-linejoin:bevel;stroke-miterlimit:4;stroke-dasharray:none;stroke-dashoffset:0;stroke-opacity:1"/></g></g></svg>