<svg xmlns="http://www.w3.org/2000/svg" xmlns:svg="http://www.w3.org/2000/svg" id="svg8" width="1157.923" height="719.103" version="1.1" viewBox="0 0 306.367 190.263"><defs id="defs2"><marker id="marker8118" orient="auto" refX="0" refY="0" style="overflow:visible"><path id="path8116" d="M 5.77,0 -2.88,5 V -5 Z" style="fill:#37abc8;fill-opacity:1;fill-rule:evenodd;stroke:#37abc8;stroke-width:1.00000003pt;stroke-opacity:1" transform="scale(-0.4)"/></marker><marker id="marker7608" orient="auto" refX="0" refY="0" style="overflow:visible"><path id="path7606" d="M 5.77,0 -2.88,5 V -5 Z" style="fill:#000;fill-opacity:1;fill-rule:evenodd;stroke:#000;stroke-width:1.00000003pt;stroke-opacity:1" transform="scale(0.4)"/></marker><marker id="marker7466" orient="auto" refX="0" refY="0" style="overflow:visible"><path id="path7464" d="M 5.77,0 -2.88,5 V -5 Z" style="fill:#000;fill-opacity:1;fill-rule:evenodd;stroke:#000;stroke-width:1.00000003pt;stroke-opacity:1" transform="scale(-0.4)"/></marker><marker style="overflow:visible" id="marker6210" orient="auto" refX="0" refY="0"><path transform="scale(0.4)" style="fill:#000;fill-opacity:1;fill-rule:evenodd;stroke:#000;stroke-width:1.00000003pt;stroke-opacity:1" id="path6208" d="M 5.77,0 -2.88,5 V -5 Z"/></marker><marker style="overflow:visible" id="marker6092" orient="auto" refX="0" refY="0"><path transform="scale(-0.4)" style="fill:#000;fill-opacity:1;fill-rule:evenodd;stroke:#000;stroke-width:1.00000003pt;stroke-opacity:1" id="path6090" d="M 5.77,0 -2.88,5 V -5 Z"/></marker><marker style="overflow:visible" id="marker4920" orient="auto" refX="0" refY="0"><path transform="scale(-0.4)" style="fill:#000;fill-opacity:1;fill-rule:evenodd;stroke:#000;stroke-width:1.00000003pt;stroke-opacity:1" id="path4918" d="M 5.77,0 -2.88,5 V -5 Z"/></marker><marker style="overflow:visible" id="marker2857" orient="auto" refX="0" refY="0"><path transform="scale(-0.4)" style="fill:#000;fill-opacity:1;fill-rule:evenodd;stroke:#000;stroke-width:1.00000003pt;stroke-opacity:1" id="path2855" d="M 5.77,0 -2.88,5 V -5 Z"/></marker><marker id="marker1507" orient="auto" refX="0" refY="0" style="overflow:visible"><path id="path1312" d="M 5.77,0 -2.88,5 V -5 Z" style="fill:#000;fill-opacity:1;fill-rule:evenodd;stroke:#000;stroke-width:1.00000003pt;stroke-opacity:1" transform="scale(-0.4)"/></marker><marker id="Arrow1Sstart" orient="auto" refX="0" refY="0" style="overflow:visible"><path id="path1188" d="M 0,0 5,-5 -12.5,0 5,5 Z" style="fill:#000;fill-opacity:1;fill-rule:evenodd;stroke:#000;stroke-width:1.00000003pt;stroke-opacity:1" transform="matrix(0.2,0,0,0.2,1.2,0)"/></marker><marker id="marker5201" orient="auto" refX="0" refY="0" style="overflow:visible"><path id="path5199" d="M 5.77,0 -2.88,5 V -5 Z" style="fill:#000;fill-opacity:1;fill-rule:evenodd;stroke:#000;stroke-width:1.00000003pt;stroke-opacity:1" transform="scale(0.4)"/></marker><marker style="overflow:visible" id="marker5045" orient="auto" refX="0" refY="0"><path transform="scale(0.4)" style="fill:#000;fill-opacity:1;fill-rule:evenodd;stroke:#000;stroke-width:1.00000003pt;stroke-opacity:1" id="path5043" d="M 5.77,0 -2.88,5 V -5 Z"/></marker><marker id="TriangleInM" orient="auto" refX="0" refY="0" style="overflow:visible"><path id="path1995" d="M 5.77,0 -2.88,5 V -5 Z" style="fill:#000;fill-opacity:1;fill-rule:evenodd;stroke:#000;stroke-width:1.00000003pt;stroke-opacity:1" transform="scale(-0.4)"/></marker><path id="a" d="M 44.041,343.222 V 209.58 H 9.288 A 9.333,9.333 0 0 1 2.633,193.704 L 189.639,3.497 c 4.517,-4.594 11.903,-4.657 16.498,-0.14 l 0.12,0.12 97.601,98.794 V 83.974 a 7.778,7.778 0 0 1 7.778,-7.778 h 32.41 a 7.778,7.778 0 0 1 7.779,7.778 v 67.138 l 41.568,42.618 a 9.333,9.333 0 0 1 -6.682,15.85 H 351.825 V 343.222 A 7.778,7.778 0 0 1 344.047,351 H 51.819 a 7.778,7.778 0 0 1 -7.778,-7.778 z m 206.393,-163.26 a 15.029,15.029 0 0 0 1.46,-6.486 c 0,-8.308 -6.71,-15.043 -14.989,-15.043 -8.278,0 -14.989,6.735 -14.989,15.043 0,8.308 6.711,15.044 14.99,15.044 2.314,0 4.505,-0.527 6.462,-1.467 l 21.518,21.596 v 20.918 l -26.981,27.078 v -19.84 a 15.046,15.046 0 0 0 9.993,-14.187 c 0,-8.308 -6.711,-15.044 -14.99,-15.044 -8.278,0 -14.99,6.736 -14.99,15.044 0,6.55 4.172,12.122 9.994,14.187 v 29.868 l -24.983,25.073 V 144.464 l 20.519,-20.592 a 14.886,14.886 0 0 0 6.462,1.466 c 8.279,0 14.99,-6.735 14.99,-15.044 0,-8.308 -6.711,-15.043 -14.99,-15.043 -8.278,0 -14.989,6.735 -14.989,15.043 0,2.323 0.524,4.522 1.46,6.486 l -18.448,18.515 -18.449,-18.515 a 15.029,15.029 0 0 0 1.46,-6.486 c 0,-8.308 -6.71,-15.043 -14.989,-15.043 -8.278,0 -14.989,6.735 -14.989,15.043 0,8.309 6.711,15.044 14.99,15.044 2.314,0 4.505,-0.527 6.462,-1.466 l 20.518,20.592 v 105.16 L 156.962,213.52 v -28.865 a 15.046,15.046 0 0 0 9.993,-14.187 c 0,-8.309 -6.711,-15.044 -14.99,-15.044 -8.278,0 -14.99,6.735 -14.99,15.044 0,6.55 4.172,12.122 9.994,14.187 v 18.837 l -27.98,-28.081 v -27.863 a 15.046,15.046 0 0 0 9.993,-14.187 c 0,-8.308 -6.711,-15.044 -14.99,-15.044 -8.278,0 -14.99,6.736 -14.99,15.044 0,6.55 4.172,12.122 9.994,14.187 v 32.017 l 30.907,31.018 h -17.77 c -2.058,-5.843 -7.61,-10.029 -14.137,-10.029 -8.278,0 -14.99,6.735 -14.99,15.043 0,8.309 6.712,15.044 14.99,15.044 6.527,0 12.08,-4.186 14.137,-10.03 h 27.763 l 43.04,43.196 v 75.074 l -22.983,-23.066 v -28.866 a 15.046,15.046 0 0 0 9.993,-14.187 c 0,-8.308 -6.711,-15.043 -14.99,-15.043 -8.278,0 -14.99,6.735 -14.99,15.043 0,6.55 4.172,12.122 9.994,14.187 v 18.837 l -33.439,-33.558 a 15.029,15.029 0 0 0 1.461,-6.486 c 0,-8.308 -6.71,-15.043 -14.99,-15.043 -8.278,0 -14.989,6.735 -14.989,15.043 0,8.308 6.711,15.043 14.99,15.043 2.314,0 4.506,-0.526 6.462,-1.466 l 33.439,33.559 h -17.77 c -2.058,-5.843 -7.61,-10.03 -14.137,-10.03 -8.278,0 -14.99,6.736 -14.99,15.044 0,8.308 6.712,15.043 14.99,15.043 6.527,0 12.079,-4.186 14.137,-10.029 h 27.763 l 27.98,28.081 h 14.132 l 28.98,-29.083 h 26.763 c 2.058,5.842 7.61,10.028 14.137,10.028 8.278,0 14.99,-6.735 14.99,-15.043 0,-8.308 -6.712,-15.043 -14.99,-15.043 -6.527,0 -12.079,4.186 -14.137,10.029 H 229.84 l -26.91,27.006 V 305.93 l 32.049,-32.164 h 51.746 c 2.058,5.843 7.61,10.029 14.136,10.029 8.279,0 14.99,-6.735 14.99,-15.043 0,-8.309 -6.711,-15.044 -14.99,-15.044 -6.526,0 -12.078,4.186 -14.136,10.03 H 244.97 l 29.908,-30.016 V 208.65 l 21.517,-21.596 a 14.886,14.886 0 0 0 6.463,1.467 c 8.278,0 14.99,-6.736 14.99,-15.044 0,-8.308 -6.712,-15.043 -14.99,-15.043 -8.278,0 -14.99,6.735 -14.99,15.043 0,2.323 0.525,4.522 1.461,6.486 l -14.451,14.504 V 148.55 a 15.046,15.046 0 0 0 9.993,-14.187 c 0,-8.309 -6.711,-15.044 -14.99,-15.044 -8.278,0 -14.99,6.735 -14.99,15.044 0,6.55 4.172,12.122 9.994,14.187 v 45.915 L 250.433,179.961 Z M 120.987,323.909 c -3.311,0 -5.996,-2.694 -5.996,-6.017 0,-3.323 2.685,-6.017 5.996,-6.017 3.312,0 5.996,2.694 5.996,6.017 0,3.323 -2.684,6.017 -5.996,6.017 z m 43.97,-45.13 c -3.312,0 -5.997,-2.694 -5.997,-6.017 0,-3.323 2.685,-6.017 5.996,-6.017 3.312,0 5.996,2.694 5.996,6.017 0,3.323 -2.684,6.017 -5.996,6.017 z m -51.964,-7.02 c -3.312,0 -5.996,-2.694 -5.996,-6.017 0,-3.323 2.684,-6.017 5.996,-6.017 3.311,0 5.996,2.694 5.996,6.017 0,3.323 -2.685,6.017 -5.996,6.017 z m -4.997,-50.144 c -3.311,0 -5.995,-2.694 -5.995,-6.018 0,-3.323 2.684,-6.017 5.995,-6.017 3.312,0 5.996,2.694 5.996,6.017 0,3.324 -2.684,6.018 -5.996,6.018 z m 124.912,7.02 c -3.311,0 -5.995,-2.694 -5.995,-6.017 0,-3.324 2.684,-6.018 5.995,-6.018 3.312,0 5.996,2.694 5.996,6.018 0,3.323 -2.684,6.017 -5.996,6.017 z m 67.952,46.133 c -3.31,0 -5.995,-2.694 -5.995,-6.017 0,-3.324 2.684,-6.018 5.995,-6.018 3.312,0 5.996,2.694 5.996,6.018 0,3.323 -2.684,6.017 -5.996,6.017 z m -25.981,48.138 c -3.312,0 -5.996,-2.694 -5.996,-6.017 0,-3.323 2.684,-6.017 5.996,-6.017 3.311,0 5.996,2.694 5.996,6.017 0,3.323 -2.685,6.017 -5.996,6.017 z m 27.98,-143.412 c -3.311,0 -5.996,-2.695 -5.996,-6.018 0,-3.323 2.685,-6.017 5.996,-6.017 3.311,0 5.996,2.694 5.996,6.017 0,3.323 -2.685,6.018 -5.996,6.018 z m -32.977,-39.113 c -3.311,0 -5.996,-2.694 -5.996,-6.017 0,-3.324 2.685,-6.018 5.996,-6.018 3.312,0 5.996,2.694 5.996,6.018 0,3.323 -2.684,6.017 -5.996,6.017 z m -39.972,-24.07 c -3.311,0 -5.995,-2.693 -5.995,-6.017 0,-3.323 2.684,-6.017 5.995,-6.017 3.312,0 5.996,2.694 5.996,6.017 0,3.324 -2.684,6.018 -5.996,6.018 z m -63.955,0 c -3.31,0 -5.995,-2.693 -5.995,-6.017 0,-3.323 2.684,-6.017 5.995,-6.017 3.312,0 5.996,2.694 5.996,6.017 0,3.324 -2.684,6.018 -5.996,6.018 z m -51.963,23.067 c -3.311,0 -5.996,-2.694 -5.996,-6.017 0,-3.324 2.685,-6.018 5.996,-6.018 3.311,0 5.996,2.694 5.996,6.018 0,3.323 -2.685,6.017 -5.996,6.017 z m 37.973,37.107 c -3.311,0 -5.995,-2.694 -5.995,-6.017 0,-3.324 2.684,-6.018 5.995,-6.018 3.312,0 5.996,2.694 5.996,6.018 0,3.323 -2.684,6.017 -5.996,6.017 z m 84.94,3.009 c -3.31,0 -5.995,-2.695 -5.995,-6.018 0,-3.323 2.684,-6.017 5.995,-6.017 3.312,0 5.996,2.694 5.996,6.017 0,3.323 -2.684,6.018 -5.996,6.018 z"/><path id="a-6" d="M 44.041,343.222 V 209.58 H 9.288 A 9.333,9.333 0 0 1 2.633,193.704 L 189.639,3.497 c 4.517,-4.594 11.903,-4.657 16.498,-0.14 l 0.12,0.12 97.601,98.794 V 83.974 a 7.778,7.778 0 0 1 7.778,-7.778 h 32.41 a 7.778,7.778 0 0 1 7.779,7.778 v 67.138 l 41.568,42.618 a 9.333,9.333 0 0 1 -6.682,15.85 H 351.825 V 343.222 A 7.778,7.778 0 0 1 344.047,351 H 51.819 a 7.778,7.778 0 0 1 -7.778,-7.778 z m 206.393,-163.26 a 15.029,15.029 0 0 0 1.46,-6.486 c 0,-8.308 -6.71,-15.043 -14.989,-15.043 -8.278,0 -14.989,6.735 -14.989,15.043 0,8.308 6.711,15.044 14.99,15.044 2.314,0 4.505,-0.527 6.462,-1.467 l 21.518,21.596 v 20.918 l -26.981,27.078 v -19.84 a 15.046,15.046 0 0 0 9.993,-14.187 c 0,-8.308 -6.711,-15.044 -14.99,-15.044 -8.278,0 -14.99,6.736 -14.99,15.044 0,6.55 4.172,12.122 9.994,14.187 v 29.868 l -24.983,25.073 V 144.464 l 20.519,-20.592 a 14.886,14.886 0 0 0 6.462,1.466 c 8.279,0 14.99,-6.735 14.99,-15.044 0,-8.308 -6.711,-15.043 -14.99,-15.043 -8.278,0 -14.989,6.735 -14.989,15.043 0,2.323 0.524,4.522 1.46,6.486 l -18.448,18.515 -18.449,-18.515 a 15.029,15.029 0 0 0 1.46,-6.486 c 0,-8.308 -6.71,-15.043 -14.989,-15.043 -8.278,0 -14.989,6.735 -14.989,15.043 0,8.309 6.711,15.044 14.99,15.044 2.314,0 4.505,-0.527 6.462,-1.466 l 20.518,20.592 v 105.16 L 156.962,213.52 v -28.865 a 15.046,15.046 0 0 0 9.993,-14.187 c 0,-8.309 -6.711,-15.044 -14.99,-15.044 -8.278,0 -14.99,6.735 -14.99,15.044 0,6.55 4.172,12.122 9.994,14.187 v 18.837 l -27.98,-28.081 v -27.863 a 15.046,15.046 0 0 0 9.993,-14.187 c 0,-8.308 -6.711,-15.044 -14.99,-15.044 -8.278,0 -14.99,6.736 -14.99,15.044 0,6.55 4.172,12.122 9.994,14.187 v 32.017 l 30.907,31.018 h -17.77 c -2.058,-5.843 -7.61,-10.029 -14.137,-10.029 -8.278,0 -14.99,6.735 -14.99,15.043 0,8.309 6.712,15.044 14.99,15.044 6.527,0 12.08,-4.186 14.137,-10.03 h 27.763 l 43.04,43.196 v 75.074 l -22.983,-23.066 v -28.866 a 15.046,15.046 0 0 0 9.993,-14.187 c 0,-8.308 -6.711,-15.043 -14.99,-15.043 -8.278,0 -14.99,6.735 -14.99,15.043 0,6.55 4.172,12.122 9.994,14.187 v 18.837 l -33.439,-33.558 a 15.029,15.029 0 0 0 1.461,-6.486 c 0,-8.308 -6.71,-15.043 -14.99,-15.043 -8.278,0 -14.989,6.735 -14.989,15.043 0,8.308 6.711,15.043 14.99,15.043 2.314,0 4.506,-0.526 6.462,-1.466 l 33.439,33.559 h -17.77 c -2.058,-5.843 -7.61,-10.03 -14.137,-10.03 -8.278,0 -14.99,6.736 -14.99,15.044 0,8.308 6.712,15.043 14.99,15.043 6.527,0 12.079,-4.186 14.137,-10.029 h 27.763 l 27.98,28.081 h 14.132 l 28.98,-29.083 h 26.763 c 2.058,5.842 7.61,10.028 14.137,10.028 8.278,0 14.99,-6.735 14.99,-15.043 0,-8.308 -6.712,-15.043 -14.99,-15.043 -6.527,0 -12.079,4.186 -14.137,10.029 H 229.84 l -26.91,27.006 V 305.93 l 32.049,-32.164 h 51.746 c 2.058,5.843 7.61,10.029 14.136,10.029 8.279,0 14.99,-6.735 14.99,-15.043 0,-8.309 -6.711,-15.044 -14.99,-15.044 -6.526,0 -12.078,4.186 -14.136,10.03 H 244.97 l 29.908,-30.016 V 208.65 l 21.517,-21.596 a 14.886,14.886 0 0 0 6.463,1.467 c 8.278,0 14.99,-6.736 14.99,-15.044 0,-8.308 -6.712,-15.043 -14.99,-15.043 -8.278,0 -14.99,6.735 -14.99,15.043 0,2.323 0.525,4.522 1.461,6.486 l -14.451,14.504 V 148.55 a 15.046,15.046 0 0 0 9.993,-14.187 c 0,-8.309 -6.711,-15.044 -14.99,-15.044 -8.278,0 -14.99,6.735 -14.99,15.044 0,6.55 4.172,12.122 9.994,14.187 v 45.915 L 250.433,179.961 Z M 120.987,323.909 c -3.311,0 -5.996,-2.694 -5.996,-6.017 0,-3.323 2.685,-6.017 5.996,-6.017 3.312,0 5.996,2.694 5.996,6.017 0,3.323 -2.684,6.017 -5.996,6.017 z m 43.97,-45.13 c -3.312,0 -5.997,-2.694 -5.997,-6.017 0,-3.323 2.685,-6.017 5.996,-6.017 3.312,0 5.996,2.694 5.996,6.017 0,3.323 -2.684,6.017 -5.996,6.017 z m -51.964,-7.02 c -3.312,0 -5.996,-2.694 -5.996,-6.017 0,-3.323 2.684,-6.017 5.996,-6.017 3.311,0 5.996,2.694 5.996,6.017 0,3.323 -2.685,6.017 -5.996,6.017 z m -4.997,-50.144 c -3.311,0 -5.995,-2.694 -5.995,-6.018 0,-3.323 2.684,-6.017 5.995,-6.017 3.312,0 5.996,2.694 5.996,6.017 0,3.324 -2.684,6.018 -5.996,6.018 z m 124.912,7.02 c -3.311,0 -5.995,-2.694 -5.995,-6.017 0,-3.324 2.684,-6.018 5.995,-6.018 3.312,0 5.996,2.694 5.996,6.018 0,3.323 -2.684,6.017 -5.996,6.017 z m 67.952,46.133 c -3.31,0 -5.995,-2.694 -5.995,-6.017 0,-3.324 2.684,-6.018 5.995,-6.018 3.312,0 5.996,2.694 5.996,6.018 0,3.323 -2.684,6.017 -5.996,6.017 z m -25.981,48.138 c -3.312,0 -5.996,-2.694 -5.996,-6.017 0,-3.323 2.684,-6.017 5.996,-6.017 3.311,0 5.996,2.694 5.996,6.017 0,3.323 -2.685,6.017 -5.996,6.017 z m 27.98,-143.412 c -3.311,0 -5.996,-2.695 -5.996,-6.018 0,-3.323 2.685,-6.017 5.996,-6.017 3.311,0 5.996,2.694 5.996,6.017 0,3.323 -2.685,6.018 -5.996,6.018 z m -32.977,-39.113 c -3.311,0 -5.996,-2.694 -5.996,-6.017 0,-3.324 2.685,-6.018 5.996,-6.018 3.312,0 5.996,2.694 5.996,6.018 0,3.323 -2.684,6.017 -5.996,6.017 z m -39.972,-24.07 c -3.311,0 -5.995,-2.693 -5.995,-6.017 0,-3.323 2.684,-6.017 5.995,-6.017 3.312,0 5.996,2.694 5.996,6.017 0,3.324 -2.684,6.018 -5.996,6.018 z m -63.955,0 c -3.31,0 -5.995,-2.693 -5.995,-6.017 0,-3.323 2.684,-6.017 5.995,-6.017 3.312,0 5.996,2.694 5.996,6.017 0,3.324 -2.684,6.018 -5.996,6.018 z m -51.963,23.067 c -3.311,0 -5.996,-2.694 -5.996,-6.017 0,-3.324 2.685,-6.018 5.996,-6.018 3.311,0 5.996,2.694 5.996,6.018 0,3.323 -2.685,6.017 -5.996,6.017 z m 37.973,37.107 c -3.311,0 -5.995,-2.694 -5.995,-6.017 0,-3.324 2.684,-6.018 5.995,-6.018 3.312,0 5.996,2.694 5.996,6.018 0,3.323 -2.684,6.017 -5.996,6.017 z m 84.94,3.009 c -3.31,0 -5.995,-2.695 -5.995,-6.018 0,-3.323 2.684,-6.017 5.995,-6.017 3.312,0 5.996,2.694 5.996,6.017 0,3.323 -2.684,6.018 -5.996,6.018 z"/><filter style="color-interpolation-filters:sRGB" id="filter1477" width="1.031" height="1.112" x="-.015" y="-.056"><feGaussianBlur id="feGaussianBlur1479" stdDeviation=".238"/></filter><filter id="filter1477-7" width="1.031" height="1.112" x="-.015" y="-.056" style="color-interpolation-filters:sRGB"><feGaussianBlur id="feGaussianBlur1479-9" stdDeviation=".238"/></filter><filter id="filter1477-5" width="1.031" height="1.112" x="-.015" y="-.056" style="color-interpolation-filters:sRGB"><feGaussianBlur id="feGaussianBlur1479-92" stdDeviation=".238"/></filter><marker style="overflow:visible" id="TriangleOutS" orient="auto" refX="0" refY="0"><path transform="scale(0.2)" style="fill-rule:evenodd;stroke:#000;stroke-width:1.00000003pt" id="path4357" d="M 5.77,0 -2.88,5 V -5 Z"/></marker><marker id="marker4717" orient="auto" refX="0" refY="0" style="overflow:visible"><path id="path4719" d="M 5.77,0 -2.88,5 V -5 Z" style="fill:#000;fill-opacity:1;fill-rule:evenodd;stroke:#000;stroke-width:1.00000003pt;stroke-opacity:1" transform="scale(0.2)"/></marker><marker style="overflow:visible" id="marker4567" orient="auto" refX="0" refY="0"><path transform="scale(0.2)" style="fill:#000;fill-opacity:1;fill-rule:evenodd;stroke:#000;stroke-width:1.00000003pt;stroke-opacity:1" id="path4569" d="M 5.77,0 -2.88,5 V -5 Z"/></marker><marker style="overflow:visible" id="TriangleOutM" orient="auto" refX="0" refY="0"><path transform="scale(0.4)" style="fill:#000;fill-opacity:1;fill-rule:evenodd;stroke:#000;stroke-width:1.00000003pt;stroke-opacity:1" id="path4354" d="M 5.77,0 -2.88,5 V -5 Z"/></marker><style id="current-color-scheme" type="text/css"/><filter id="filter1477-7-7" width="1.031" height="1.112" x="-.015" y="-.056" style="color-interpolation-filters:sRGB"><feGaussianBlur id="feGaussianBlur1479-9-5" stdDeviation=".238"/></filter><marker style="overflow:visible" id="marker2857-1" orient="auto" refX="0" refY="0"><path transform="scale(-0.4)" style="fill:#00d4aa;fill-opacity:1;fill-rule:evenodd;stroke:#00d4aa;stroke-width:1.00000003pt;stroke-opacity:1" id="path2855-2" d="M 5.77,0 -2.88,5 V -5 Z"/></marker><marker id="marker8118-0" orient="auto" refX="0" refY="0" style="overflow:visible"><path id="path8116-9" d="M 5.77,0 -2.88,5 V -5 Z" style="fill:#d4aa00;fill-opacity:1;fill-rule:evenodd;stroke:#d4aa00;stroke-width:1.00000003pt;stroke-opacity:1" transform="scale(-0.4)"/></marker></defs><metadata id="metadata5"/><g id="layer1" transform="translate(41.637179,-19.188831)"><g id="g4838" transform="matrix(1.1036042,0,0,1.1036042,1.8598564,23.772421)"><rect style="opacity:1;fill:#37abc8;fill-opacity:1;stroke:#214478;stroke-width:.67959148;stroke-miterlimit:4;stroke-dasharray:none;stroke-dashoffset:0;stroke-opacity:1" id="rect4830" width="47.625" height="20.411" x="81.454" y="22.589" ry="10.205"/><text id="text4834" x="92.228" y="34.757" style="font-style:normal;font-weight:400;font-size:7.11387825px;line-height:1.25;font-family:sans-serif;letter-spacing:0;word-spacing:0;fill:#fff;fill-opacity:1;stroke:none;stroke-width:.37213695" xml:space="preserve"><tspan style="fill:#fff;stroke-width:.37213695" id="tspan4832" x="92.228" y="34.757">Speech</tspan></text><path style="opacity:.1;fill:#000;fill-opacity:1;stroke:none;stroke-width:.5;stroke-miterlimit:4;stroke-dasharray:none;stroke-dashoffset:0;stroke-opacity:1;filter:url(#filter1477)" id="path4836" d="M 129.07887,32.794642 C 129.07887,38.448411 124.52728,43 118.87351,43 H 91.659223 c 0.177872,-2.459989 31.594707,0.946279 37.419647,-10.205358 z"/></g><path style="fill:none;fill-rule:evenodd;stroke:#000;stroke-width:1.69299996;stroke-linecap:butt;stroke-linejoin:miter;stroke-miterlimit:4;stroke-dasharray:none;stroke-opacity:1;marker-start:url(#marker1507);marker-end:url(#marker5201)" id="path5197" d="M 181.06988,118.99849 H 169.09081"/><g id="g6571"><path style="fill:none;fill-rule:evenodd;stroke:#000;stroke-width:1.69299996;stroke-linecap:butt;stroke-linejoin:miter;stroke-miterlimit:4;stroke-dasharray:none;stroke-opacity:1;marker-start:url(#marker4920)" id="path4916" d="M 118.26522,77.164613 V 105.01863"/><path id="path5165-3" d="m 118.26521,82.021884 6.70102,6.60585 -13.40203,-1e-5 z" style="opacity:1;fill:#d4aa00;fill-opacity:1;stroke:#2b2200;stroke-width:.5;stroke-miterlimit:4;stroke-dasharray:none;stroke-dashoffset:0;stroke-opacity:1"/><path style="opacity:1;fill:#d4aa00;fill-opacity:1;stroke:#2b2200;stroke-width:.5;stroke-miterlimit:4;stroke-dasharray:none;stroke-dashoffset:0;stroke-opacity:1" id="path6500" d="m 118.26521,91.546887 6.70102,6.60585 -13.40203,-1e-5 z"/></g><g id="g6579" transform="matrix(1,0,0,-1,0,238.75703)"><path id="path6573" d="M 118.26522,77.164613 V 105.01863" style="fill:none;fill-rule:evenodd;stroke:#000;stroke-width:1.69299996;stroke-linecap:butt;stroke-linejoin:miter;stroke-miterlimit:4;stroke-dasharray:none;stroke-opacity:1;marker-start:url(#marker4920)"/><path style="opacity:1;fill:#d4aa00;fill-opacity:1;stroke:#2b2200;stroke-width:.5;stroke-miterlimit:4;stroke-dasharray:none;stroke-dashoffset:0;stroke-opacity:1" id="path6575" d="m 118.26521,82.021884 6.70102,6.60585 -13.40203,-1e-5 z"/><path id="path6577" d="m 118.26521,91.546887 6.70102,6.60585 -13.40203,-1e-5 z" style="opacity:1;fill:#d4aa00;fill-opacity:1;stroke:#2b2200;stroke-width:.5;stroke-miterlimit:4;stroke-dasharray:none;stroke-dashoffset:0;stroke-opacity:1"/></g><g id="g998" transform="translate(82.110473,-37.016389)"><rect id="rect1817-6" width="84.464" height="34.219" x="-4.873" y="138.905" ry="6.334" style="opacity:1;fill:#ececec;fill-opacity:1;stroke:#000;stroke-width:.56444454;stroke-linecap:round;stroke-linejoin:round;stroke-miterlimit:4;stroke-dasharray:none;stroke-dashoffset:0;stroke-opacity:1"/><text xml:space="preserve" style="font-style:normal;font-weight:400;font-size:3.78367853px;line-height:0%;font-family:sans-serif;letter-spacing:0;word-spacing:0;fill:#666;fill-opacity:1;stroke:none;stroke-width:.31530654px;stroke-linecap:butt;stroke-linejoin:miter;stroke-opacity:1" id="text4213-6-2" x="36.88" y="154.47"><tspan x="36.88" y="154.47" style="font-weight:400;font-size:9.8533287px;line-height:1.25;text-align:center;text-anchor:middle;fill:#000;fill-opacity:1;stroke-width:.31530654px" id="tspan4637">MQTT Broker</tspan><tspan x="36.88" y="164.936" style="font-weight:400;font-size:7.76111126px;line-height:1.25;text-align:center;text-anchor:middle;fill:#000;fill-opacity:1;stroke-width:.31530654px" id="tspan5391">port 12183</tspan></text></g><path id="path2853" d="m 68.537891,119.30207 -31.044512,0.0996 V 64.694188" style="fill:none;fill-rule:evenodd;stroke:#000;stroke-width:1.69299996;stroke-linecap:butt;stroke-linejoin:miter;stroke-miterlimit:4;stroke-dasharray:none;stroke-opacity:1;marker-start:url(#marker2857)"/><g id="g2775" transform="matrix(0.99048133,0,0,0.99048133,-27.476117,26.296352)"><g id="g2773" transform="matrix(1.1036042,0,0,1.1036042,-50.570414,-2.0712899)"><rect style="opacity:1;fill:#d4aa00;fill-opacity:1;stroke:#806600;stroke-width:.67959148;stroke-miterlimit:4;stroke-dasharray:none;stroke-dashoffset:0;stroke-opacity:1" id="rect2763" width="47.625" height="20.411" x="81.454" y="22.589" ry="10.205"/><text id="text2769" x="105.421" y="30.467" style="font-style:normal;font-weight:400;font-size:6.66668129px;line-height:1.25;font-family:sans-serif;text-align:center;letter-spacing:0;word-spacing:0;text-anchor:middle;fill:#fff;fill-opacity:1;stroke:none;stroke-width:.34874347" xml:space="preserve"><tspan id="tspan2767" style="text-align:center;text-anchor:middle;fill:#fff;stroke-width:.34874347" x="105.421" y="30.467">Audio</tspan><tspan style="text-align:center;text-anchor:middle;fill:#fff;stroke-width:.34874347" id="tspan2779" x="105.421" y="38.801">Input</tspan></text><path style="opacity:.1;fill:#000;fill-opacity:1;stroke:none;stroke-width:.5;stroke-miterlimit:4;stroke-dasharray:none;stroke-dashoffset:0;stroke-opacity:1;filter:url(#filter1477-5)" id="path2771" d="M 129.07887,32.794642 C 129.07887,38.448411 124.52728,43 118.87351,43 H 91.659223 c 0.177872,-2.459989 31.594707,0.946279 37.419647,-10.205358 z"/></g></g><g id="g7448" transform="matrix(1.0983326,0,0,1.0983326,2.2630151,144.01341)"><rect id="rect7440" width="47.625" height="20.411" x="81.454" y="22.589" ry="10.205" style="opacity:1;fill:#00d4aa;fill-opacity:1;stroke:#2d5016;stroke-width:.67959148;stroke-miterlimit:4;stroke-dasharray:none;stroke-dashoffset:0;stroke-opacity:1"/><text xml:space="preserve" style="font-style:normal;font-weight:400;font-size:7.11387825px;line-height:1.25;font-family:sans-serif;letter-spacing:0;word-spacing:0;fill:#fff;fill-opacity:1;stroke:none;stroke-width:.37213695" id="text7444" x="105.338" y="30.992"><tspan id="tspan7442" x="105.338" y="30.992" style="font-size:7.14656544px;text-align:center;text-anchor:middle;fill:#fff;stroke-width:.37213695">Wake</tspan><tspan x="105.338" y="39.926" style="font-size:7.14656544px;text-align:center;text-anchor:middle;fill:#fff;stroke-width:.37213695" id="tspan7970">Word</tspan></text><path id="path7446" d="M 129.07887,32.794642 C 129.07887,38.448411 124.52728,43 118.87351,43 H 91.659223 c 0.177872,-2.459989 31.594707,0.946279 37.419647,-10.205358 z" style="opacity:.1;fill:#000;fill-opacity:1;stroke:none;stroke-width:.5;stroke-miterlimit:4;stroke-dasharray:none;stroke-dashoffset:0;stroke-opacity:1;filter:url(#filter1477-7)"/></g><path style="opacity:1;fill:#d4aa00;fill-opacity:1;stroke:#2b2200;stroke-width:.5;stroke-miterlimit:4;stroke-dasharray:none;stroke-dashoffset:0;stroke-opacity:1" id="rect4368" d="m 37.62807,85.383555 6.701015,-6.605843 -13.402032,8e-6 z"/><path id="path5163" d="m 37.62807,98.612714 6.701015,-6.605843 -13.402032,8e-6 z" style="opacity:1;fill:#d4aa00;fill-opacity:1;stroke:#2b2200;stroke-width:.5;stroke-miterlimit:4;stroke-dasharray:none;stroke-dashoffset:0;stroke-opacity:1"/><path style="opacity:1;fill:#d4aa00;fill-opacity:1;stroke:#2b2200;stroke-width:.5;stroke-miterlimit:4;stroke-dasharray:none;stroke-dashoffset:0;stroke-opacity:1" id="path5165" d="m 37.62807,111.84188 6.701015,-6.60585 -13.402032,1e-5 z"/><path id="path195" style="font-style:normal;font-weight:400;font-size:72.17579651px;line-height:1.25;font-family:sans-serif;letter-spacing:0;word-spacing:0;fill:#000;fill-opacity:1;stroke:none;stroke-width:.15719134" d="m 26.987107,111.97355 v 1.2567 h -1.34522 c -5.188501,-0.0122 -6.133091,-2.8406 -6.162312,-5.644 v -8.947269 c 0,-1.53974 -0.39055,-2.60532 -1.171649,-3.19674 -0.781082,-0.59142 -2.199281,-1.645743 -4.252609,-1.593913 h -1.323524 l -1.788939,-0.38684 1.788939,-0.32002 h 1.323524 c 2.068449,0 3.485987,-1.06421 4.252609,-1.64544 0.781099,-0.59142 1.171649,-1.64681 1.171649,-3.16615 v -8.96256 c -0.0669,-3.93778 3.085532,-5.61587 6.162312,-5.62871 h 1.34522 v 0.92612 h -2.593493 c -2.895159,0.35686 -3.795448,3.36689 -3.807139,4.76377 v 9.08492 c 0,1.60092 -0.33268,2.76338 -0.99805,3.48736 -0.650911,0.72398 -1.771929,1.21343 -3.363049,1.46836 1.60558,0.27531 2.733831,0.774963 3.384741,1.498943 0.65091,0.72399 0.976358,1.88134 0.976358,3.47206 v 9.084919 c -0.02029,1.99664 1.707572,4.40814 3.583531,4.44849 z"/><text id="text1303-3" x="-2.564" y="91.698" style="font-style:normal;font-weight:400;font-size:6.67770624px;line-height:1.25;font-family:sans-serif;letter-spacing:0;word-spacing:0;fill:#000;fill-opacity:1;stroke:none;stroke-width:.16694267" xml:space="preserve"><tspan id="tspan2817-6" style="font-weight:400;text-align:center;text-anchor:middle;stroke-width:.16694267" x="-2.564" y="91.698">WAV</tspan><tspan style="font-weight:400;text-align:center;text-anchor:middle;stroke-width:.16694267" id="tspan5193" x="-2.564" y="100.045">chunks</tspan></text><g id="g5735" transform="matrix(1.0983326,0,0,1.0983326,98.497138,82.851825)"><rect style="opacity:1;fill:#71c837;fill-opacity:1;stroke:#2d5016;stroke-width:.67959148;stroke-miterlimit:4;stroke-dasharray:none;stroke-dashoffset:0;stroke-opacity:1" id="rect5727" width="47.625" height="20.411" x="81.454" y="22.589" ry="10.205"/><text id="text5731" x="89.263" y="34.766" style="font-style:normal;font-weight:400;font-size:7.11387825px;line-height:1.25;font-family:sans-serif;letter-spacing:0;word-spacing:0;fill:#fff;fill-opacity:1;stroke:none;stroke-width:.37213695" xml:space="preserve"><tspan style="font-size:7.14656544px;fill:#fff;stroke-width:.37213695" id="tspan5729" x="89.263" y="34.766">Dialogue</tspan></text><path style="opacity:.1;fill:#000;fill-opacity:1;stroke:none;stroke-width:.5;stroke-miterlimit:4;stroke-dasharray:none;stroke-dashoffset:0;stroke-opacity:1;filter:url(#filter1477-7-7)" id="path5733" d="M 129.07887,32.794642 C 129.07887,38.448411 124.52728,43 118.87351,43 H 91.659223 c 0.177872,-2.459989 31.594707,0.946279 37.419647,-10.205358 z"/></g><path id="path6581" d="m 52.59773,119.19573 -6.60585,-6.70102 10e-6,13.40204 z" style="opacity:1;fill:#d4aa00;fill-opacity:1;stroke:#2b2200;stroke-width:.5;stroke-miterlimit:4;stroke-dasharray:none;stroke-dashoffset:0;stroke-opacity:1"/><path style="opacity:1;fill:#d4aa00;fill-opacity:1;stroke:#2b2200;stroke-width:.5;stroke-miterlimit:4;stroke-dasharray:none;stroke-dashoffset:0;stroke-opacity:1" id="path6583" d="m 63.181064,119.19573 -6.60585,-6.70102 10e-6,13.40204 z"/><rect id="rect1817-6-5" width="268.88" height="157.163" x="-21.396" y="41.362" ry="29.093" style="opacity:1;fill:none;fill-opacity:1;stroke:#000;stroke-width:.56444454;stroke-linecap:round;stroke-linejoin:round;stroke-miterlimit:4;stroke-dasharray:1.12888901,2.257778;stroke-dashoffset:0;stroke-opacity:1"/><g id="layer1-5" transform="translate(270.43405,-69.624845)"><circle id="path1476" cx="-29.128" cy="118.598" r="18.174" style="opacity:1;fill:#fff;fill-opacity:1;stroke:#000;stroke-width:.5;stroke-linecap:round;stroke-miterlimit:4;stroke-dasharray:none;stroke-opacity:1"/><g id="g2275" transform="matrix(0.80207931,0,0,0.80207931,-74.139422,96.215375)"><g aria-label="R" transform="rotate(-45)" style="font-style:normal;font-weight:400;font-size:41.37965775px;line-height:1.25;font-family:sans-serif;letter-spacing:0;word-spacing:0;fill:#000;fill-opacity:1;stroke:none;stroke-width:1.03449142" id="text817"><path d="M 31.509252,62.491941 31.16794,75.667305 H 30.83455 L 28.604505,65.027061 15.316738,59.73528 13.781121,75.667305 H 13.286086 L 11.528138,71.268365 10.110857,66.929543 9.526899,61.048002 6.9616279,56.651114 8.7144255,54.299084 6.356732,51.899807 8.2521138,50.246675 6.1006224,45.789404 9.891565,42.358563 c 2.435726,-1.492588 4.806268,-0.545105 7.30443,-1.317335 4.174203,-1.290327 7.29492,-1.792422 11.275957,5.059621 0.756691,1.302392 3.239334,1.578749 4.130578,3.198298 -0.882306,1.555823 -2.064327,2.923061 -3.546063,4.101714 -1.481735,1.171918 -3.152055,2.175457 -5.01096,3.010617 -1.852169,0.828425 -3.852512,1.535617 -6.001029,2.121576 z M 25.51612,48.388298 c -6.142518,4.42909 -6.341445,-0.106922 -8.663766,-3.716207 l -1.283048,13.860963 c 5.545523,-1.913183 8.340713,-6.051669 9.946814,-10.144756 z" style="font-style:normal;font-variant:normal;font-weight:400;font-stretch:normal;font-size:41.38083267px;font-family:'CC Adamantium';-inkscape-font-specification:'CC Adamantium, Normal';font-variant-ligatures:normal;font-variant-caps:normal;font-variant-numeric:normal;font-feature-settings:normal;text-align:start;writing-mode:lr-tb;text-anchor:start;stroke-width:1.03449142" id="path819"/></g><ellipse style="opacity:1;fill:#000;fill-opacity:1;stroke:none;stroke-width:1;stroke-opacity:1" id="path2115" cx="52.06" cy="21.86" rx=".334" ry=".935"/><ellipse id="ellipse2117" cx="18.873" cy="50.914" rx=".334" ry=".935" style="opacity:1;fill:#000;fill-opacity:1;stroke:none;stroke-width:1;stroke-opacity:1" transform="rotate(-45)"/><path style="fill:#000;stroke:none;stroke-width:.26458332px;stroke-linecap:butt;stroke-linejoin:miter;stroke-opacity:1" id="path2119" d="m 64.331743,23.950737 -0.788701,-2.167883 0.785662,-0.376444 0.715334,2.441702 z"/><path id="path2121" d="m 69.630908,29.701094 1.48309,-1.766977 0.718843,0.492181 -1.75691,1.840348 z" style="fill:#000;stroke:none;stroke-width:.26458332px;stroke-linecap:butt;stroke-linejoin:miter;stroke-opacity:1"/><path style="opacity:1;fill:#fff;fill-opacity:1;stroke:none;stroke-width:1;stroke-opacity:1" id="path2123" d="m 47.978861,19.145376 c -0.0362,0.284741 -0.632118,0.443544 -1.331028,0.354698 -0.698909,-0.08885 -1.236142,-0.391701 -1.199944,-0.676442 z"/><path id="path2126" d="m 49.344113,18.846496 c 0.224679,0.178626 0.762248,-0.123625 1.200693,-0.675116 0.438451,-0.55148 0.611752,-1.143345 0.387075,-1.321972 z" style="opacity:1;fill:#fff;fill-opacity:1;stroke:none;stroke-width:1;stroke-opacity:1"/><path style="opacity:1;fill:none;stroke:gray;stroke-width:.5;stroke-linecap:round;stroke-linejoin:miter;stroke-miterlimit:4;stroke-dasharray:none;stroke-opacity:1" id="path2128" d="m 43.707615,19.788656 8.68626,10.557147 c 2.944473,-4.699489 1.792375,-9.398979 -0.200452,-14.098468"/></g></g><text id="text1303-3-6" x="181.585" y="175.496" style="font-style:normal;font-weight:400;font-size:6.67770624px;line-height:1.25;font-family:sans-serif;letter-spacing:0;word-spacing:0;fill:#000;fill-opacity:1;stroke:none;stroke-width:.16694269" xml:space="preserve"><tspan style="font-style:normal;font-variant:normal;font-weight:400;font-stretch:normal;font-family:monospace;-inkscape-font-specification:monospace;text-align:center;text-anchor:middle;stroke-width:.16694269" id="tspan7439" x="181.585" y="175.496">detected</tspan></text><path id="path2853-7" d="m 214.43073,137.96182 0.0996,42.40819 h -67.40748" style="fill:none;fill-rule:evenodd;stroke:#00d4aa;stroke-width:1.69300008;stroke-linecap:butt;stroke-linejoin:miter;stroke-miterlimit:4;stroke-dasharray:3.38600006,1.69300003;stroke-dashoffset:0;stroke-opacity:1;marker-start:url(#marker2857-1)"/><path style="fill:none;fill-rule:evenodd;stroke:#37abc8;stroke-width:1.69300008;stroke-linecap:butt;stroke-linejoin:miter;stroke-miterlimit:4;stroke-dasharray:3.38600006,1.69300003;stroke-dashoffset:0;stroke-opacity:1;marker-start:url(#marker8118)" id="path8114" d="m 152.41593,59.05124 61.98736,-0.0996 v 44.65331"/><text xml:space="preserve" style="font-style:normal;font-weight:400;font-size:6.67770624px;line-height:1.25;font-family:sans-serif;letter-spacing:0;word-spacing:0;fill:#000;fill-opacity:1;stroke:none;stroke-width:.16694269" id="text8716" x="186.272" y="53.788"><tspan id="tspan8714" x="186.272" y="53.788" style="font-style:normal;font-variant:normal;font-weight:400;font-stretch:normal;font-family:monospace;-inkscape-font-specification:monospace;text-align:center;text-anchor:middle;stroke-width:.16694269">startListening</tspan></text><g id="g8740" transform="translate(10.915597,67.429323)"><circle style="opacity:1;fill:#fff;fill-opacity:1;stroke:#000;stroke-width:.5;stroke-linecap:round;stroke-miterlimit:4;stroke-dasharray:none;stroke-opacity:1" id="circle8718" cx="-29.128" cy="118.598" r="18.174"/><g id="g8738" transform="matrix(0.80207931,0,0,0.80207931,-74.139422,96.215375)"><g id="g8722" style="font-style:normal;font-weight:400;font-size:41.37965775px;line-height:1.25;font-family:sans-serif;letter-spacing:0;word-spacing:0;fill:#000;fill-opacity:1;stroke:none;stroke-width:1.03449142" aria-label="R" transform="rotate(-45)"><path id="path8720" style="font-style:normal;font-variant:normal;font-weight:400;font-stretch:normal;font-size:41.38083267px;font-family:'CC Adamantium';-inkscape-font-specification:'CC Adamantium, Normal';font-variant-ligatures:normal;font-variant-caps:normal;font-variant-numeric:normal;font-feature-settings:normal;text-align:start;writing-mode:lr-tb;text-anchor:start;stroke-width:1.03449142" d="M 31.509252,62.491941 31.16794,75.667305 H 30.83455 L 28.604505,65.027061 15.316738,59.73528 13.781121,75.667305 H 13.286086 L 11.528138,71.268365 10.110857,66.929543 9.526899,61.048002 6.9616279,56.651114 8.7144255,54.299084 6.356732,51.899807 8.2521138,50.246675 6.1006224,45.789404 9.891565,42.358563 c 2.435726,-1.492588 4.806268,-0.545105 7.30443,-1.317335 4.174203,-1.290327 7.29492,-1.792422 11.275957,5.059621 0.756691,1.302392 3.239334,1.578749 4.130578,3.198298 -0.882306,1.555823 -2.064327,2.923061 -3.546063,4.101714 -1.481735,1.171918 -3.152055,2.175457 -5.01096,3.010617 -1.852169,0.828425 -3.852512,1.535617 -6.001029,2.121576 z M 25.51612,48.388298 c -6.142518,4.42909 -6.341445,-0.106922 -8.663766,-3.716207 l -1.283048,13.860963 c 5.545523,-1.913183 8.340713,-6.051669 9.946814,-10.144756 z"/></g><ellipse id="ellipse8724" cx="52.06" cy="21.86" rx=".334" ry=".935" style="opacity:1;fill:#000;fill-opacity:1;stroke:none;stroke-width:1;stroke-opacity:1"/><ellipse transform="rotate(-45)" style="opacity:1;fill:#000;fill-opacity:1;stroke:none;stroke-width:1;stroke-opacity:1" id="ellipse8726" cx="18.873" cy="50.914" rx=".334" ry=".935"/><path id="path8728" d="m 64.331743,23.950737 -0.788701,-2.167883 0.785662,-0.376444 0.715334,2.441702 z" style="fill:#000;stroke:none;stroke-width:.26458332px;stroke-linecap:butt;stroke-linejoin:miter;stroke-opacity:1"/><path style="fill:#000;stroke:none;stroke-width:.26458332px;stroke-linecap:butt;stroke-linejoin:miter;stroke-opacity:1" id="path8730" d="m 69.630908,29.701094 1.48309,-1.766977 0.718843,0.492181 -1.75691,1.840348 z"/><path id="path8732" d="m 47.978861,19.145376 c -0.0362,0.284741 -0.632118,0.443544 -1.331028,0.354698 -0.698909,-0.08885 -1.236142,-0.391701 -1.199944,-0.676442 z" style="opacity:1;fill:#fff;fill-opacity:1;stroke:none;stroke-width:1;stroke-opacity:1"/><path style="opacity:1;fill:#fff;fill-opacity:1;stroke:none;stroke-width:1;stroke-opacity:1" id="path8734" d="m 49.344113,18.846496 c 0.224679,0.178626 0.762248,-0.123625 1.200693,-0.675116 0.438451,-0.55148 0.611752,-1.143345 0.387075,-1.321972 z"/><path id="path8736" d="m 43.707615,19.788656 8.68626,10.557147 c 2.944473,-4.699489 1.792375,-9.398979 -0.200452,-14.098468" style="opacity:1;fill:none;stroke:gray;stroke-width:.5;stroke-linecap:round;stroke-linejoin:miter;stroke-miterlimit:4;stroke-dasharray:none;stroke-opacity:1"/></g></g><text xml:space="preserve" style="font-style:normal;font-weight:400;font-size:4.58473921px;line-height:0%;font-family:sans-serif;letter-spacing:0;word-spacing:0;fill:#666;fill-opacity:1;stroke:none;stroke-width:.31530651px;stroke-linecap:butt;stroke-linejoin:miter;stroke-opacity:1" id="text4213-6-2-6" x="112.542" y="32.958"><tspan x="112.542" y="32.958" style="font-weight:700;font-size:11.54158306px;line-height:1.25;text-align:center;text-anchor:middle;fill:#000;fill-opacity:1;stroke-width:.31530651px" id="tspan5391-6">Internal MQTT</tspan></text></g></svg>