<svg xmlns="http://www.w3.org/2000/svg" xmlns:svg="http://www.w3.org/2000/svg" xmlns:xlink="http://www.w3.org/1999/xlink" id="svg1561" width="225.943" height="211.926" version="1.1" viewBox="0 0 59.781 56.072"><defs id="defs1555"><radialGradient id="radialGradient6386" cx="23.857" cy="40" r="17.143" fx="23.857" fy="40" gradientTransform="matrix(1,0,0,0.5,0,20)" gradientUnits="userSpaceOnUse" xlink:href="#linearGradient4114"/><linearGradient id="linearGradient4114"><stop id="stop4116" offset="0" style="stop-color:#000;stop-opacity:1"/><stop id="stop4118" offset="1" style="stop-color:#000;stop-opacity:0"/></linearGradient><radialGradient id="radialGradient3968" cx="18.248" cy="15.716" r="29.993" fx="18.248" fy="15.716" gradientTransform="matrix(1.0056311,0,0,1.0056304,-1.7078855,0.3818364)" gradientUnits="userSpaceOnUse" xlink:href="#linearGradient3962"/><linearGradient id="linearGradient3962"><stop id="stop3964" offset="0" style="stop-color:#d3e9ff;stop-opacity:1"/><stop id="stop4134" offset=".155" style="stop-color:#d3e9ff;stop-opacity:1"/><stop id="stop4346" offset=".75" style="stop-color:#4074ae;stop-opacity:1"/><stop id="stop3966" offset="1" style="stop-color:#36486c;stop-opacity:1"/></linearGradient><radialGradient id="radialGradient6533" cx="37.179" cy="31.097" r="19.094" fx="37.179" fy="31.097" gradientTransform="matrix(0.95295618,-0.02665615,0.02617771,0.93591558,0.66318174,2.1792646)" gradientUnits="userSpaceOnUse" xlink:href="#linearGradient6527"/><linearGradient id="linearGradient6527"><stop id="stop6529" offset="0" style="stop-color:#346604;stop-opacity:1"/><stop id="stop6531" offset="1" style="stop-color:#4e9a06;stop-opacity:1"/></linearGradient><radialGradient id="radialGradient6409" cx="37.179" cy="31.097" r="19.094" fx="37.179" fy="31.097" gradientTransform="matrix(0.95295618,-0.02665615,0.02617771,0.93591558,0.66318174,2.1792646)" gradientUnits="userSpaceOnUse" xlink:href="#linearGradient6527"/><radialGradient id="radialGradient6407" cx="37.179" cy="31.097" r="19.094" fx="37.179" fy="31.097" gradientTransform="matrix(0.95295618,-0.02665615,0.02617771,0.93591558,0.66318174,2.1792646)" gradientUnits="userSpaceOnUse" xlink:href="#linearGradient6527"/><radialGradient id="radialGradient6405" cx="37.179" cy="31.097" r="19.094" fx="37.179" fy="31.097" gradientTransform="matrix(0.95295618,-0.02665615,0.02617771,0.93591558,0.66318174,2.1792646)" gradientUnits="userSpaceOnUse" xlink:href="#linearGradient6527"/><radialGradient id="radialGradient6415" cx="37.179" cy="31.097" r="19.094" fx="37.179" fy="31.097" gradientTransform="matrix(0.95295618,-0.02665615,0.02617771,0.93591558,0.66318174,2.1792646)" gradientUnits="userSpaceOnUse" xlink:href="#linearGradient6527"/><radialGradient id="radialGradient6413" cx="37.179" cy="31.097" r="19.094" fx="37.179" fy="31.097" gradientTransform="matrix(0.95295618,-0.02665615,0.02617771,0.93591558,0.66318174,2.1792646)" gradientUnits="userSpaceOnUse" xlink:href="#linearGradient6527"/><radialGradient id="radialGradient6411" cx="37.179" cy="31.097" r="19.094" fx="37.179" fy="31.097" gradientTransform="matrix(0.95295618,-0.02665615,0.02617771,0.93591558,0.66318174,2.1792646)" gradientUnits="userSpaceOnUse" xlink:href="#linearGradient6527"/><radialGradient id="radialGradient6421" cx="37.179" cy="31.097" r="19.094" fx="37.179" fy="31.097" gradientTransform="matrix(0.95295618,-0.02665615,0.02617771,0.93591558,0.66318174,2.1792646)" gradientUnits="userSpaceOnUse" xlink:href="#linearGradient6527"/><radialGradient id="radialGradient6419" cx="37.179" cy="31.097" r="19.094" fx="37.179" fy="31.097" gradientTransform="matrix(0.95295618,-0.02665615,0.02617771,0.93591558,0.66318174,2.1792646)" gradientUnits="userSpaceOnUse" xlink:href="#linearGradient6527"/><radialGradient id="radialGradient6417" cx="37.179" cy="31.097" r="19.094" fx="37.179" fy="31.097" gradientTransform="matrix(0.95295618,-0.02665615,0.02617771,0.93591558,0.66318174,2.1792646)" gradientUnits="userSpaceOnUse" xlink:href="#linearGradient6527"/><radialGradient id="radialGradient6427" cx="37.179" cy="31.097" r="19.094" fx="37.179" fy="31.097" gradientTransform="matrix(0.95295618,-0.02665615,0.02617771,0.93591558,0.66318174,2.1792646)" gradientUnits="userSpaceOnUse" xlink:href="#linearGradient6527"/><radialGradient id="radialGradient6425" cx="37.179" cy="31.097" r="19.094" fx="37.179" fy="31.097" gradientTransform="matrix(0.95295618,-0.02665615,0.02617771,0.93591558,0.66318174,2.1792646)" gradientUnits="userSpaceOnUse" xlink:href="#linearGradient6527"/><radialGradient id="radialGradient6423" cx="37.179" cy="31.097" r="19.094" fx="37.179" fy="31.097" gradientTransform="matrix(0.95295618,-0.02665615,0.02617771,0.93591558,0.66318174,2.1792646)" gradientUnits="userSpaceOnUse" xlink:href="#linearGradient6527"/><radialGradient id="radialGradient6433" cx="37.179" cy="31.097" r="19.094" fx="37.179" fy="31.097" gradientTransform="matrix(0.95295618,-0.02665615,0.02617771,0.93591558,0.66318174,2.1792646)" gradientUnits="userSpaceOnUse" xlink:href="#linearGradient6527"/><radialGradient id="radialGradient6431" cx="37.179" cy="31.097" r="19.094" fx="37.179" fy="31.097" gradientTransform="matrix(0.95295618,-0.02665615,0.02617771,0.93591558,0.66318174,2.1792646)" gradientUnits="userSpaceOnUse" xlink:href="#linearGradient6527"/><radialGradient id="radialGradient6429" cx="37.179" cy="31.097" r="19.094" fx="37.179" fy="31.097" gradientTransform="matrix(0.95295618,-0.02665615,0.02617771,0.93591558,0.66318174,2.1792646)" gradientUnits="userSpaceOnUse" xlink:href="#linearGradient6527"/><radialGradient id="radialGradient6439" cx="37.179" cy="31.097" r="19.094" fx="37.179" fy="31.097" gradientTransform="matrix(0.95295618,-0.02665615,0.02617771,0.93591558,0.66318174,2.1792646)" gradientUnits="userSpaceOnUse" xlink:href="#linearGradient6527"/><radialGradient id="radialGradient6437" cx="37.179" cy="31.097" r="19.094" fx="37.179" fy="31.097" gradientTransform="matrix(0.95295618,-0.02665615,0.02617771,0.93591558,0.66318174,2.1792646)" gradientUnits="userSpaceOnUse" xlink:href="#linearGradient6527"/><radialGradient id="radialGradient6435" cx="37.179" cy="31.097" r="19.094" fx="37.179" fy="31.097" gradientTransform="matrix(0.95295618,-0.02665615,0.02617771,0.93591558,0.66318174,2.1792646)" gradientUnits="userSpaceOnUse" xlink:href="#linearGradient6527"/><radialGradient id="radialGradient6445" cx="37.179" cy="31.097" r="19.094" fx="37.179" fy="31.097" gradientTransform="matrix(0.95295618,-0.02665615,0.02617771,0.93591558,0.66318174,2.1792646)" gradientUnits="userSpaceOnUse" xlink:href="#linearGradient6527"/><radialGradient id="radialGradient6443" cx="37.179" cy="31.097" r="19.094" fx="37.179" fy="31.097" gradientTransform="matrix(0.95295618,-0.02665615,0.02617771,0.93591558,0.66318174,2.1792646)" gradientUnits="userSpaceOnUse" xlink:href="#linearGradient6527"/><radialGradient id="radialGradient6441" cx="37.179" cy="31.097" r="19.094" fx="37.179" fy="31.097" gradientTransform="matrix(0.95295618,-0.02665615,0.02617771,0.93591558,0.66318174,2.1792646)" gradientUnits="userSpaceOnUse" xlink:href="#linearGradient6527"/><radialGradient id="radialGradient6451" cx="37.179" cy="31.097" r="19.094" fx="37.179" fy="31.097" gradientTransform="matrix(0.95295618,-0.02665615,0.02617771,0.93591558,0.66318174,2.1792646)" gradientUnits="userSpaceOnUse" xlink:href="#linearGradient6527"/><radialGradient id="radialGradient6449" cx="37.179" cy="31.097" r="19.094" fx="37.179" fy="31.097" gradientTransform="matrix(0.95295618,-0.02665615,0.02617771,0.93591558,0.66318174,2.1792646)" gradientUnits="userSpaceOnUse" xlink:href="#linearGradient6527"/><radialGradient id="radialGradient6447" cx="37.179" cy="31.097" r="19.094" fx="37.179" fy="31.097" gradientTransform="matrix(0.95295618,-0.02665615,0.02617771,0.93591558,0.66318174,2.1792646)" gradientUnits="userSpaceOnUse" xlink:href="#linearGradient6527"/><radialGradient id="radialGradient6461" cx="37.179" cy="31.097" r="19.094" fx="37.179" fy="31.097" gradientTransform="matrix(0.95295618,-0.02665615,0.02617771,0.93591558,0.66318174,2.1792646)" gradientUnits="userSpaceOnUse" xlink:href="#linearGradient6527"/><radialGradient id="radialGradient6455" cx="37.179" cy="31.097" r="19.094" fx="37.179" fy="31.097" gradientTransform="matrix(0.95295618,-0.02665615,0.02617771,0.93591558,0.66318174,2.1792646)" gradientUnits="userSpaceOnUse" xlink:href="#linearGradient6527"/><radialGradient id="radialGradient6453" cx="37.179" cy="31.097" r="19.094" fx="37.179" fy="31.097" gradientTransform="matrix(0.95295618,-0.02665615,0.02617771,0.93591558,0.66318174,2.1792646)" gradientUnits="userSpaceOnUse" xlink:href="#linearGradient6527"/><radialGradient id="radialGradient6459" cx="37.179" cy="31.097" r="19.094" fx="37.179" fy="31.097" gradientTransform="matrix(0.95295618,-0.02665615,0.02617771,0.93591558,0.66318174,2.1792646)" gradientUnits="userSpaceOnUse" xlink:href="#linearGradient6527"/><radialGradient id="radialGradient6457" cx="37.179" cy="31.097" r="19.094" fx="37.179" fy="31.097" gradientTransform="matrix(0.95295618,-0.02665615,0.02617771,0.93591558,0.66318174,2.1792646)" gradientUnits="userSpaceOnUse" xlink:href="#linearGradient6527"/><radialGradient id="radialGradient6471" cx="37.179" cy="31.097" r="19.094" fx="37.179" fy="31.097" gradientTransform="matrix(0.95295618,-0.02665615,0.02617771,0.93591558,0.66318174,2.1792646)" gradientUnits="userSpaceOnUse" xlink:href="#linearGradient6527"/><radialGradient id="radialGradient6465" cx="37.179" cy="31.097" r="19.094" fx="37.179" fy="31.097" gradientTransform="matrix(0.95295618,-0.02665615,0.02617771,0.93591558,0.66318174,2.1792646)" gradientUnits="userSpaceOnUse" xlink:href="#linearGradient6527"/><radialGradient id="radialGradient6463" cx="37.179" cy="31.097" r="19.094" fx="37.179" fy="31.097" gradientTransform="matrix(0.95295618,-0.02665615,0.02617771,0.93591558,0.66318174,2.1792646)" gradientUnits="userSpaceOnUse" xlink:href="#linearGradient6527"/><radialGradient id="radialGradient6469" cx="37.179" cy="31.097" r="19.094" fx="37.179" fy="31.097" gradientTransform="matrix(0.95295618,-0.02665615,0.02617771,0.93591558,0.66318174,2.1792646)" gradientUnits="userSpaceOnUse" xlink:href="#linearGradient6527"/><radialGradient id="radialGradient6467" cx="37.179" cy="31.097" r="19.094" fx="37.179" fy="31.097" gradientTransform="matrix(0.95295618,-0.02665615,0.02617771,0.93591558,0.66318174,2.1792646)" gradientUnits="userSpaceOnUse" xlink:href="#linearGradient6527"/><radialGradient id="radialGradient6477" cx="37.179" cy="31.097" r="19.094" fx="37.179" fy="31.097" gradientTransform="matrix(0.95295618,-0.02665615,0.02617771,0.93591558,0.66318174,2.1792646)" gradientUnits="userSpaceOnUse" xlink:href="#linearGradient6527"/><radialGradient id="radialGradient6475" cx="37.179" cy="31.097" r="19.094" fx="37.179" fy="31.097" gradientTransform="matrix(0.95295618,-0.02665615,0.02617771,0.93591558,0.66318174,2.1792646)" gradientUnits="userSpaceOnUse" xlink:href="#linearGradient6527"/><radialGradient id="radialGradient6473" cx="37.179" cy="31.097" r="19.094" fx="37.179" fy="31.097" gradientTransform="matrix(0.95295618,-0.02665615,0.02617771,0.93591558,0.66318174,2.1792646)" gradientUnits="userSpaceOnUse" xlink:href="#linearGradient6527"/><radialGradient id="radialGradient6483" cx="37.179" cy="31.097" r="19.094" fx="37.179" fy="31.097" gradientTransform="matrix(0.95295618,-0.02665615,0.02617771,0.93591558,0.66318174,2.1792646)" gradientUnits="userSpaceOnUse" xlink:href="#linearGradient6527"/><radialGradient id="radialGradient6481" cx="37.179" cy="31.097" r="19.094" fx="37.179" fy="31.097" gradientTransform="matrix(0.95295618,-0.02665615,0.02617771,0.93591558,0.66318174,2.1792646)" gradientUnits="userSpaceOnUse" xlink:href="#linearGradient6527"/><radialGradient id="radialGradient6479" cx="37.179" cy="31.097" r="19.094" fx="37.179" fy="31.097" gradientTransform="matrix(0.95295618,-0.02665615,0.02617771,0.93591558,0.66318174,2.1792646)" gradientUnits="userSpaceOnUse" xlink:href="#linearGradient6527"/><radialGradient id="radialGradient4132" cx="15.601" cy="12.142" r="43.527" fx="15.601" fy="12.142" gradientTransform="matrix(0.94736085,0.33734451,-0.33734428,0.94736022,7.4989626,-6.3762748)" gradientUnits="userSpaceOnUse" xlink:href="#linearGradient4126"/><linearGradient id="linearGradient4126"><stop id="stop4128" offset="0" style="stop-color:#fff;stop-opacity:1"/><stop id="stop4130" offset="1" style="stop-color:#fff;stop-opacity:.16494845"/></linearGradient><clipPath id="clipPath3975" clipPathUnits="userSpaceOnUse"><path style="opacity:.25;fill:#000;fill-opacity:1;stroke:none" id="path3977" d="m 611.64249,7.8992801 h 191.1039 L 756.75244,59.870055 709.74395,90.982524 h -98.10146 z"/></clipPath><linearGradient id="linearGradient3980" x1="706.091" x2="698.608" y1="83.87" y2="65.886" gradientTransform="matrix(1.3761905,0,0,1.2699375,-285.34047,-60.591969)" gradientUnits="userSpaceOnUse" xlink:href="#linearGradient6001"/><linearGradient id="linearGradient6001"><stop id="stop6003" offset="0" style="stop-color:#fff;stop-opacity:1"/><stop id="stop6005" offset="1" style="stop-color:#fff;stop-opacity:0"/></linearGradient><filter style="color-interpolation-filters:sRGB" id="filter3996"><feGaussianBlur id="feGaussianBlur3998" result="result91" stdDeviation="5"/><feComposite id="feComposite4000" in="SourceGraphic" in2="result91" operator="over"/></filter><linearGradient id="linearGradient2422" x1="137.978" x2="137.911" y1="248.457" y2="249.927" gradientTransform="matrix(0.45560812,0,0,1,73.739849,0.52916663)" gradientUnits="userSpaceOnUse" xlink:href="#linearGradient2420"/><linearGradient id="linearGradient2420"><stop style="stop-color:#55d400;stop-opacity:1" id="stop2416" offset="0"/><stop style="stop-color:#fff;stop-opacity:0" id="stop2418" offset="1"/></linearGradient><linearGradient id="linearGradient2427" x1="137.978" x2="137.911" y1="248.457" y2="249.927" gradientTransform="matrix(0.45560812,0,0,1,76.527425,0.52916663)" gradientUnits="userSpaceOnUse" xlink:href="#linearGradient2433"/><linearGradient id="linearGradient2433"><stop id="stop2429" offset="0" style="stop-color:#06f;stop-opacity:1"/><stop id="stop2431" offset="1" style="stop-color:#fff;stop-opacity:0"/></linearGradient><linearGradient id="linearGradient2437" x1="137.978" x2="137.911" y1="248.457" y2="249.927" gradientTransform="matrix(0.45560812,0,0,1,70.928649,0.52916663)" gradientUnits="userSpaceOnUse" xlink:href="#linearGradient2443"/><linearGradient id="linearGradient2443"><stop id="stop2439" offset="0" style="stop-color:#fd5;stop-opacity:1"/><stop id="stop2441" offset="1" style="stop-color:#fff;stop-opacity:0"/></linearGradient><linearGradient id="linearGradient2447" x1="137.978" x2="137.911" y1="248.457" y2="249.927" gradientTransform="matrix(0.45560812,0,0,1,68.282817,0.52916663)" gradientUnits="userSpaceOnUse" xlink:href="#linearGradient2453"/><linearGradient id="linearGradient2453"><stop style="stop-color:#f60;stop-opacity:1" id="stop2449" offset="0"/><stop style="stop-color:#fff;stop-opacity:0" id="stop2451" offset="1"/></linearGradient><linearGradient id="linearGradient2459" x1="137.978" x2="137.911" y1="248.457" y2="249.927" gradientTransform="matrix(0.45560812,0,0,1,65.636985,0.52916663)" gradientUnits="userSpaceOnUse" xlink:href="#linearGradient2465"/><linearGradient id="linearGradient2465"><stop id="stop2461" offset="0" style="stop-color:#d40000;stop-opacity:1"/><stop id="stop2463" offset="1" style="stop-color:#fff;stop-opacity:0"/></linearGradient></defs><metadata id="metadata1558"/><g id="layer1" transform="translate(-261.90724,-284.83902)"><g id="g2540" transform="translate(135.0151,60.379626)"><g id="layer1-3" transform="matrix(0.95181277,0,0,0.95181277,128.17924,234.84434)"><ellipse id="path6548" cx="23.857" cy="40" rx="17.143" ry="8.571" transform="matrix(1.070555,0,0,0.525,-1.5403842,22.5)" style="color:#000;display:block;overflow:visible;visibility:visible;opacity:.6;fill:url(#radialGradient6386);fill-opacity:1;fill-rule:nonzero;stroke:none;stroke-width:1;marker:none"/><path style="fill:url(#radialGradient3968);fill-opacity:1;fill-rule:nonzero;stroke:#6161ac;stroke-width:.26265669;stroke-miterlimit:4;stroke-opacity:1" id="path3214" d="m 42.499998,23.999308 c 0,10.769899 -8.731089,19.50069 -19.499752,19.50069 -10.76965,0 -19.5002462,-8.73089 -19.5002462,-19.50069 C 3.4999998,13.229902 12.230596,4.5 23.000246,4.5 c 10.768663,0 19.499752,8.729902 19.499752,19.499308 z"/><g id="g4136" style="fill:url(#radialGradient6533);fill-opacity:1;fill-rule:nonzero;stroke:none" transform="matrix(0.98791378,0,0,0.98789128,-1.5861235,0.6160591)"><g id="g4138" style="fill:url(#radialGradient6409);fill-opacity:1"><g id="g4142" style="fill:url(#radialGradient6407);fill-opacity:1"><path id="path4144" d="M 43.879656,20.648284 43.5264,21.3316 c -0.334,-0.3936 -0.709,-0.7246 -1.0898,-1.0703 l -0.8359,0.123 -0.7637,-0.8633 v 1.0684 l 0.6543,0.4951 0.4355,0.4932 0.582,-0.6582 c 0.1465,0.2744 0.291,0.5488 0.4365,0.8232 v 0.8223 l -0.6553,0.7402 -1.1992,0.8232 -0.9082,0.9063 -0.582,-0.6602 0.291,-0.7402 -0.5811,-0.6582 -0.9814,-2.0977 -0.8359,-0.9453 -0.2188,0.2461 0.3281,1.1934 0.6172,0.6992 c 0.3525,1.0176 0.7012,1.9902 1.1641,2.9629 0.7178,0 1.3945,-0.0762 2.1074,-0.166 v 0.5762 l -0.8721,2.1392 -0.7998,0.9043 -0.6543,1.4004 c 0,0.7676 0,1.5352 0,2.3027 l 0.2188,0.9063 -0.3633,0.4102 -0.8008,0.4941 -0.8359,0.6992 0.6914,0.7813 -0.9453,0.8242 0.1816,0.5332 -1.418,1.6055 h -0.9443 l -0.7998,0.4941 H 33.6396 V 38.2814 L 33.4228,36.963 c -0.2813,-0.8262 -0.5742,-1.6465 -0.8721,-2.4668 0,-0.6055 0.0361,-1.2051 0.0723,-1.8105 l 0.3643,-0.8223 -0.5098,-0.9883 0.0371,-1.3574 -0.6914,-0.7813 0.3457,-1.1309 -0.5625,-0.6382 H 30.624 l -0.3271,-0.3701 -0.9814,0.6177 -0.3994,-0.4536 -0.9092,0.7817 c -0.6172,-0.6997 -1.2354,-1.3989 -1.8535,-2.0981 l -0.7266,-1.7285 0.6543,-0.9863 -0.3633,-0.4111 0.7988,-1.8936 c 0.6563,-0.8164 1.3418,-1.5996 2.0352,-2.3857 l 1.2363,-0.3291 1.3809,-0.1641 0.9453,0.2471 1.3447,1.3564 0.4727,-0.5342 0.6533,-0.082 1.2363,0.4111 h 0.9453 l 0.6543,-0.5762 0.291,-0.4111 -0.6553,-0.4111 -1.0908,-0.082 c -0.3027,-0.4199 -0.584,-0.8613 -0.9434,-1.2344 l -0.3643,0.1641 -0.1455,1.0703 -0.6543,-0.7402 -0.1445,-0.8242 -0.7266,-0.5742 h -0.292 l 0.7275,0.8223 -0.291,0.7402 -0.5811,0.1641 0.3633,-0.7402 -0.6553,-0.3281 -0.5801,-0.6582 -1.0918,0.2461 -0.1445,0.3281 -0.6543,0.4121 -0.3633,0.9053 -0.9082,0.4521 -0.4004,-0.4521 h -0.4355 v -1.4814 l 0.9453,-0.4941 h 0.7266 l -0.1465,-0.5752 -0.5801,-0.5762 0.9805,-0.2061 0.5449,-0.6162 0.4355,-0.7412 h 0.8008 l -0.2188,-0.5752 0.5098,-0.3291 v 0.6582 l 1.0898,0.2461 1.0898,-0.9043 0.0732,-0.4121 0.9443,-0.6577 c -0.3418,0.0425 -0.6836,0.0737 -1.0176,0.1646 V 9.9766 L 34.2213,9.1538 H 33.858 l -0.7984,0.7402 -0.2188,0.4116 0.2188,0.5767 -0.3643,0.9863 -0.5811,-0.3291 -0.5078,-0.5752 -0.8008,0.5752 -0.291,-1.3159 1.3809,-0.9048 V 8.8247 l 0.873,-0.5757 1.3809,-0.3296 0.9453,0.3296 1.7441,0.3291 -0.4355,0.4932 H 35.458 l 0.9453,0.9873 0.7266,-0.8223 0.157078,-0.282273 c 3.129549,2.868759 5.87898,6.664564 6.592678,11.694257 z" style="fill:url(#radialGradient6405);fill-opacity:1"/></g></g><g id="g4146" style="fill:url(#radialGradient6415);fill-opacity:1"><g id="g4150" style="fill:url(#radialGradient6413);fill-opacity:1"><path id="path4152" d="m 26.0703,9.2363 -0.0732,0.4932 0.5098,0.3291 0.8711,-0.5757 -0.4355,-0.4937 -0.582,0.3296 -0.29,-0.0825" style="fill:url(#radialGradient6411);fill-opacity:1"/></g></g><g id="g4154" style="fill:url(#radialGradient6421);fill-opacity:1"><g id="g4158" style="fill:url(#radialGradient6419);fill-opacity:1"><path id="path4160" d="m 26.8701,5.8633 -1.8906,-0.7407 -2.1797,0.2466 -2.6904,0.7402 -0.5088,0.4941 1.6719,1.1514 v 0.6582 l -0.6543,0.6582 0.873,1.729 0.5801,-0.3301 0.7285,-1.1514 c 1.123,-0.3472 2.1299,-0.7407 3.1973,-1.2344 l 0.873,-2.2212" style="fill:url(#radialGradient6417);fill-opacity:1"/></g></g><g id="g4162" style="fill:url(#radialGradient6427);fill-opacity:1"><g id="g4166" style="fill:url(#radialGradient6425);fill-opacity:1"><path id="path4168" d="m 28.833,12.7749 -0.291,-0.7412 -0.5098,0.165 0.1465,0.9043 0.6543,-0.3281" style="fill:url(#radialGradient6423);fill-opacity:1"/></g></g><g id="g4170" style="fill:url(#radialGradient6433);fill-opacity:1"><g id="g4174" style="fill:url(#radialGradient6431);fill-opacity:1"><path id="path4176" d="m 29.123,12.6089 -0.1455,0.9883 0.7998,-0.165 0.5811,-0.5752 -0.5088,-0.4941 C 29.6787,11.9078 29.4824,11.483 29.2685,11.0465 H 28.833 v 0.4932 l 0.29,0.3291 v 0.7402" style="fill:url(#radialGradient6429);fill-opacity:1"/></g></g><g id="g4178" style="fill:url(#radialGradient6439);fill-opacity:1"><g id="g4182" style="fill:url(#radialGradient6437);fill-opacity:1"><path id="path4184" d="m 18.3652,28.2422 -0.582,-1.1523 -1.0903,-0.2466 -0.5815,-1.5625 -1.4536,0.1641 -1.2354,-0.9043 -1.3091,1.1514 v 0.1816 c -0.396,-0.1143 -0.8828,-0.1299 -1.2354,-0.3467 l -0.291,-0.8223 v -0.9053 l -0.8721,0.082 c 0.0728,-0.5762 0.145,-1.1514 0.2183,-1.7275 H 9.4238 L 8.9155,22.812 8.4062,23.0581 7.6791,22.6479 7.6063,21.7426 7.7518,20.7553 8.8426,19.933 h 0.8721 l 0.145,-0.4941 1.0903,0.2461 0.7998,0.9883 0.1455,-1.6465 1.3813,-1.1514 0.5088,-1.2344 1.0176,-0.4111 0.5815,-0.8223 1.3081,-0.248 0.6548,-0.9863 c -0.6543,0 -1.3086,0 -1.9629,0 l 1.2358,-0.5762 h 0.8716 l 1.2363,-0.4121 0.1455,-0.4922 -0.4365,-0.4121 -0.5088,-0.165 0.1455,-0.4932 -0.3633,-0.7402 -0.8726,0.3281 0.1455,-0.6577 -1.0176,-0.5762 -0.7993,1.3979 0.0723,0.4941 -0.7993,0.3301 -0.5093,1.0693 -0.2178,-0.9873 -1.3813,-0.5762 -0.2183,-0.7402 1.8174,-1.0703 0.7998,-0.7402 0.0728,-0.9048 -0.436,-0.2471 -0.5815,-0.0825 -0.3633,0.9053 c 0,0 -0.703332,0.055478 -0.859632,0.094078 C 9.9867169,11.059151 6.5013568,14.983265 5.6916,22.2885 c 0.0371,0.1738 0.6792,1.1816 0.6792,1.1816 l 1.5264,0.9043 1.5264,0.4121 0.6548,0.8232 1.0171,0.7402 0.5815,-0.082 0.436,0.1963 v 0.1328 l -0.5811,1.563 -0.4365,0.6582 0.1455,0.3301 -0.3633,1.2324 1.3086,2.3867 1.3081,1.1523 0.582,0.8223 -0.0732,1.7285 0.4365,0.9863 -0.4365,1.8926 c 0,0 -0.0342,-0.0117 0.0215,0.1777 0.0562,0.1895 2.3291,1.4512 2.4736,1.3438 0.144,-0.1094 0.2671,-0.2051 0.2671,-0.2051 l -0.145,-0.4102 0.5811,-0.5762 0.2183,-0.5762 0.9453,-0.3301 0.7266,-1.8105 -0.2178,-0.4922 0.5078,-0.7402 1.0908,-0.248 0.582,-1.3164 -0.1455,-1.6445 0.8721,-1.2344 0.1455,-1.2344 C 20.7331,29.4607 19.5495,28.8513 18.365,28.242" style="fill:url(#radialGradient6435);fill-opacity:1"/></g></g><g id="g4186" style="fill:url(#radialGradient6445);fill-opacity:1"><g id="g4190" style="fill:url(#radialGradient6443);fill-opacity:1"><path id="path4192" d="m 16.7656,9.5649 0.7266,0.4937 h 0.582 V 9.4829 l -0.7266,-0.3291 -0.582,0.4111" style="fill:url(#radialGradient6441);fill-opacity:1"/></g></g><g id="g4194" style="fill:url(#radialGradient6451);fill-opacity:1"><g id="g4198" style="fill:url(#radialGradient6449);fill-opacity:1"><path id="path4200" d="M 14.876,8.9072 14.5122,9.812 h 0.7271 L 15.6031,8.9892 C 15.9166,8.7675 16.2286,8.5444 16.5479,8.331 l 0.7271,0.2471 c 0.4844,0.3291 0.9688,0.6582 1.4536,0.9868 L 19.4561,8.9072 18.6558,8.5781 18.292,7.8374 16.9111,7.6728 16.8383,7.2612 16.184,7.4262 15.8936,8.002 15.5298,7.2613 l -0.145,0.3291 0.0728,0.8228 -0.5816,0.494" style="fill:url(#radialGradient6447);fill-opacity:1"/></g></g><g id="g4202" style="fill:url(#radialGradient6461);fill-opacity:1"><g style="opacity:.75;fill:url(#radialGradient6455);fill-opacity:1" id="g4204"><path id="path4206" style="fill:url(#radialGradient6453);fill-opacity:1"/></g><g id="g4208" style="fill:url(#radialGradient6459);fill-opacity:1"><path id="path4210" style="fill:url(#radialGradient6457);fill-opacity:1"/></g></g><g id="g4212" style="fill:url(#radialGradient6471);fill-opacity:1"><g style="opacity:.75;fill:url(#radialGradient6465);fill-opacity:1" id="g4214"><path id="path4216" style="fill:url(#radialGradient6463);fill-opacity:1"/></g><g id="g4218" style="fill:url(#radialGradient6469);fill-opacity:1"><path id="path4220" style="fill:url(#radialGradient6467);fill-opacity:1"/></g></g><g id="g4222" style="fill:url(#radialGradient6477);fill-opacity:1"><g id="g4226" style="fill:url(#radialGradient6475);fill-opacity:1"><path id="path4228" d="M 17.4922,6.8496 17.856,6.521 18.5831,6.3564 c 0.498,-0.2422 0.998,-0.4053 1.5264,-0.5762 l -0.29,-0.4937 -0.9385,0.1348 -0.4434,0.4419 -0.731,0.106 -0.6499,0.3052 -0.3159,0.1528 -0.1929,0.2583 0.9443,0.1641" style="fill:url(#radialGradient6473);fill-opacity:1"/></g></g><g id="g4230" style="fill:url(#radialGradient6483);fill-opacity:1"><g id="g4234" style="fill:url(#radialGradient6481);fill-opacity:1"><path id="path4236" d="m 18.7285,14.6665 0.4365,-0.6582 -0.6548,-0.4932 0.2183,1.1514" style="fill:url(#radialGradient6479);fill-opacity:1"/></g></g></g><path style="opacity:.39560439;fill:none;stroke:url(#radialGradient4132);stroke-width:1.0001967;stroke-linecap:round;stroke-linejoin:bevel;stroke-miterlimit:4;stroke-dasharray:none;stroke-opacity:1" id="path4122" d="M 15.588685,42.354532 C 5.9583202,38.925271 1.9860808,27.582456 5.4153931,17.95196 8.8445795,8.3218143 19.477437,2.5741263 29.1078,6.0033902"/></g><g id="g3953" transform="matrix(0.26698302,0,0,0.26698302,-18.200045,224.19241)" style="display:inline"><g id="g3910" clip-path="url(#clipPath3975)" transform="matrix(1.0342355,0,0,1.1626185,-93.468053,-12.18182)"><path id="path3112" d="m 620.83561,96 c 0,-96.90301599 170.40807,-96.74199532 170.40807,0" style="fill:none;stroke:#d40000;stroke-width:10;stroke-linecap:square;stroke-linejoin:miter;stroke-opacity:1"/><path style="fill:none;stroke:#f60;stroke-width:10;stroke-linecap:square;stroke-linejoin:miter;stroke-opacity:1" id="path3114" d="m 630.83556,96 c 0,-85.558243 151.42104,-84.13482 151.42104,0"/><path id="path3904" d="m 640.83556,96 c 0,-74.558243 131.42104,-69.63482 131.42104,0" style="fill:none;stroke:#fd5;stroke-width:10;stroke-linecap:square;stroke-linejoin:miter;stroke-opacity:1"/><path style="fill:none;stroke:#55d400;stroke-width:10;stroke-linecap:square;stroke-linejoin:miter;stroke-opacity:1" id="path3906" d="m 650.83556,96 c 0,-62.058243 111.42104,-58.13482 111.42104,0"/><path id="path3908" d="m 660.83556,96 c 0,-51.058243 91.42104,-44.13482 91.42104,0" style="fill:none;stroke:#06f;stroke-width:10;stroke-linecap:square;stroke-linejoin:miter;stroke-opacity:1"/></g><path id="rect3943" d="M 602.60336,4.4685502 758.5,1.0000088 V 89.260667 L 648.68541,88.269655 Z" style="fill:url(#linearGradient3980);fill-opacity:1;stroke:none"/><text xml:space="preserve" style="font-style:normal;font-weight:400;line-height:0%;font-family:sans-serif;letter-spacing:0;word-spacing:0;fill:#da3f4d;fill-opacity:1;stroke:none" id="text3917" x="624.107" y="73.136" transform="scale(0.99902385,1.0009771)"><tspan id="tspan3921" x="624.107" y="73.136" style="font-style:normal;font-variant:normal;font-weight:700;font-stretch:normal;font-size:35.52317047px;line-height:125%;font-family:'Arial Black';-inkscape-font-specification:'Arial Black, Bold';text-align:start;writing-mode:lr-tb;text-anchor:start;fill:#da3f4d;fill-opacity:1;stroke:#2b0000;stroke-width:1.25;stroke-miterlimit:4;stroke-dasharray:none">O<tspan style="font-size:27.0526123px;stroke-width:1.25;stroke-miterlimit:4;stroke-dasharray:none" id="tspan3933">PEN</tspan></tspan></text><g id="g4008" transform="translate(21.016112,-9.4572504)"><path style="fill:#da3f4d;fill-opacity:1;stroke:none;stroke-width:1.66604066" id="path3972" d="m 667.7657,106.09043 -8.03412,-3.65268 1.14393,8.75104 -5.13142,-7.18038 -3.38484,8.15058 -0.85375,-8.78409 -7.00665,5.36619 3.65268,-8.03412 -8.75104,1.14392 7.18038,-5.131409 -8.15059,-3.384847 8.7841,-0.853745 -5.36619,-7.006656 8.03412,3.652684 -1.14392,-8.751038 5.13141,7.180379 3.38485,-8.150586 0.85374,8.784097 7.00666,-5.366191 -3.65269,8.034124 8.75104,-1.143929 -7.18038,5.131413 8.15059,3.384847 -8.7841,0.853744 z"/><text xml:space="preserve" style="font-style:normal;font-weight:400;line-height:0%;font-family:sans-serif;letter-spacing:0;word-spacing:0;fill:#da3f4d;fill-opacity:1;stroke:none" id="text3935" x="645.128" y="105.104" transform="scale(0.99902385,1.0009771)"><tspan id="tspan3937" x="645.128" y="105.104" style="font-style:normal;font-variant:normal;font-weight:700;font-stretch:normal;font-size:35.52317047px;line-height:125%;font-family:'Arial Black';-inkscape-font-specification:'Arial Black, Bold';text-align:start;writing-mode:lr-tb;text-anchor:start;fill:#da3f4d;fill-opacity:1;stroke:#2b0000;stroke-width:1.25;stroke-miterlimit:4;stroke-dasharray:none"><tspan id="tspan3941" style="font-size:27px;stroke-width:1.25;stroke-miterlimit:4;stroke-dasharray:none">OURCE</tspan></tspan></text><g id="g2388"><ellipse id="path3976" cx="655.355" cy="95.545" rx="6.75" ry="7.43" style="fill:#da3f4d;fill-opacity:1;stroke:none;stroke-width:1.18400633"/><path style="fill:#ffe680;fill-opacity:1;stroke:none;filter:url(#filter3996)" id="path3974" d="m 751.65446,158.6063 -4.61727,-2.35261 1.42825,4.98137 -3.26119,-4.02723 -0.72133,5.13163 -1.34122,-5.0055 -2.74619,4.39458 0.81065,-5.11828 -4.29621,2.89768 2.82236,-4.34606 -5.10337,0.89974 4.34605,-2.82237 -5.02812,-1.25378 5.11828,-0.81066 -4.08346,-3.1905 5.0055,1.34121 -2.43272,-4.57556 4.02723,3.26118 -0.36136,-5.16946 2.35262,4.61726 1.77249,-4.86952 0.27122,5.17498 3.59986,-3.72759 -1.85708,4.83789 4.80478,-1.94113 -3.66428,3.66429 5.17892,0.18098 -4.83788,1.85709 4.65756,2.27179 -5.17497,-0.2712 z" transform="matrix(0.7694043,0,0,0.7694043,83.061976,-21.369435)"/></g></g><text xml:space="preserve" style="font-style:normal;font-weight:400;line-height:0%;font-family:sans-serif;letter-spacing:0;word-spacing:0;fill:#da3f4d;fill-opacity:1;stroke:none" id="text4002" x="639.343" y="102.48" transform="scale(0.99902385,1.0009771)"><tspan id="tspan4004" x="639.343" y="102.48" style="font-style:normal;font-variant:normal;font-weight:700;font-stretch:normal;font-size:35.52317047px;line-height:125%;font-family:'Arial Black';-inkscape-font-specification:'Arial Black, Bold';text-align:start;writing-mode:lr-tb;text-anchor:start;fill:#da3f4d;fill-opacity:1;stroke:#2b0000;stroke-width:1.25;stroke-miterlimit:4;stroke-dasharray:none">S</tspan></text></g><path id="rect2414" d="m 135.3251,248.35156 2.74982,0.0118 c -0.0302,0.76363 -0.0987,1.53204 -0.37798,2.3268 l -3.01027,-0.35925 z" style="opacity:1;fill:url(#linearGradient2422);fill-opacity:1;stroke:none;stroke-width:.13394283;stroke-linecap:round;stroke-linejoin:bevel;stroke-miterlimit:4;stroke-dasharray:none;stroke-dashoffset:0;stroke-opacity:1"/><path style="opacity:1;fill:url(#linearGradient2427);fill-opacity:1;stroke:none;stroke-width:.13394283;stroke-linecap:round;stroke-linejoin:bevel;stroke-miterlimit:4;stroke-dasharray:none;stroke-dashoffset:0;stroke-opacity:1" id="path2425" d="m 138.1127,248.35156 2.74982,0.0118 c -0.0302,0.76363 -0.0987,1.53204 -0.37798,2.3268 l -2.67895,-0.10631 z"/><path style="opacity:1;fill:url(#linearGradient2437);fill-opacity:1;stroke:none;stroke-width:.13394283;stroke-linecap:round;stroke-linejoin:bevel;stroke-miterlimit:4;stroke-dasharray:none;stroke-dashoffset:0;stroke-opacity:1" id="path2435" d="m 132.54735,248.28474 2.71641,0.0786 c -0.10537,0.78033 -0.39399,1.30762 -0.67327,2.10238 l -2.38366,0.11811 z"/><path id="path2445" d="m 129.86812,248.35156 2.63289,0.0118 c -0.12207,0.80539 -0.0933,1.52478 -0.37259,2.31954 l -2.56741,-0.099 c -0.001,-0.71442 0.15737,-1.47466 0.30711,-2.23229 z" style="opacity:1;fill:url(#linearGradient2447);fill-opacity:1;stroke:none;stroke-width:.13394283;stroke-linecap:round;stroke-linejoin:bevel;stroke-miterlimit:4;stroke-dasharray:none;stroke-dashoffset:0;stroke-opacity:1"/><path id="path2457" d="m 127.0135,248.38497 2.74146,-0.10513 c -0.0218,1.0309 -0.085,1.29927 -0.27236,2.3613 l -2.56741,-0.0573 c -10e-4,-0.71442 -0.0514,-1.44125 0.0983,-2.19888 z" style="opacity:1;fill:url(#linearGradient2459);fill-opacity:1;stroke:none;stroke-width:.13394283;stroke-linecap:round;stroke-linejoin:bevel;stroke-miterlimit:4;stroke-dasharray:none;stroke-dashoffset:0;stroke-opacity:1"/></g></g></svg>