<svg xmlns="http://www.w3.org/2000/svg" xmlns:xlink="http://www.w3.org/1999/xlink" viewBox="0 0 640 120"><defs id="defs_block"><filter id="filter_blur" width="1.157" height="1.504" x="-.079" y="-.252"><feGaussianBlur id="feGaussianBlur3780" stdDeviation="4.2"/></filter></defs><title>blockdiag</title><desc>blockdiag { &quot;Web Interface&quot; [shape=&quot;cloud&quot;] &quot;Dialogue Manager&quot; [shape=&quot;roundedbox&quot;, color=&quot;yellow&quot;] &quot;Sub-System Actors&quot; [shape=&quot;roundedbox&quot;, stacked] &quot;Web Interface&quot; &lt;-&gt; &quot;Dialogue Manager&quot; &lt;-&gt; &quot;Sub-System Actors&quot;; }</desc><path fill="#000" stroke="#000" d="M 87 62 A20,8 0 0 1 107 54 A20,6 0 0 1 157 54 A20,8 0 0 1 177 62 A20,8 0 0 1 177 78 A20,20 0 0 1 147 78 A20,20 0 0 1 117 78 A20,20 0 0 1 87 78 A20,8 0 0 1 87 62" style="filter:url(#filter_blur);opacity:.7;fill-opacity:1"/><path fill="#000" stroke="#000" d="M 267 46 L 379 46 A8,8 0 0 1 387 54 L 387 78 A8,8 0 0 1 379 86 L 267 86 A8,8 0 0 1 259 78 L 259 54 A8,8 0 0 1 267 46" style="filter:url(#filter_blur);opacity:.7;fill-opacity:1"/><path fill="#000" stroke="#000" d="M 467 54 L 579 54 A8,8 0 0 1 587 62 L 587 86 A8,8 0 0 1 579 94 L 467 94 A8,8 0 0 1 459 86 L 459 62 A8,8 0 0 1 467 54" style="filter:url(#filter_blur);opacity:.7;fill-opacity:1"/><path fill="#000" stroke="#000" d="M 463 50 L 575 50 A8,8 0 0 1 583 58 L 583 82 A8,8 0 0 1 575 90 L 463 90 A8,8 0 0 1 455 82 L 455 58 A8,8 0 0 1 463 50" style="filter:url(#filter_blur);opacity:.7;fill-opacity:1"/><path fill="#000" stroke="#000" d="M 459 46 L 571 46 A8,8 0 0 1 579 54 L 579 78 A8,8 0 0 1 571 86 L 459 86 A8,8 0 0 1 451 78 L 451 54 A8,8 0 0 1 459 46" style="filter:url(#filter_blur);opacity:.7;fill-opacity:1"/><path fill="#FFF" stroke="#000" d="M 84 56 A20,8 0 0 1 104 48 A20,6 0 0 1 154 48 A20,8 0 0 1 174 56 A20,8 0 0 1 174 72 A20,20 0 0 1 144 72 A20,20 0 0 1 114 72 A20,20 0 0 1 84 72 A20,8 0 0 1 84 56"/><text x="129.5" y="65" fill="#000" font-family="sans-serif" font-size="11" font-style="normal" font-weight="normal" text-anchor="middle" textLength="71">Web Interface</text><path fill="#FF0" stroke="#000" d="M 264 40 L 376 40 A8,8 0 0 1 384 48 L 384 72 A8,8 0 0 1 376 80 L 264 80 A8,8 0 0 1 256 72 L 256 48 A8,8 0 0 1 264 40"/><text x="320" y="66" fill="#000" font-family="sans-serif" font-size="11" font-style="normal" font-weight="normal" text-anchor="middle" textLength="94">Dialogue Manager</text><path fill="#FFF" stroke="#000" d="M 464 48 L 576 48 A8,8 0 0 1 584 56 L 584 80 A8,8 0 0 1 576 88 L 464 88 A8,8 0 0 1 456 80 L 456 56 A8,8 0 0 1 464 48"/><path fill="#FFF" stroke="#000" d="M 460 44 L 572 44 A8,8 0 0 1 580 52 L 580 76 A8,8 0 0 1 572 84 L 460 84 A8,8 0 0 1 452 76 L 452 52 A8,8 0 0 1 460 44"/><path fill="#FFF" stroke="#000" d="M 456 40 L 568 40 A8,8 0 0 1 576 48 L 576 72 A8,8 0 0 1 568 80 L 456 80 A8,8 0 0 1 448 72 L 448 48 A8,8 0 0 1 456 40"/><text x="512" y="67" fill="#000" font-family="sans-serif" font-size="11" font-style="normal" font-weight="normal" text-anchor="middle" textLength="96">Sub-System Actors</text><path fill="none" stroke="#000" d="M 200 60 L 248 60"/><polygon fill="#000" stroke="#000" points="193 60 200 56 200 64 193 60"/><polygon fill="#000" stroke="#000" points="255 60 248 56 248 64 255 60"/><path fill="none" stroke="#000" d="M 392 60 L 440 60"/><polygon fill="#000" stroke="#000" points="385 60 392 56 392 64 385 60"/><polygon fill="#000" stroke="#000" points="447 60 440 56 440 64 447 60"/></svg>