<svg xmlns="http://www.w3.org/2000/svg" xmlns:xlink="http://www.w3.org/1999/xlink" viewBox="0 0 1024 200"><defs id="defs_block"><filter id="filter_blur" width="1.157" height="1.504" x="-.079" y="-.252"><feGaussianBlur id="feGaussianBlur3780" stdDeviation="4.2"/></filter></defs><title>blockdiag</title><desc>blockdiag { &quot;sentences.ini&quot; [color=&quot;yellow&quot;] &quot;JSGF Grammars&quot; [stacked] &quot;Speech Recognizer&quot; [color=&quot;#CCCCFF&quot;] &quot;Intent Recognizer&quot; [color=&quot;#CCCCFF&quot;] &quot;sentences.ini&quot; -&gt; &quot;JSGF Grammars&quot;; &quot;JSGF Grammars&quot; -&gt; &quot;Language Model&quot;; &quot;JSGF Grammars&quot; -&gt; &quot;Dictionary&quot;; &quot;JSGF Grammars&quot; -&gt; &quot;Intent Recognizer&quot;; &quot;Language Model&quot; -&gt; &quot;Speech Recognizer&quot;; &quot;Dictionary&quot; -&gt; &quot;Speech Recognizer&quot;; &quot;Speech Recognizer&quot; -&gt; &quot;Intent Recognizer&quot;; }</desc><rect width="128" height="40" x="67" y="46" fill="#000" stroke="#000" style="filter:url(#filter_blur);opacity:.7;fill-opacity:1"/><rect width="128" height="40" x="267" y="54" fill="#000" stroke="#000" style="filter:url(#filter_blur);opacity:.7;fill-opacity:1"/><rect width="128" height="40" x="263" y="50" fill="#000" stroke="#000" style="filter:url(#filter_blur);opacity:.7;fill-opacity:1"/><rect width="128" height="40" x="259" y="46" fill="#000" stroke="#000" style="filter:url(#filter_blur);opacity:.7;fill-opacity:1"/><rect width="128" height="40" x="643" y="46" fill="#000" stroke="#000" style="filter:url(#filter_blur);opacity:.7;fill-opacity:1"/><rect width="128" height="40" x="451" y="46" fill="#000" stroke="#000" style="filter:url(#filter_blur);opacity:.7;fill-opacity:1"/><rect width="128" height="40" x="451" y="126" fill="#000" stroke="#000" style="filter:url(#filter_blur);opacity:.7;fill-opacity:1"/><rect width="128" height="40" x="835" y="46" fill="#000" stroke="#000" style="filter:url(#filter_blur);opacity:.7;fill-opacity:1"/><rect width="128" height="40" x="64" y="40" fill="#FF0" stroke="#000"/><text x="128" y="65" fill="#000" font-family="sans-serif" font-size="11" font-style="normal" font-weight="normal" text-anchor="middle" textLength="68">sentences.ini</text><rect width="128" height="40" x="264" y="48" fill="#FFF" stroke="#000"/><rect width="128" height="40" x="260" y="44" fill="#FFF" stroke="#000"/><rect width="128" height="40" x="256" y="40" fill="#FFF" stroke="#000"/><text x="320.5" y="65" fill="#000" font-family="sans-serif" font-size="11" font-style="normal" font-weight="normal" text-anchor="middle" textLength="81">JSGF Grammars</text><rect width="128" height="40" x="640" y="40" fill="#CCF" stroke="#000"/><text x="704" y="66" fill="#000" font-family="sans-serif" font-size="11" font-style="normal" font-weight="normal" text-anchor="middle" textLength="98">Speech Recognizer</text><rect width="128" height="40" x="448" y="40" fill="#FFF" stroke="#000"/><text x="512" y="66" fill="#000" font-family="sans-serif" font-size="11" font-style="normal" font-weight="normal" text-anchor="middle" textLength="86">Language Model</text><rect width="128" height="40" x="448" y="120" fill="#FFF" stroke="#000"/><text x="512" y="147" fill="#000" font-family="sans-serif" font-size="11" font-style="normal" font-weight="normal" text-anchor="middle" textLength="54">Dictionary</text><rect width="128" height="40" x="832" y="40" fill="#CCF" stroke="#000"/><text x="896.5" y="66" fill="#000" font-family="sans-serif" font-size="11" font-style="normal" font-weight="normal" text-anchor="middle" textLength="91">Intent Recognizer</text><path fill="none" stroke="#000" d="M 192 60 L 248 60"/><polygon fill="#000" stroke="#000" points="255 60 248 56 248 64 255 60"/><path fill="none" stroke="#000" d="M 392 60 L 440 60"/><polygon fill="#000" stroke="#000" points="447 60 440 56 440 64 447 60"/><path fill="none" stroke="#000" d="M 392 60 L 416 60"/><path fill="none" stroke="#000" d="M 416 60 L 416 140"/><path fill="none" stroke="#000" d="M 416 140 L 440 140"/><polygon fill="#000" stroke="#000" points="447 140 440 136 440 144 447 140"/><path fill="none" stroke="#000" d="M 392 60 L 416 60"/><path fill="none" stroke="#000" d="M 416 60 L 416 100"/><path fill="none" stroke="#000" d="M 416 100 L 620.0 100"/><path fill="none" stroke="#000" d="M 620.0 100.0 A4.0,4.0 0 0 1 628.0 100.0"/><path fill="none" stroke="#000" d="M 628.0 100 L 816 100"/><path fill="none" stroke="#000" d="M 816 100 L 816 60"/><path fill="none" stroke="#000" d="M 816 60 L 824 60"/><polygon fill="#000" stroke="#000" points="831 60 824 56 824 64 831 60"/><path fill="none" stroke="#000" d="M 768 60 L 824 60"/><polygon fill="#000" stroke="#000" points="831 60 824 56 824 64 831 60"/><path fill="none" stroke="#000" d="M 576 60 L 632 60"/><polygon fill="#000" stroke="#000" points="639 60 632 56 632 64 639 60"/><path fill="none" stroke="#000" d="M 576 140 L 624 140"/><path fill="none" stroke="#000" d="M 624 140 L 624 60"/><path fill="none" stroke="#000" d="M 624 60 L 632 60"/><polygon fill="#000" stroke="#000" points="639 60 632 56 632 64 639 60"/></svg>